{
.appVersion = "1342";
DisplayStrings = (
ARKXVE,
"/.notdef"
);
classes = (
{
automatic = 1;

glyphs = (
{
glyphname = .notdef;
layers = (
{
background = {
paths = (
{
closed = 1;
nodes = (
"207 0 LINE",
"207 304 LINE",
"365 304 LINE",
"365 0 LINE",
"512 0 LINE",
"512 750 LINE",
"365 750 LINE",
"365 426 LINE",
"207 426 LINE",
"207 750 LINE",
"60 750 LINE",
"60 0 LINE"
);
}
);
};
layerId = "849A9C4C-BF7C-40C5-8614-1FD725A2A379";
paths = (
{
closed = 1;
nodes = (
"454 0 LINE",
"454 750 LINE",
"60 750 LINE",
"60 0 LINE"
);
},
{
closed = 1;
nodes = (
"127 685 LINE",
"387 685 LINE",
"387 65 LINE",
"127 65 LINE"
);
},
{
closed = 1;
nodes = (
"178 37 LINE",
"397 708 LINE",
"338 728 LINE",
"114 37 LINE"
);
},
{
closed = 1;
nodes = (
"114 708 LINE",
"173 728 LINE",
"397 37 LINE",
"333 37 LINE"
);
}
);
width = 572;
}
);
},
{
glyphname = A;
layers = (
{
anchors = (
{
name = bottom;
position = "{272, 0}";
},
{
name = ogonek;
position = "{527, 3}";
},
{
name = top;
position = "{262, 750}";
}
);
background = {
paths = (
{
closed = 1;
nodes = (
"161 137 LINE",
"354 137 LINE",
"354 259 LINE",
"161 259 LINE"
);
},
{
closed = 1;
nodes = (
"385 -14 LINE",
"522 3 LINE",
"349 762 LINE",
"168 741 LINE",
"15 0 LINE",
"157 0 LINE",
"194 220 LINE",
"187 224 LINE",
"248 554 LINE SMOOTH",
"252 578 OFFCURVE",
"256 601 OFFCURVE",
"260 623 CURVE",
"264 601 OFFCURVE",
"269 578 OFFCURVE",
"273 555 CURVE SMOOTH",
"338 224 LINE",
"330 219 LINE"
);
}
);
};
guideLines = (
{
angle = 7;
position = "{383, -9}";
showMeasurement = 1;
},
{
angle = -78.4216;
position = "{245, 615}";
},
{
angle = 7;
position = "{170, 740}";
}
);
layerId = "849A9C4C-BF7C-40C5-8614-1FD725A2A379";
paths = (
{
closed = 1;
nodes = (
"522 3 LINE",
"349 762 LINE",
"168 741 LINE",
"15 0 LINE",
"157 0 LINE",
"194 220 LINE",
"187 224 LINE",
"248 548 LINE SMOOTH",
"253 572 OFFCURVE",
"256 590 OFFCURVE",
"260 617 CURVE",
"264 594 OFFCURVE",
"268 572 OFFCURVE",
"273 549 CURVE SMOOTH",
"338 224 LINE",
"330 219 LINE",
"385 -14 LINE"
);
},
{
closed = 1;
nodes = (
"367 137 LINE",
"367 259 LINE",
"160 259 LINE",
"160 137 LINE"
);
}
);
width = 537;
}
);
leftKerningGroup = A;
rightKerningGroup = A;
unicode = 0041;
},
{
glyphname = "Alpha-latin";
layers = (
{
background = {
paths = (
{
closed = 1;
nodes = (
"447 -14 OFFCURVE",
"448 138 OFFCURVE",
"448 375 CURVE SMOOTH",
"448 612 OFFCURVE",
"447 764 OFFCURVE",
"273 764 CURVE SMOOTH",
"100 764 OFFCURVE",
"28 612 OFFCURVE",
"28 375 CURVE SMOOTH",
"28 138 OFFCURVE",
"100 -14 OFFCURVE",
"273 -14 CURVE SMOOTH"
);
},
{
closed = 1;
nodes = (
"191 115 OFFCURVE",
"183 238 OFFCURVE",
"183 375 CURVE SMOOTH",
"183 512 OFFCURVE",
"191 635 OFFCURVE",
"273 635 CURVE SMOOTH",
"356 635 OFFCURVE",
"363 512 OFFCURVE",
"363 375 CURVE SMOOTH",
"363 238 OFFCURVE",
"356 115 OFFCURVE",
"273 115 CURVE SMOOTH"
);
},
{
closed = 1;
nodes = (
"363 0 LINE",
"510 0 LINE",
"509 342 OFFCURVE",
"508 609 OFFCURVE",
"510 756 CURVE",
"461 750 OFFCURVE",
"411 746 OFFCURVE",
"363 744 CURVE"
);
}
);
};
layerId = "849A9C4C-BF7C-40C5-8614-1FD725A2A379";
paths = (
{
closed = 1;
nodes = (
"320 -13 OFFCURVE",
"375 76 OFFCURVE",
"375 197 CURVE",
"347 318 LINE",
"347 183 OFFCURVE",
"329 106 OFFCURVE",
"270 106 CURVE SMOOTH",
"214 106 OFFCURVE",
"188 207 OFFCURVE",
"188 376 CURVE SMOOTH",
"188 544 OFFCURVE",
"214 645 OFFCURVE",
"273 645 CURVE SMOOTH",
"328 645 OFFCURVE",
"347 563 OFFCURVE",
"347 431 CURVE",
"375 548 LINE",
"375 654 OFFCURVE",
"335 764 OFFCURVE",
"234 764 CURVE SMOOTH",
"100 764 OFFCURVE",
"38 593 OFFCURVE",
"38 375 CURVE SMOOTH",
"38 135 OFFCURVE",
"100 -13 OFFCURVE",
"225 -13 CURVE SMOOTH"
);
},
{
closed = 1;
nodes = (
"523 -13 OFFCURVE",
"544 -7 OFFCURVE",
"567 1 CURVE",
"555 122 LINE",
"547 119 OFFCURVE",
"540 118 OFFCURVE",
"531 118 CURVE SMOOTH",
"505 118 OFFCURVE",
"494 135 OFFCURVE",
"494 173 CURVE SMOOTH",
"494 760 LINE",
"347 743 LINE",
"347 170 LINE SMOOTH",
"347 72 OFFCURVE",
"390 -13 OFFCURVE",
"495 -13 CURVE SMOOTH"
);
}
);
width = 567;
}
);
unicode = 2C6D;
},
{
glyphname = Aringacute;
layers = (
{
background = {
components = (
{
name = acutecomb;
transform = "{1, 0, 0, 1, 194, 499}";
}
);
};
components = (
{
name = A;
},
{
name = ringcomb.case;
transform = "{1, 0, 0, 1, 262, 0}";
}
);
layerId = "849A9C4C-BF7C-40C5-8614-1FD725A2A379";
paths = (
{
closed = 1;
nodes = (
"502 1074 LINE",
"399 1169 LINE",
"305 1005 LINE",
"337 978 LINE"
);
}
);
width = 537;
}
);
leftKerningGroup = A;
rightKerningGroup = A;
unicode = 01FA;
},
{
glyphname = Astroke;
layers = (
{
background = {
paths = (
{
closed = 1;
nodes = (
"248 -90 LINE",
"382 832 LINE",
"314 840 LINE",
"180 -82 LINE"
);
}
);
};
components = (
{
name = A;
}
);
layerId = "849A9C4C-BF7C-40C5-8614-1FD725A2A379";
paths = (
{
closed = 1;
nodes = (
"311 206 LINE",
"242 206 LINE",
"200 -82 LINE",
"268 -90 LINE"
);
},
{
closed = 1;
nodes = (
"351 619 LINE",
"382 832 LINE",
"314 840 LINE",
"282 619 LINE"
);
}
);
width = 537;
}
);
unicode = 023A;
},
{
glyphname = AE;
layers = (
{
anchors = (
{
name = bottom;
position = "{341, 0}";
},
{
name = top;
position = "{431, 750}";
}
);
background = {
paths = (
{
closed = 1;
nodes = (
"160 0 LINE",
"208 161 LINE",
"347 161 LINE",
"346 0 LINE",
"722 0 LINE",
"737 122 LINE",
"494 122 LINE",
"494 315 LINE",
"654 315 LINE",
"669 433 LINE",
"494 433 LINE",
"494 633 LINE",
"716 633 LINE",
"730 750 LINE",
"260 750 LINE",
"10 0 LINE"
);
},
{
closed = 1;
nodes = (
"347 630 LINE",
"346 277 LINE",
"241 277 LINE"
);
}
);
};
guideLines = (
{
angle = 168;
position = "{169, 0}";
},
{
angle = 160;
position = "{186, -53}";
}
);
layerId = "849A9C4C-BF7C-40C5-8614-1FD725A2A379";
paths = (
{
closed = 1;
nodes = (
"160 0 LINE",
"208 161 LINE",
"347 161 LINE",
"347 0 LINE",
"722 0 LINE",
"737 122 LINE",
"494 122 LINE",
"494 315 LINE",
"654 315 LINE",
"669 433 LINE",
"494 433 LINE",
"494 633 LINE",
"716 633 LINE",
"730 750 LINE",
"260 750 LINE",
"10 0 LINE"
);
},
{
closed = 1;
nodes = (
"347 630 LINE",
"347 277 LINE",
"241 277 LINE"
);
}
);
width = 762;
}
);
leftKerningGroup = AE;
rightKerningGroup = KINDAOPEN;
rightMetricsKey = E;
unicode = 00C6;
},
{
glyphname = B;
layers = (
{
anchors = (
{
name = bottom;
position = "{266, 0}";
},
{
name = top;
position = "{266, 750}";
}
);
background = {
paths = (
{
closed = 1;
nodes = (
"246 0 LINE SMOOTH",
"417 0 OFFCURVE",
"510 72 OFFCURVE",
"510 213 CURVE SMOOTH",
"510 311 OFFCURVE",
"475 356 OFFCURVE",
"398 382 CURVE",
"463 412 OFFCURVE",
"493 478 OFFCURVE",
"493 548 CURVE SMOOTH",
"493 678 OFFCURVE",
"421 750 OFFCURVE",
"244 750 CURVE SMOOTH",
"60 750 LINE",
"60 0 LINE"
);
},
{
closed = 1;
nodes = (
"207 322 LINE",
"246 322 LINE SMOOTH",
"316 322 OFFCURVE",
"360 297 OFFCURVE",
"360 223 CURVE SMOOTH",
"360 145 OFFCURVE",
"316 116 OFFCURVE",
"246 116 CURVE SMOOTH",
"207 116 LINE"
);
},
{
closed = 1;
nodes = (
"207 634 LINE",
"244 634 LINE SMOOTH",
"309 634 OFFCURVE",
"349 607 OFFCURVE",
"349 537 CURVE SMOOTH",
"349 472 OFFCURVE",
"305 435 OFFCURVE",
"255 435 CURVE SMOOTH",
"207 435 LINE"
);
}
);
};
layerId = "849A9C4C-BF7C-40C5-8614-1FD725A2A379";
paths = (
{
closed = 1;
nodes = (
"246 0 LINE SMOOTH",
"417 0 OFFCURVE",
"510 72 OFFCURVE",
"510 213 CURVE SMOOTH",
"510 312 OFFCURVE",
"463 369 OFFCURVE",
"363 393 CURVE",
"353 368 LINE",
"449 385 OFFCURVE",
"493 463 OFFCURVE",
"493 548 CURVE SMOOTH",
"493 678 OFFCURVE",
"421 750 OFFCURVE",
"244 750 CURVE SMOOTH",
"60 750 LINE",
"60 0 LINE"
);
},
{
closed = 1;
nodes = (
"199 322 LINE",
"246 322 LINE SMOOTH",
"321 322 OFFCURVE",
"365 297 OFFCURVE",
"365 223 CURVE SMOOTH",
"365 145 OFFCURVE",
"321 116 OFFCURVE",
"246 116 CURVE SMOOTH",
"199 116 LINE"
);
},
{
closed = 1;
nodes = (
"199 634 LINE",
"244 634 LINE SMOOTH",
"314 634 OFFCURVE",
"354 607 OFFCURVE",
"354 537 CURVE SMOOTH",
"354 472 OFFCURVE",
"310 435 OFFCURVE",
"255 435 CURVE SMOOTH",
"199 435 LINE"
);
}
);
width = 535;
}
);
leftKerningGroup = STRAIGHT;
leftMetricsKey = H;
rightKerningGroup = SMALL;
unicode = 0042;
},
{
glyphname = "Beta-latin";
layers = (
{
background = {
paths = (
{
closed = 1;
nodes = (
"246 0 LINE SMOOTH",
"417 0 OFFCURVE",
"510 72 OFFCURVE",
"510 213 CURVE SMOOTH",
"510 312 OFFCURVE",
"463 369 OFFCURVE",
"363 393 CURVE",
"353 368 LINE",
"449 385 OFFCURVE",
"493 463 OFFCURVE",
"493 548 CURVE SMOOTH",
"493 678 OFFCURVE",
"421 750 OFFCURVE",
"244 750 CURVE SMOOTH",
"60 750 LINE",
"60 0 LINE"
);
},
{
closed = 1;
nodes = (
"199 322 LINE",
"246 322 LINE SMOOTH",
"321 322 OFFCURVE",
"365 297 OFFCURVE",
"365 223 CURVE SMOOTH",
"365 145 OFFCURVE",
"321 116 OFFCURVE",
"246 116 CURVE SMOOTH",
"199 116 LINE"
);
},
{
closed = 1;
nodes = (
"199 634 LINE",
"244 634 LINE SMOOTH",
"314 634 OFFCURVE",
"354 607 OFFCURVE",
"354 537 CURVE SMOOTH",
"354 472 OFFCURVE",
"310 435 OFFCURVE",
"255 435 CURVE SMOOTH",
"199 435 LINE"
);
},
{
closed = 1;
nodes = (
"60 -185 LINE",
"199 -167 LINE",
"199 47 LINE",
"60 47 LINE"
);
}
);
};
layerId = "849A9C4C-BF7C-40C5-8614-1FD725A2A379";
paths = (
{
closed = 1;
nodes = (
"199 -167 LINE",
"199 0 LINE",
"246 0 LINE SMOOTH",
"417 0 OFFCURVE",
"510 72 OFFCURVE",
"510 213 CURVE SMOOTH",
"510 316 OFFCURVE",
"459 374 OFFCURVE",
"351 395 CURVE",
"355 368 LINE",
"449 385 OFFCURVE",
"493 463 OFFCURVE",
"493 548 CURVE SMOOTH",
"493 678 OFFCURVE",
"421 750 OFFCURVE",
"244 750 CURVE SMOOTH",
"60 750 LINE",
"60 -185 LINE"
);
},
{
closed = 1;
nodes = (
"199 322 LINE",
"246 322 LINE SMOOTH",
"321 322 OFFCURVE",
"365 297 OFFCURVE",
"365 223 CURVE SMOOTH",
"365 145 OFFCURVE",
"321 116 OFFCURVE",
"246 116 CURVE SMOOTH",
"199 116 LINE"
);
},
{
closed = 1;
nodes = (
"199 634 LINE",
"244 634 LINE SMOOTH",
"314 634 OFFCURVE",
"354 607 OFFCURVE",
"354 537 CURVE SMOOTH",
"354 472 OFFCURVE",
"310 435 OFFCURVE",
"255 435 CURVE SMOOTH",
"199 435 LINE"
);
}
);
width = 535;
}
);
unicode = A7B4;
},
{
glyphname = Bhook;
layers = (
{
layerId = "849A9C4C-BF7C-40C5-8614-1FD725A2A379";
paths = (
{
closed = 1;
nodes = (
"366 0 LINE SMOOTH",
"537 0 OFFCURVE",
"630 72 OFFCURVE",
"630 213 CURVE SMOOTH",
"630 299 OFFCURVE",
"594 354 OFFCURVE",
"519 382 CURVE",
"583 412 OFFCURVE",
"613 478 OFFCURVE",
"613 548 CURVE SMOOTH",
"613 678 OFFCURVE",
"541 750 OFFCURVE",
"364 750 CURVE SMOOTH",
"170 750 LINE SMOOTH",
"65 750 OFFCURVE",
"0 690 OFFCURVE",
"0 596 CURVE SMOOTH",
"0 550 OFFCURVE",
"16 507 OFFCURVE",
"36 481 CURVE",
"135 518 LINE",
"118 540 OFFCURVE",
"108 561 OFFCURVE",
"108 584 CURVE SMOOTH",
"108 614 OFFCURVE",
"125 634 OFFCURVE",
"154 634 CURVE SMOOTH",
"180 634 LINE",
"180 0 LINE"
);
},
{
closed = 1;
nodes = (
"319 322 LINE",
"366 322 LINE SMOOTH",
"441 322 OFFCURVE",
"485 297 OFFCURVE",
"485 223 CURVE SMOOTH",
"485 145 OFFCURVE",
"441 116 OFFCURVE",
"366 116 CURVE SMOOTH",
"319 116 LINE"
);
},
{
closed = 1;
nodes = (
"319 634 LINE",
"364 634 LINE SMOOTH",
"434 634 OFFCURVE",
"474 607 OFFCURVE",
"474 537 CURVE SMOOTH",
"474 472 OFFCURVE",
"430 435 OFFCURVE",
"375 435 CURVE SMOOTH",
"319 435 LINE"
);
}
);
width = 655;
}
);
unicode = 0181;
},
{
glyphname = Bstroke;
layers = (
{
components = (
{
name = B;
}
);
layerId = "849A9C4C-BF7C-40C5-8614-1FD725A2A379";
paths = (
{
closed = 1;
nodes = (
"286 176 LINE",
"286 266 LINE",
"8 266 LINE",
"8 176 LINE"
);
}
);
width = 535;
}
);
unicode = 0243;
},
{
glyphname = C;
layers = (
{
anchors = (
{
name = bottom;
position = "{285, 0}";
},
{
name = top;
position = "{287, 752}";
}
);
background = {
components = (
{
name = O;
transform = "{1, 0, 0, 1, -1, 0}";
}
);
};
layerId = "849A9C4C-BF7C-40C5-8614-1FD725A2A379";
paths = (
{
closed = 1;
nodes = (
"434 -15 OFFCURVE",
"499 109 OFFCURVE",
"508 240 CURVE",
"371 255 LINE",
"366 187 OFFCURVE",
"348 108 OFFCURVE",
"286 108 CURVE SMOOTH",
"214 108 OFFCURVE",
"190 203 OFFCURVE",
"190 375 CURVE SMOOTH",
"190 543 OFFCURVE",
"216 642 OFFCURVE",
"287 642 CURVE SMOOTH",
"347 642 OFFCURVE",
"365 549 OFFCURVE",
"369 481 CURVE",
"508 510 LINE",
"501 646 OFFCURVE",
"429 765 OFFCURVE",
"288 765 CURVE SMOOTH",
"115 765 OFFCURVE",
"35 628 OFFCURVE",
"35 375 CURVE SMOOTH",
"35 144 OFFCURVE",
"113 -15 OFFCURVE",
"286 -15 CURVE SMOOTH"
);
}
);
width = 533;
}
);
leftKerningGroup = ROUND;
leftMetricsKey = O;
rightKerningGroup = ROPEN;
unicode = 0043;
},
{
glyphname = "Chi-latin";
layers = (
{
background = {
paths = (
{
closed = 1;
nodes = (
"572 748 LINE",
"439 748 LINE",
"314 342 LINE",
"275 342 LINE",
"108 -143 LINE",
"244 -143 LINE",
"360 241 LINE",
"402 241 LINE"
);
},
{
closed = 1;
nodes = (
"262 762 LINE",
"117 718 LINE",
"273 255 LINE",
"302 255 LINE",
"434 -169 LINE",
"576 -122 LINE",
"406 367 LINE",
"372 367 LINE"
);
}
);
};
layerId = "849A9C4C-BF7C-40C5-8614-1FD725A2A379";
paths = (
{
closed = 1;
nodes = (
"528 -153 OFFCURVE",
"577 -126 OFFCURVE",
"603 -79 CURVE",
"537 3 LINE",
"525 -20 OFFCURVE",
"510 -33 OFFCURVE",
"492 -33 CURVE SMOOTH",
"474 -33 OFFCURVE",
"467 -23 OFFCURVE",
"459 2 CURVE SMOOTH",
"349 367 LINE",
"341 365 LINE",
"280 629 LINE SMOOTH",
"259 719 OFFCURVE",
"211 760 OFFCURVE",
"133 760 CURVE SMOOTH",
"72 760 OFFCURVE",
"23 733 OFFCURVE",
"-3 686 CURVE",
"63 604 LINE",
"75 627 OFFCURVE",
"90 640 OFFCURVE",
"108 640 CURVE SMOOTH",
"126 640 OFFCURVE",
"134 630 OFFCURVE",
"141 605 CURVE SMOOTH",
"241 255 LINE",
"245 257 LINE",
"319 -22 LINE SMOOTH",
"343 -111 OFFCURVE",
"389 -153 OFFCURVE",
"467 -153 CURVE SMOOTH"
);
},
{
closed = 1;
nodes = (
"188 -143 LINE",
"320 241 LINE",
"368 241 LINE",
"554 748 LINE",
"421 748 LINE",
"280 342 LINE",
"237 342 LINE",
"55 -143 LINE"
);
}
);
width = 581;
}
);
unicode = A7B3;
},
{
glyphname = Chook;
layers = (
{
anchors = (
{
name = bottom;
position = "{285, 0}";
},
{
name = top;
position = "{287, 752}";
}
);
background = {
paths = (
{
closed = 1;
nodes = (
"434 -15 OFFCURVE",
"499 109 OFFCURVE",
"508 240 CURVE",
"371 255 LINE",
"366 187 OFFCURVE",
"348 108 OFFCURVE",
"286 108 CURVE SMOOTH",
"214 108 OFFCURVE",
"190 203 OFFCURVE",
"190 375 CURVE SMOOTH",
"190 543 OFFCURVE",
"216 642 OFFCURVE",
"287 642 CURVE SMOOTH",
"347 642 OFFCURVE",
"365 549 OFFCURVE",
"369 481 CURVE",
"508 510 LINE",
"459 641 OFFCURVE",
"429 765 OFFCURVE",
"288 765 CURVE SMOOTH",
"115 765 OFFCURVE",
"35 628 OFFCURVE",
"35 375 CURVE SMOOTH",
"35 144 OFFCURVE",
"113 -15 OFFCURVE",
"286 -15 CURVE SMOOTH"
);
},
{
closed = 1;
nodes = (
"599 854 OFFCURVE",
"566 870 OFFCURVE",
"524 870 CURVE SMOOTH",
"436 870 OFFCURVE",
"388 805 OFFCURVE",
"388 730 CURVE SMOOTH",
"388 681 OFFCURVE",
"391 652 OFFCURVE",
"398 630 CURVE",
"508 510 LINE",
"467 698 OFFCURVE",
"479 752 OFFCURVE",
"528 752 CURVE SMOOTH",
"548 752 OFFCURVE",
"560 744 OFFCURVE",
"577 725 CURVE",
"614 834 LINE"
);
}
);
};
layerId = "849A9C4C-BF7C-40C5-8614-1FD725A2A379";
paths = (
{
closed = 1;
nodes = (
"434 -15 OFFCURVE",
"499 109 OFFCURVE",
"508 240 CURVE",
"371 255 LINE",
"366 187 OFFCURVE",
"348 108 OFFCURVE",
"286 108 CURVE SMOOTH",
"214 108 OFFCURVE",
"190 203 OFFCURVE",
"190 375 CURVE SMOOTH",
"190 543 OFFCURVE",
"216 642 OFFCURVE",
"287 642 CURVE SMOOTH",
"347 642 OFFCURVE",
"365 549 OFFCURVE",
"369 481 CURVE",
"508 510 LINE",
"491 588 OFFCURVE",
"483 642 OFFCURVE",
"483 680 CURVE SMOOTH",
"483 733 OFFCURVE",
"499 752 OFFCURVE",
"528 752 CURVE SMOOTH",
"548 752 OFFCURVE",
"560 744 OFFCURVE",
"577 725 CURVE",
"614 834 LINE",
"599 854 OFFCURVE",
"566 870 OFFCURVE",
"524 870 CURVE SMOOTH",
"436 870 OFFCURVE",
"388 805 OFFCURVE",
"388 729 CURVE SMOOTH",
"388 717 OFFCURVE",
"389 704 OFFCURVE",
"392 691 CURVE",
"416 709 LINE",
"386 744 OFFCURVE",
"347 765 OFFCURVE",
"288 765 CURVE SMOOTH",
"115 765 OFFCURVE",
"35 628 OFFCURVE",
"35 375 CURVE SMOOTH",
"35 144 OFFCURVE",
"113 -15 OFFCURVE",
"286 -15 CURVE SMOOTH"
);
}
);
width = 574;
}
);
unicode = 0187;
},
{
glyphname = Cstroke;
layers = (
{
components = (
{
name = C;
}
);
layerId = "849A9C4C-BF7C-40C5-8614-1FD725A2A379";
paths = (
{
closed = 1;
nodes = (
"369 832 LINE",
"301 840 LINE",
"167 -82 LINE",
"235 -90 LINE"
);
}
);
width = 528;
}
);
unicode = 023B;
},
{
glyphname = D;
layers = (
{
anchors = (
{
name = bottom;
position = "{257, 0}";
},
{
name = center;
position = "{267, 375}";
},
{
name = top;
position = "{266, 750}";
}
);
background = {
components = (
{
name = O;
transform = "{1, 0, 0, 1, -18, 1}";
},
{
name = H;
transform = "{1, 0, 0, 1, -4, 0}";
}
);
};
layerId = "849A9C4C-BF7C-40C5-8614-1FD725A2A379";
paths = (
{
closed = 1;
nodes = (
"219 0 LINE SMOOTH",
"421 0 OFFCURVE",
"520 182 OFFCURVE",
"520 375 CURVE SMOOTH",
"520 627 OFFCURVE",
"415 750 OFFCURVE",
"219 750 CURVE SMOOTH",
"60 750 LINE",
"60 0 LINE"
);
},
{
closed = 1;
nodes = (
"202 633 LINE",
"219 633 LINE SMOOTH",
"319 633 OFFCURVE",
"365 546 OFFCURVE",
"365 375 CURVE SMOOTH",
"365 227 OFFCURVE",
"330 120 OFFCURVE",
"223 120 CURVE SMOOTH",
"202 120 LINE"
);
}
);
width = 555;
}
);
leftKerningGroup = STRAIGHT;
leftMetricsKey = H;
rightKerningGroup = ROUND;
rightMetricsKey = O;
unicode = 0044;
},
{
glyphname = Dcroat;
layers = (
{
layerId = "849A9C4C-BF7C-40C5-8614-1FD725A2A379";
paths = (
{
closed = 1;
nodes = (
"223 0 LINE SMOOTH",
"425 0 OFFCURVE",
"523 182 OFFCURVE",
"523 376 CURVE SMOOTH",
"523 627 OFFCURVE",
"419 750 OFFCURVE",
"223 750 CURVE SMOOTH",
"64 750 LINE",
"64 0 LINE"
);
},
{
closed = 1;
nodes = (
"297 330 LINE",
"297 420 LINE",
"14 420 LINE",
"14 330 LINE"
);
},
{
closed = 1;
nodes = (
"207 633 LINE",
"225 633 LINE SMOOTH",
"323 633 OFFCURVE",
"369 546 OFFCURVE",
"369 376 CURVE SMOOTH",
"369 227 OFFCURVE",
"334 120 OFFCURVE",
"229 120 CURVE SMOOTH",
"207 120 LINE"
);
}
);
width = 558;
}
);
unicode = 0110;
},
{
glyphname = Dhook;
layers = (
{
background = {
paths = (
{
closed = 1;
nodes = (
"135 531 LINE",
"118 553 OFFCURVE",
"108 574 OFFCURVE",
"108 597 CURVE SMOOTH",
"108 627 OFFCURVE",
"125 647 OFFCURVE",
"154 647 CURVE SMOOTH",
"183 647 LINE",
"183 750 LINE",
"170 750 LINE SMOOTH",
"65 750 OFFCURVE",
"0 690 OFFCURVE",
"0 596 CURVE SMOOTH",
"0 550 OFFCURVE",
"16 520 OFFCURVE",
"36 494 CURVE"
);
},
{
closed = 1;
nodes = (
"339 0 LINE SMOOTH",
"541 0 OFFCURVE",
"640 182 OFFCURVE",
"640 375 CURVE SMOOTH",
"640 627 OFFCURVE",
"535 750 OFFCURVE",
"339 750 CURVE SMOOTH",
"180 750 LINE",
"180 0 LINE"
);
},
{
closed = 1;
nodes = (
"322 633 LINE",
"339 633 LINE SMOOTH",
"439 633 OFFCURVE",
"485 546 OFFCURVE",
"485 375 CURVE SMOOTH",
"485 227 OFFCURVE",
"450 120 OFFCURVE",
"343 120 CURVE SMOOTH",
"322 120 LINE"
);
}
);
};
layerId = "849A9C4C-BF7C-40C5-8614-1FD725A2A379";
paths = (
{
closed = 1;
nodes = (
"339 0 LINE SMOOTH",
"541 0 OFFCURVE",
"640 182 OFFCURVE",
"640 375 CURVE SMOOTH",
"640 627 OFFCURVE",
"535 750 OFFCURVE",
"339 750 CURVE SMOOTH",
"170 750 LINE SMOOTH",
"65 750 OFFCURVE",
"0 690 OFFCURVE",
"0 596 CURVE SMOOTH",
"0 550 OFFCURVE",
"16 506 OFFCURVE",
"36 480 CURVE",
"135 517 LINE",
"118 539 OFFCURVE",
"108 560 OFFCURVE",
"108 583 CURVE SMOOTH",
"108 613 OFFCURVE",
"125 633 OFFCURVE",
"154 633 CURVE SMOOTH",
"180 633 LINE",
"180 0 LINE"
);
},
{
closed = 1;
nodes = (
"322 633 LINE",
"339 633 LINE SMOOTH",
"439 633 OFFCURVE",
"485 546 OFFCURVE",
"485 375 CURVE SMOOTH",
"485 227 OFFCURVE",
"450 120 OFFCURVE",
"343 120 CURVE SMOOTH",
"322 120 LINE"
);
}
);
width = 675;
}
);
rightMetricsKey = D;
unicode = 018A;
},
{
glyphname = E;
layers = (
{
anchors = (
{
name = bottom;
position = "{259, 0}";
},
{
name = ogonek;
position = "{470, 0}";
},
{
name = top;
position = "{259, 750}";
},
{
name = topleft;
position = "{0, 750}";
}
);
background = {
paths = (
{
closed = 1;
nodes = (
"449 0 LINE",
"463 122 LINE",
"207 122 LINE",
"207 326 LINE",
"382 326 LINE",
"397 446 LINE",
"207 446 LINE",
"207 628 LINE",
"443 628 LINE",
"458 750 LINE",
"60 750 LINE",
"60 0 LINE"
);
}
);
};
guideLines = (
{
position = "{437, 622}";
},
{
position = "{395, 446}";
},
{
angle = 83;
position = "{421, 750}";
}
);
layerId = "849A9C4C-BF7C-40C5-8614-1FD725A2A379";
paths = (
{
closed = 1;
nodes = (
"449 0 LINE",
"463 122 LINE",
"204 122 LINE",
"204 326 LINE",
"382 326 LINE",
"397 446 LINE",
"204 446 LINE",
"204 628 LINE",
"443 628 LINE",
"458 750 LINE",
"60 750 LINE",
"60 0 LINE"
);
}
);
width = 488;
}
);
leftKerningGroup = STRAIGHT;
leftMetricsKey = H;
rightKerningGroup = KINDAOPEN;
unicode = 0045;
},
{
glyphname = Emacronacute;
layers = (
{
background = {
components = (
{
name = E;
},
{
alignment = -1;
name = macroncomb.case;
transform = "{1, 0, 0, 1, 259, -42}";
}
);
paths = (
{
closed = 1;
nodes = (
"386 994 LINE",
"322 1118 LINE",
"132 978 LINE",
"164 913 LINE"
);
}
);
};
components = (
{
name = E;
},
{
name = macroncomb_acutecomb;
transform = "{1, 0, 0, 1, 259, 187}";
}
);
layerId = "849A9C4C-BF7C-40C5-8614-1FD725A2A379";
width = 488;
}
);
unicode = 1E16;
},
{
glyphname = Emacrongrave;
layers = (
{
background = {
components = (
{
name = E;
},
{
alignment = -1;
name = macroncomb.case;
transform = "{1, 0, 0, 1, 259, -42}";
}
);
paths = (
{
closed = 1;
nodes = (
"386 978 LINE",
"196 1118 LINE",
"132 994 LINE",
"354 913 LINE"
);
}
);
};
components = (
{
name = E;
},
{
name = macroncomb_gravecomb;
transform = "{1, 0, 0, 1, 259, 187}";
}
);
layerId = "849A9C4C-BF7C-40C5-8614-1FD725A2A379";
width = 488;
}
);
unicode = 1E14;
},
{
glyphname = Eopen;
layers = (
{
background = {
paths = (
{
closed = 1;
nodes = (
"367 -14 OFFCURVE",
"454 63 OFFCURVE",
"457 192 CURVE",
"338 217 LINE",
"336 152 OFFCURVE",
"306 104 OFFCURVE",
"243 104 CURVE SMOOTH",
"168 104 OFFCURVE",
"147 155 OFFCURVE",
"147 210 CURVE SMOOTH",
"147 292 OFFCURVE",
"201 326 OFFCURVE",
"294 326 CURVE",
"294 434 LINE",
"208 434 OFFCURVE",
"160 467 OFFCURVE",
"160 551 CURVE SMOOTH",
"160 611 OFFCURVE",
"190 647 OFFCURVE",
"243 647 CURVE SMOOTH",
"302 647 OFFCURVE",
"328 598 OFFCURVE",
"332 531 CURVE",
"450 558 LINE",
"440 692 OFFCURVE",
"366 764 OFFCURVE",
"237 764 CURVE SMOOTH",
"111 764 OFFCURVE",
"20 696 OFFCURVE",
"20 555 CURVE SMOOTH",
"20 463 OFFCURVE",
"66 387 OFFCURVE",
"190 368 CURVE",
"188 395 LINE",
"68 376 OFFCURVE",
"10 304 OFFCURVE",
"10 207 CURVE SMOOTH",
"10 86 OFFCURVE",
"92 -14 OFFCURVE",
"241 -14 CURVE SMOOTH"
);
}
);
};
layerId = "849A9C4C-BF7C-40C5-8614-1FD725A2A379";
paths = (
{
closed = 1;
nodes = (
"367 -14 OFFCURVE",
"457 66 OFFCURVE",
"457 192 CURVE",
"338 217 LINE",
"338 152 OFFCURVE",
"306 104 OFFCURVE",
"243 104 CURVE SMOOTH",
"168 104 OFFCURVE",
"147 155 OFFCURVE",
"147 210 CURVE SMOOTH",
"147 292 OFFCURVE",
"201 326 OFFCURVE",
"294 326 CURVE",
"294 434 LINE",
"208 434 OFFCURVE",
"160 467 OFFCURVE",
"160 551 CURVE SMOOTH",
"160 611 OFFCURVE",
"190 647 OFFCURVE",
"243 647 CURVE SMOOTH",
"302 647 OFFCURVE",
"328 598 OFFCURVE",
"332 531 CURVE",
"450 558 LINE",
"440 692 OFFCURVE",
"366 764 OFFCURVE",
"237 764 CURVE SMOOTH",
"111 764 OFFCURVE",
"20 696 OFFCURVE",
"20 555 CURVE SMOOTH",
"20 463 OFFCURVE",
"66 387 OFFCURVE",
"190 368 CURVE",
"188 395 LINE",
"68 376 OFFCURVE",
"10 304 OFFCURVE",
"10 207 CURVE SMOOTH",
"10 86 OFFCURVE",
"92 -14 OFFCURVE",
"241 -14 CURVE SMOOTH"
);
}
);
width = 492;
}
);
unicode = 0190;
},
{
glyphname = Ereversed;
layers = (
{
layerId = "849A9C4C-BF7C-40C5-8614-1FD725A2A379";
paths = (
{
closed = 1;
nodes = (
"428 0 LINE",
"428 750 LINE",
"46 750 LINE",
"31 628 LINE",
"284 628 LINE",
"284 446 LINE",
"108 446 LINE",
"92 326 LINE",
"284 326 LINE",
"284 122 LINE",
"39 122 LINE",
"25 0 LINE"
);
}
);
width = 488;
}
);
unicode = 018E;
},
{
glyphname = Esh;
layers = (
{
background = {
paths = (
{
closed = 1;
nodes = (
"441 0 LINE",
"455 122 LINE",
"196 122 LINE",
"196 326 LINE",
"374 326 LINE",
"389 446 LINE",
"196 446 LINE",
"196 628 LINE",
"435 628 LINE",
"450 750 LINE",
"52 750 LINE",
"52 0 LINE"
);
}
);
};
layerId = "849A9C4C-BF7C-40C5-8614-1FD725A2A379";
paths = (
{
closed = 1;
nodes = (
"441 0 LINE",
"455 122 LINE",
"144 122 LINE",
"184 67 LINE",
"365 375 LINE",
"184 683 LINE",
"144 628 LINE",
"435 628 LINE",
"450 750 LINE",
"52 750 LINE",
"52 638 LINE",
"207 375 LINE",
"52 112 LINE",
"52 0 LINE"
);
}
);
width = 480;
}
);
unicode = 01A9;
},
{
glyphname = Estroke;
layers = (
{
layerId = "849A9C4C-BF7C-40C5-8614-1FD725A2A379";
paths = (
{
closed = 1;
nodes = (
"449 0 LINE",
"463 122 LINE",
"204 122 LINE",
"204 326 LINE",
"409 326 LINE",
"424 446 LINE",
"204 446 LINE",
"204 628 LINE",
"443 628 LINE",
"458 750 LINE",
"60 750 LINE",
"60 0 LINE"
);
},
{
closed = 1;
nodes = (
"417 832 LINE",
"349 840 LINE",
"215 -82 LINE",
"283 -90 LINE"
);
}
);
width = 488;
}
);
unicode = 0246;
},
{
glyphname = Ezh;
layers = (
{
anchors = (
{
name = bottom;
position = "{238, 0}";
},
{
name = top;
position = "{238, 750}";
}
);
background = {
paths = (
{
closed = 1;
nodes = (
"359 -154 OFFCURVE",
"441 -54 OFFCURVE",
"441 117 CURVE SMOOTH",
"441 264 OFFCURVE",
"383 366 OFFCURVE",
"263 385 CURVE",
"147 389 LINE",
"147 301 LINE",
"239 300 OFFCURVE",
"304 252 OFFCURVE",
"304 120 CURVE SMOOTH",
"304 15 OFFCURVE",
"283 -36 OFFCURVE",
"221 -36 CURVE SMOOTH",
"167 -36 OFFCURVE",
"141 12 OFFCURVE",
"139 117 CURVE",
"10 92 LINE",
"13 -77 OFFCURVE",
"100 -154 OFFCURVE",
"218 -154 CURVE SMOOTH"
);
},
{
closed = 1;
nodes = (
"428 638 LINE",
"428 750 LINE",
"46 750 LINE",
"31 628 LINE",
"347 628 LINE",
"303 680 LINE",
"147 396 LINE",
"147 369 LINE",
"250 320 LINE"
);
}
);
};
layerId = "849A9C4C-BF7C-40C5-8614-1FD725A2A379";
paths = (
{
closed = 1;
nodes = (
"359 -154 OFFCURVE",
"441 -54 OFFCURVE",
"441 117 CURVE SMOOTH",
"441 272 OFFCURVE",
"376 378 OFFCURVE",
"241 388 CURVE",
"253 326 LINE",
"428 638 LINE",
"428 750 LINE",
"46 750 LINE",
"31 628 LINE",
"337 628 LINE",
"304 683 LINE",
"147 396 LINE",
"147 301 LINE",
"239 301 OFFCURVE",
"304 252 OFFCURVE",
"304 120 CURVE SMOOTH",
"304 15 OFFCURVE",
"283 -36 OFFCURVE",
"221 -36 CURVE SMOOTH",
"167 -36 OFFCURVE",
"141 12 OFFCURVE",
"141 117 CURVE",
"10 92 LINE",
"10 -73 OFFCURVE",
"100 -154 OFFCURVE",
"218 -154 CURVE SMOOTH"
);
}
);
width = 476;
}
);
unicode = 01B7;
},
{
glyphname = Ezhreversed;
layers = (
{
background = {
paths = (
{
closed = 1;
nodes = (
"376 -154 OFFCURVE",
"463 -77 OFFCURVE",
"466 92 CURVE",
"337 117 LINE",
"335 12 OFFCURVE",
"315 -36 OFFCURVE",
"260 -36 CURVE SMOOTH",
"203 -36 OFFCURVE",
"172 15 OFFCURVE",
"172 120 CURVE SMOOTH",
"172 252 OFFCURVE",
"237 300 OFFCURVE",
"329 301 CURVE",
"329 389 LINE",
"213 385 LINE",
"93 366 OFFCURVE",
"35 264 OFFCURVE",
"35 117 CURVE SMOOTH",
"35 -54 OFFCURVE",
"117 -154 OFFCURVE",
"258 -154 CURVE SMOOTH"
);
},
{
closed = 1;
nodes = (
"329 369 LINE",
"329 396 LINE",
"173 680 LINE",
"129 628 LINE",
"432 628 LINE",
"446 750 LINE",
"48 750 LINE",
"48 638 LINE",
"226 320 LINE"
);
}
);
};
layerId = "849A9C4C-BF7C-40C5-8614-1FD725A2A379";
paths = (
{
closed = 1;
nodes = (
"376 -154 OFFCURVE",
"466 -73 OFFCURVE",
"466 92 CURVE",
"337 117 LINE",
"337 15 OFFCURVE",
"315 -36 OFFCURVE",
"260 -36 CURVE SMOOTH",
"203 -36 OFFCURVE",
"172 15 OFFCURVE",
"172 120 CURVE SMOOTH",
"172 252 OFFCURVE",
"237 301 OFFCURVE",
"329 301 CURVE",
"329 396 LINE",
"172 683 LINE",
"139 628 LINE",
"432 628 LINE",
"446 750 LINE",
"48 750 LINE",
"48 638 LINE",
"223 326 LINE",
"235 388 LINE",
"100 378 OFFCURVE",
"35 272 OFFCURVE",
"35 117 CURVE SMOOTH",
"35 -54 OFFCURVE",
"117 -154 OFFCURVE",
"258 -154 CURVE SMOOTH"
);
}
);
width = 476;
}
);
unicode = 01B8;
},
{
glyphname = F;
layers = (
{
anchors = (
{
name = bottom;
position = "{220, 0}";
},
{
name = top;
position = "{260, 750}";
}
);
background = {
components = (
{
name = E;
}
);
};
guideLines = (
{
position = "{-3, 438}";
},
{
angle = 83;
position = "{414, 750}";
},
{
angle = 3;
position = "{207, 0}";
}
);
layerId = "849A9C4C-BF7C-40C5-8614-1FD725A2A379";
paths = (
{
closed = 1;
nodes = (
"204 0 LINE",
"204 313 LINE",
"379 313 LINE",
"394 435 LINE",
"204 435 LINE",
"204 628 LINE",
"435 628 LINE",
"450 750 LINE",
"60 750 LINE",
"60 0 LINE"
);
}
);
width = 460;
}
);
leftKerningGroup = STRAIGHT;
leftMetricsKey = H;
rightKerningGroup = KINDAOPEN;
unicode = 0046;
},
{
glyphname = Fhook;
layers = (
{
layerId = "849A9C4C-BF7C-40C5-8614-1FD725A2A379";
paths = (
{
closed = 1;
nodes = (
"145 -183 OFFCURVE",
"204 -124 OFFCURVE",
"204 -10 CURVE SMOOTH",
"204 313 LINE",
"379 313 LINE",
"394 435 LINE",
"204 435 LINE",
"204 628 LINE",
"435 628 LINE",
"450 750 LINE",
"60 750 LINE",
"60 3 LINE SMOOTH",
"60 -40 OFFCURVE",
"49 -57 OFFCURVE",
"23 -57 CURVE SMOOTH",
"14 -57 OFFCURVE",
"7 -56 OFFCURVE",
"-1 -53 CURVE",
"-13 -169 LINE",
"10 -177 OFFCURVE",
"31 -183 OFFCURVE",
"59 -183 CURVE SMOOTH"
);
}
);
width = 460;
}
);
unicode = 0191;
},
{
glyphname = G;
layers = (
{
anchors = (
{
name = bottom;
position = "{286, 0}";
},
{
name = top;
position = "{287, 750}";
}
);
background = {
components = (
{
name = C;
transform = "{1, 0, 0, 1, -1, 0}";
}
);
};
guideLines = (
{
angle = 83;
position = "{297, 375}";
},
{
angle = 7;
position = "{440, -12}";
}
);
layerId = "849A9C4C-BF7C-40C5-8614-1FD725A2A379";
paths = (
{
closed = 1;
nodes = (
"510 -8 LINE",
"510 374 LINE",
"299 374 LINE",
"285 262 LINE",
"378 262 LINE",
"378 228 LINE SMOOTH",
"378 178 OFFCURVE",
"355 107 OFFCURVE",
"288 107 CURVE SMOOTH",
"197 107 OFFCURVE",
"183 238 OFFCURVE",
"183 361 CURVE SMOOTH",
"183 509 OFFCURVE",
"200 641 OFFCURVE",
"285 641 CURVE SMOOTH",
"348 641 OFFCURVE",
"366 569 OFFCURVE",
"372 493 CURVE",
"504 521 LINE",
"496 662 OFFCURVE",
"427 764 OFFCURVE",
"290 764 CURVE SMOOTH",
"109 764 OFFCURVE",
"35 609 OFFCURVE",
"35 363 CURVE SMOOTH",
"35 114 OFFCURVE",
"124 -14 OFFCURVE",
"268 -14 CURVE SMOOTH",
"341 -14 OFFCURVE",
"397 30 OFFCURVE",
"423 80 CURVE",
"442 -17 LINE"
);
}
);
width = 550;
}
);
leftKerningGroup = ROUND;
leftMetricsKey = C;
rightKerningGroup = ROPEN;
unicode = 0047;
},
{
glyphname = Ghook;
layers = (
{
anchors = (
{
name = bottom;
position = "{286, 0}";
},
{
name = top;
position = "{287, 750}";
}
);
background = {
paths = (
{
closed = 1;
nodes = (
"341 -14 OFFCURVE",
"397 30 OFFCURVE",
"423 80 CURVE",
"442 -17 LINE",
"510 -8 LINE",
"510 374 LINE",
"299 374 LINE",
"285 262 LINE",
"378 262 LINE",
"378 228 LINE SMOOTH",
"378 178 OFFCURVE",
"355 107 OFFCURVE",
"288 107 CURVE SMOOTH",
"197 107 OFFCURVE",
"183 238 OFFCURVE",
"183 361 CURVE SMOOTH",
"183 509 OFFCURVE",
"200 641 OFFCURVE",
"285 641 CURVE SMOOTH",
"348 641 OFFCURVE",
"366 569 OFFCURVE",
"372 493 CURVE",
"504 521 LINE",
"462 658 OFFCURVE",
"427 764 OFFCURVE",
"290 764 CURVE SMOOTH",
"109 764 OFFCURVE",
"35 609 OFFCURVE",
"35 363 CURVE SMOOTH",
"35 114 OFFCURVE",
"124 -14 OFFCURVE",
"268 -14 CURVE SMOOTH"
);
},
{
closed = 1;
nodes = (
"599 854 OFFCURVE",
"566 870 OFFCURVE",
"524 870 CURVE SMOOTH",
"436 870 OFFCURVE",
"388 805 OFFCURVE",
"388 730 CURVE SMOOTH",
"388 681 OFFCURVE",
"391 652 OFFCURVE",
"398 630 CURVE",
"504 521 LINE",
"463 709 OFFCURVE",
"479 752 OFFCURVE",
"528 752 CURVE SMOOTH",
"548 752 OFFCURVE",
"560 744 OFFCURVE",
"577 725 CURVE",
"614 834 LINE"
);
}
);
};
layerId = "849A9C4C-BF7C-40C5-8614-1FD725A2A379";
paths = (
{
closed = 1;
nodes = (
"510 -8 LINE",
"510 374 LINE",
"299 374 LINE",
"285 262 LINE",
"378 262 LINE",
"378 228 LINE SMOOTH",
"378 178 OFFCURVE",
"355 107 OFFCURVE",
"288 107 CURVE SMOOTH",
"197 107 OFFCURVE",
"183 238 OFFCURVE",
"183 361 CURVE SMOOTH",
"183 509 OFFCURVE",
"200 641 OFFCURVE",
"285 641 CURVE SMOOTH",
"348 641 OFFCURVE",
"366 569 OFFCURVE",
"372 493 CURVE",
"504 521 LINE",
"488 595 OFFCURVE",
"481 646 OFFCURVE",
"481 681 CURVE SMOOTH",
"481 736 OFFCURVE",
"498 752 OFFCURVE",
"528 752 CURVE SMOOTH",
"548 752 OFFCURVE",
"560 744 OFFCURVE",
"577 725 CURVE",
"614 834 LINE",
"599 854 OFFCURVE",
"566 870 OFFCURVE",
"524 870 CURVE SMOOTH",
"436 870 OFFCURVE",
"388 805 OFFCURVE",
"388 732 CURVE SMOOTH",
"388 720 OFFCURVE",
"389 707 OFFCURVE",
"392 695 CURVE",
"415 713 LINE",
"388 746 OFFCURVE",
"348 764 OFFCURVE",
"290 764 CURVE SMOOTH",
"109 764 OFFCURVE",
"35 609 OFFCURVE",
"35 363 CURVE SMOOTH",
"35 114 OFFCURVE",
"124 -14 OFFCURVE",
"268 -14 CURVE SMOOTH",
"341 -14 OFFCURVE",
"397 30 OFFCURVE",
"423 80 CURVE",
"442 -17 LINE"
);
}
);
width = 550;
}
);
unicode = 0193;
},
{
glyphname = Glottalstop;
layers = (
{
background = {
paths = (
{
closed = 1;
nodes = (
"242 243 LINE",
"232 257 OFFCURVE",
"226 273 OFFCURVE",
"226 296 CURVE SMOOTH",
"226 346 OFFCURVE",
"262 380 OFFCURVE",
"301 417 CURVE SMOOTH",
"359 472 OFFCURVE",
"381 516 OFFCURVE",
"381 582 CURVE SMOOTH",
"381 691 OFFCURVE",
"294 764 OFFCURVE",
"189 764 CURVE SMOOTH",
"75 764 OFFCURVE",
"-3 693 OFFCURVE",
"-6 573 CURVE",
"113 548 LINE",
"118 601 OFFCURVE",
"133 648 OFFCURVE",
"187 648 CURVE SMOOTH",
"218 648 OFFCURVE",
"245 620 OFFCURVE",
"245 572 CURVE SMOOTH",
"245 519 OFFCURVE",
"210 493 OFFCURVE",
"160 445 CURVE SMOOTH",
"122 408 OFFCURVE",
"94 367 OFFCURVE",
"94 308 CURVE SMOOTH",
"94 273 OFFCURVE",
"104 238 OFFCURVE",
"119 217 CURVE"
);
}
);
};
layerId = "849A9C4C-BF7C-40C5-8614-1FD725A2A379";
paths = (
{
closed = 1;
nodes = (
"287 12 LINE",
"273 32 OFFCURVE",
"262 54 OFFCURVE",
"262 97 CURVE SMOOTH",
"262 157 OFFCURVE",
"279 189 OFFCURVE",
"361 271 CURVE SMOOTH",
"439 349 OFFCURVE",
"488 431 OFFCURVE",
"488 524 CURVE SMOOTH",
"488 679 OFFCURVE",
"393 764 OFFCURVE",
"268 764 CURVE SMOOTH",
"131 764 OFFCURVE",
"14 678 OFFCURVE",
"14 518 CURVE",
"146 488 LINE",
"154 593 OFFCURVE",
"192 641 OFFCURVE",
"259 641 CURVE SMOOTH",
"317 641 OFFCURVE",
"341 604 OFFCURVE",
"341 539 CURVE SMOOTH",
"341 454 OFFCURVE",
"300 389 OFFCURVE",
"222 311 CURVE SMOOTH",
"165 254 OFFCURVE",
"119 184 OFFCURVE",
"119 101 CURVE SMOOTH",
"119 51 OFFCURVE",
"132 12 OFFCURVE",
"153 -18 CURVE"
);
}
);
width = 501;
}
);
unicode = 0241;
},
{
glyphname = Gstroke;
layers = (
{
layerId = "849A9C4C-BF7C-40C5-8614-1FD725A2A379";
paths = (
{
closed = 1;
nodes = (
"510 -8 LINE",
"510 426 LINE",
"299 426 LINE",
"285 314 LINE",
"378 314 LINE",
"378 208 LINE SMOOTH",
"378 168 OFFCURVE",
"355 107 OFFCURVE",
"288 107 CURVE SMOOTH",
"197 107 OFFCURVE",
"183 238 OFFCURVE",
"183 361 CURVE SMOOTH",
"183 509 OFFCURVE",
"200 641 OFFCURVE",
"285 641 CURVE SMOOTH",
"348 641 OFFCURVE",
"366 569 OFFCURVE",
"372 493 CURVE",
"504 521 LINE",
"496 662 OFFCURVE",
"427 764 OFFCURVE",
"290 764 CURVE SMOOTH",
"109 764 OFFCURVE",
"35 609 OFFCURVE",
"35 363 CURVE SMOOTH",
"35 114 OFFCURVE",
"124 -14 OFFCURVE",
"268 -14 CURVE SMOOTH",
"341 -14 OFFCURVE",
"397 30 OFFCURVE",
"423 80 CURVE",
"442 -17 LINE"
);
},
{
closed = 1;
nodes = (
"545 168 LINE",
"545 258 LINE",
"277 258 LINE",
"277 168 LINE"
);
}
);
width = 550;
}
);
unicode = 01E4;
},
{
glyphname = H;
layers = (
{
anchors = (
{
name = bottom;
position = "{282, 0}";
},
{
name = center;
position = "{282, 375}";
},
{
name = top;
position = "{282, 750}";
},
{
name = topleft;
position = "{5, 750}";
}
);
background = {
paths = (
{
closed = 1;
nodes = (
"212 6 LINE",
"212 312 LINE",
"352 312 LINE",
"352 -6 LINE",
"499 6 LINE",
"499 750 LINE",
"352 738 LINE",
"352 446 LINE",
"212 446 LINE",
"212 750 LINE",
"65 738 LINE",
"65 -6 LINE"
);
}
);
};
guideLines = (
{
position = "{-258, 761}";
},
{
angle = 3;
position = "{509, 0}";
},
{
angle = 3;
position = "{202, 0}";
},
{
angle = 7;
position = "{202, 754}";
},
{
angle = 7;
position = "{509, 754}";
}
);
layerId = "849A9C4C-BF7C-40C5-8614-1FD725A2A379";
paths = (
{
closed = 1;
nodes = (
"207 0 LINE",
"207 304 LINE",
"365 304 LINE",
"365 0 LINE",
"512 0 LINE",
"512 750 LINE",
"365 750 LINE",
"365 426 LINE",
"207 426 LINE",
"207 750 LINE",
"60 750 LINE",
"60 0 LINE"
);
}
);
width = 572;
}
);
leftKerningGroup = STRAIGHT;
rightKerningGroup = STRAIGHT;
unicode = 0048;
},
{
glyphname = Hbar;
layers = (
{
background = {
components = (
{
name = H;
transform = "{1, 0, 0, 1, 12, 0}";
}
);
};
components = (
{
name = H;
transform = "{1, 0, 0, 1, 2, 0}";
}
);
guideLines = (
{
angle = 83;
position = "{575, 656}";
}
);
layerId = "849A9C4C-BF7C-40C5-8614-1FD725A2A379";
paths = (
{
closed = 1;
nodes = (
"562 550 LINE",
"573 639 LINE",
"15 639 LINE",
"15 550 LINE"
);
}
);
width = 598;
}
);
leftKerningGroup = STRAIGHT;
rightKerningGroup = STRAIGHT;
unicode = 0126;
},
{
glyphname = Heng;
layers = (
{
layerId = "849A9C4C-BF7C-40C5-8614-1FD725A2A379";
paths = (
{
closed = 1;
nodes = (
"469 -183 OFFCURVE",
"512 -98 OFFCURVE",
"512 0 CURVE SMOOTH",
"512 750 LINE",
"365 750 LINE",
"365 426 LINE",
"207 426 LINE",
"207 750 LINE",
"60 750 LINE",
"60 0 LINE",
"207 0 LINE",
"207 304 LINE",
"365 304 LINE",
"365 3 LINE SMOOTH",
"365 -40 OFFCURVE",
"354 -57 OFFCURVE",
"328 -57 CURVE SMOOTH",
"319 -57 OFFCURVE",
"312 -56 OFFCURVE",
"304 -53 CURVE",
"292 -169 LINE",
"315 -177 OFFCURVE",
"336 -183 OFFCURVE",
"367 -183 CURVE SMOOTH"
);
}
);
width = 572;
}
);
unicode = A726;
},
{
glyphname = Hhook;
layers = (
{
layerId = "849A9C4C-BF7C-40C5-8614-1FD725A2A379";
paths = (
{
closed = 1;
nodes = (
"329 0 LINE",
"329 304 LINE",
"487 304 LINE",
"487 0 LINE",
"634 0 LINE",
"634 750 LINE",
"487 750 LINE",
"487 426 LINE",
"329 426 LINE",
"329 750 LINE",
"170 750 LINE SMOOTH",
"65 750 OFFCURVE",
"0 690 OFFCURVE",
"0 596 CURVE SMOOTH",
"0 550 OFFCURVE",
"16 520 OFFCURVE",
"36 494 CURVE",
"135 531 LINE",
"118 553 OFFCURVE",
"108 574 OFFCURVE",
"108 597 CURVE SMOOTH",
"108 627 OFFCURVE",
"125 647 OFFCURVE",
"154 647 CURVE SMOOTH",
"182 647 LINE",
"182 0 LINE"
);
}
);
width = 694;
}
);
unicode = A7AA;
},
{
glyphname = Hturned;
layers = (
{
layerId = "849A9C4C-BF7C-40C5-8614-1FD725A2A379";
paths = (
{
closed = 1;
nodes = (
"512 0 LINE",
"512 750 LINE",
"365 750 LINE",
"365 426 LINE",
"207 426 LINE",
"207 750 LINE",
"60 750 LINE",
"60 304 LINE",
"365 304 LINE",
"365 0 LINE"
);
}
);
width = 572;
}
);
unicode = A78D;
},
{
glyphname = I;
layers = (
{
anchors = (
{
name = bottom;
position = "{138, 0}";
},
{
name = ogonek;
position = "{266, 5}";
},
{
name = top;
position = "{138, 750}";
},
{
name = topleft;
position = "{4, 750}";
}
);
background = {
paths = (
{
closed = 1;
nodes = (
"211 6 LINE",
"211 750 LINE",
"64 738 LINE",
"64 -6 LINE"
);
}
);
};
guideLines = (
{
angle = 7;
position = "{211, 757}";
}
);
layerId = "849A9C4C-BF7C-40C5-8614-1FD725A2A379";
paths = (
{
closed = 1;
nodes = (
"211 0 LINE",
"211 750 LINE",
"64 750 LINE",
"64 0 LINE"
);
}
);
width = 275;
}
);
leftKerningGroup = STRAIGHT;
rightKerningGroup = STRAIGHT;
unicode = 0049;
},
{
glyphname = IJ;
layers = (
{
anchors = (
{
name = bottom;
position = "{131, 0}";
},
{
name = ogonek;
position = "{279, 5}";
},
{
name = top;
position = "{131, 750}";
},
{
name = topleft;
position = "{-3, 750}";
}
);
background = {
paths = (
{
closed = 1;
nodes = (
"204 247 LINE",
"204 750 LINE",
"57 750 LINE",
"57 247 LINE"
);
},
{
closed = 1;
nodes = (
"407 -14 OFFCURVE",
"490 83 OFFCURVE",
"490 235 CURVE SMOOTH",
"490 750 LINE",
"343 750 LINE",
"343 262 LINE SMOOTH",
"343 169 OFFCURVE",
"308 117 OFFCURVE",
"222 117 CURVE SMOOTH",
"166 117 OFFCURVE",
"114 130 OFFCURVE",
"71 150 CURVE",
"44 23 LINE",
"103 -3 OFFCURVE",
"156 -14 OFFCURVE",
"237 -14 CURVE SMOOTH"
);
}
);
};
layerId = "849A9C4C-BF7C-40C5-8614-1FD725A2A379";
paths = (
{
closed = 1;
nodes = (
"407 -14 OFFCURVE",
"490 75 OFFCURVE",
"490 235 CURVE SMOOTH",
"490 750 LINE",
"343 750 LINE",
"343 246 LINE SMOOTH",
"343 163 OFFCURVE",
"308 117 OFFCURVE",
"227 117 CURVE SMOOTH",
"176 117 OFFCURVE",
"124 130 OFFCURVE",
"81 150 CURVE",
"54 23 LINE",
"113 -3 OFFCURVE",
"166 -14 OFFCURVE",
"242 -14 CURVE SMOOTH"
);
},
{
closed = 1;
nodes = (
"214 247 LINE",
"214 750 LINE",
"67 750 LINE",
"67 247 LINE"
);
}
);
width = 550;
}
);
leftKerningGroup = STRAIGHT;
rightKerningGroup = STRAIGHT;
unicode = 0132;
},
{
glyphname = Idieresisacute;
layers = (
{
components = (
{
name = I;
},
{
alignment = -1;
name = dieresiscomb.case;
transform = "{1, 0, 0, 1, 138, -56}";
}
);
layerId = "849A9C4C-BF7C-40C5-8614-1FD725A2A379";
paths = (
{
closed = 1;
nodes = (
"274 986 LINE",
"232 1120 LINE",
"21 1014 LINE",
"41 945 LINE"
);
}
);
width = 275;
}
);
unicode = 1E2E;
},
{
glyphname = Iotaafrican;
layers = (
{
layerId = "849A9C4C-BF7C-40C5-8614-1FD725A2A379";
paths = (
{
closed = 1;
nodes = (
"258 -13 OFFCURVE",
"279 -8 OFFCURVE",
"302 3 CURVE",
"290 124 LINE",
"282 121 OFFCURVE",
"265 118 OFFCURVE",
"250 118 CURVE SMOOTH",
"223 118 OFFCURVE",
"207 135 OFFCURVE",
"207 173 CURVE SMOOTH",
"207 750 LINE",
"60 750 LINE",
"60 170 LINE SMOOTH",
"60 72 OFFCURVE",
"108 -13 OFFCURVE",
"224 -13 CURVE SMOOTH"
);
}
);
width = 302;
}
);
unicode = 0196;
},
{
glyphname = Istroke;
layers = (
{
components = (
{
name = I;
}
);
layerId = "849A9C4C-BF7C-40C5-8614-1FD725A2A379";
paths = (
{
closed = 1;
nodes = (
"270 346 LINE",
"270 436 LINE",
"5 436 LINE",
"5 346 LINE"
);
}
);
width = 275;
}
);
unicode = 0197;
},
{
glyphname = J;
layers = (
{
anchors = (
{
name = bottom;
position = "{188, 0}";
},
{
name = top;
position = "{219, 750}";
}
);
guideLines = (
{
angle = 83;
position = "{14, 2}";
},
{
angle = 7;
position = "{288, 758}";
}
);
layerId = "849A9C4C-BF7C-40C5-8614-1FD725A2A379";
paths = (
{
closed = 1;
nodes = (
"233 -14 OFFCURVE",
"288 60 OFFCURVE",
"288 176 CURVE SMOOTH",
"288 750 LINE",
"142 750 LINE",
"142 192 LINE SMOOTH",
"142 140 OFFCURVE",
"133 110 OFFCURVE",
"85 110 CURVE SMOOTH",
"63 110 OFFCURVE",
"48 114 OFFCURVE",
"29 124 CURVE",
"14 5 LINE",
"48 -10 OFFCURVE",
"76 -14 OFFCURVE",
"116 -14 CURVE SMOOTH"
);
}
);
width = 343;
}
);
leftKerningGroup = J;
rightKerningGroup = STRAIGHT;
rightMetricsKey = U;
unicode = 004A;
},
{
glyphname = Jcrossedtail;
layers = (
{
anchors = (
{
name = bottom;
position = "{286, 0}";
},
{
name = top;
position = "{317, 750}";
}
);
background = {
paths = (
{
closed = 1;
nodes = (
"331 -14 OFFCURVE",
"386 60 OFFCURVE",
"386 176 CURVE SMOOTH",
"386 750 LINE",
"240 750 LINE",
"240 192 LINE SMOOTH",
"240 140 OFFCURVE",
"231 110 OFFCURVE",
"197 110 CURVE",
"198 -14 LINE"
);
},
{
closed = 1;
nodes = (
"197 110 LINE",
"163 110 OFFCURVE",
"146 139 OFFCURVE",
"146 201 CURVE SMOOTH",
"146 271 OFFCURVE",
"193 322 OFFCURVE",
"257 322 CURVE",
"258 446 LINE",
"105 446 OFFCURVE",
"10 341 OFFCURVE",
"10 201 CURVE SMOOTH",
"10 69 OFFCURVE",
"65 -14 OFFCURVE",
"198 -14 CURVE"
);
},
{
closed = 1;
nodes = (
"456 423 LINE",
"422 438 OFFCURVE",
"394 442 OFFCURVE",
"354 442 CURVE",
"385 318 LINE",
"407 318 OFFCURVE",
"422 314 OFFCURVE",
"441 304 CURVE"
);
}
);
};
layerId = "849A9C4C-BF7C-40C5-8614-1FD725A2A379";
paths = (
{
closed = 1;
nodes = (
"321 -14 OFFCURVE",
"386 70 OFFCURVE",
"386 186 CURVE SMOOTH",
"386 750 LINE",
"240 750 LINE",
"240 192 LINE SMOOTH",
"240 140 OFFCURVE",
"231 110 OFFCURVE",
"197 110 CURVE SMOOTH",
"163 110 OFFCURVE",
"146 139 OFFCURVE",
"146 201 CURVE SMOOTH",
"146 271 OFFCURVE",
"193 322 OFFCURVE",
"258 322 CURVE",
"258 446 LINE",
"105 446 OFFCURVE",
"10 341 OFFCURVE",
"10 201 CURVE SMOOTH",
"10 69 OFFCURVE",
"65 -14 OFFCURVE",
"198 -14 CURVE SMOOTH"
);
},
{
closed = 1;
nodes = (
"456 423 LINE",
"422 438 OFFCURVE",
"394 442 OFFCURVE",
"354 442 CURVE",
"385 318 LINE",
"407 318 OFFCURVE",
"422 314 OFFCURVE",
"441 304 CURVE"
);
}
);
width = 456;
}
);
unicode = A7B2;
},
{
glyphname = Jstroke;
layers = (
{
components = (
{
name = J;
}
);
layerId = "849A9C4C-BF7C-40C5-8614-1FD725A2A379";
paths = (
{
closed = 1;
nodes = (
"350 356 LINE",
"350 446 LINE",
"72 446 LINE",
"72 356 LINE"
);
}
);
width = 343;
}
);
unicode = 0248;
},
{
glyphname = K;
layers = (
{
anchors = (
{
name = bottom;
position = "{281, 0}";
},
{
name = top;
position = "{271, 750}";
}
);
background = {
components = (
{
name = R;
transform = "{1, 0, 0, 1, -10, 0}";
}
);
};
guideLines = (
{
angle = 158;
position = "{393, 764}";
},
{
angle = 60.6558;
position = "{263, 335}";
},
{
angle = 20;
position = "{392, -19}";
}
);
layerId = "849A9C4C-BF7C-40C5-8614-1FD725A2A379";
paths = (
{
closed = 1;
nodes = (
"204 0 LINE",
"204 217 LINE",
"263 315 LINE",
"301 300 LINE",
"514 716 LINE",
"392 765 LINE",
"204 392 LINE",
"204 750 LINE",
"60 750 LINE",
"60 0 LINE"
);
},
{
closed = 1;
nodes = (
"527 33 LINE",
"338 444 LINE",
"241 328 LINE",
"392 -16 LINE"
);
}
);
width = 542;
}
);
leftKerningGroup = STRAIGHT;
leftMetricsKey = H;
rightKerningGroup = VOID;
unicode = 004B;
},
{
glyphname = Khook;
layers = (
{
layerId = "849A9C4C-BF7C-40C5-8614-1FD725A2A379";
paths = (
{
closed = 1;
nodes = (
"204 0 LINE",
"204 196 LINE",
"263 315 LINE",
"301 300 LINE",
"442 615 LINE SMOOTH",
"449 630 OFFCURVE",
"460 640 OFFCURVE",
"479 640 CURVE SMOOTH",
"497 640 OFFCURVE",
"509 632 OFFCURVE",
"523 615 CURVE",
"581 717 LINE",
"550 747 OFFCURVE",
"518 763 OFFCURVE",
"471 763 CURVE SMOOTH",
"387 763 OFFCURVE",
"343 721 OFFCURVE",
"304 629 CURVE SMOOTH",
"204 392 LINE",
"204 750 LINE",
"60 750 LINE",
"60 0 LINE"
);
},
{
closed = 1;
nodes = (
"527 33 LINE",
"338 444 LINE",
"241 328 LINE",
"392 -16 LINE"
);
}
);
width = 581;
}
);
unicode = 0198;
},
{
glyphname = Kstroke;
layers = (
{
components = (
{
name = K;
}
);
layerId = "849A9C4C-BF7C-40C5-8614-1FD725A2A379";
paths = (
{
closed = 1;
nodes = (
"273 589 LINE",
"273 679 LINE",
"5 679 LINE",
"5 589 LINE"
);
}
);
width = 542;
}
);
unicode = A740;
},
{
glyphname = L;
layers = (
{
anchors = (
{
name = bottom;
position = "{264, 0}";
},
{
name = center;
position = "{146, 405}";
},
{
name = top;
position = "{133, 750}";
},
{
name = topright;
position = "{279, 521}";
}
);
guideLines = (
{
angle = 7;
position = "{206, 750}";
},
{
angle = 83;
position = "{452, 123}";
}
);
layerId = "849A9C4C-BF7C-40C5-8614-1FD725A2A379";
paths = (
{
closed = 1;
nodes = (
"434 0 LINE",
"449 123 LINE",
"206 123 LINE",
"206 750 LINE",
"60 750 LINE",
"60 0 LINE"
);
}
);
width = 457;
}
);
leftKerningGroup = STRAIGHT;
leftMetricsKey = H;
rightKerningGroup = L;
unicode = 004C;
},
{
glyphname = Lbelt;
layers = (
{
layerId = "849A9C4C-BF7C-40C5-8614-1FD725A2A379";
paths = (
{
closed = 1;
nodes = (
"500 0 LINE",
"515 123 LINE",
"272 123 LINE",
"272 750 LINE",
"126 750 LINE",
"126 0 LINE"
);
},
{
closed = 1;
nodes = (
"371 263 LINE",
"381 353 LINE",
"128 353 LINE SMOOTH",
"92 353 OFFCURVE",
"81 371 OFFCURVE",
"81 393 CURVE SMOOTH",
"81 414 OFFCURVE",
"92 433 OFFCURVE",
"128 433 CURVE SMOOTH",
"195 433 LINE",
"195 523 LINE",
"124 523 LINE SMOOTH",
"53 523 OFFCURVE",
"-8 472 OFFCURVE",
"-8 392 CURVE SMOOTH",
"-8 315 OFFCURVE",
"53 263 OFFCURVE",
"124 263 CURVE SMOOTH"
);
}
);
width = 523;
}
);
unicode = A7AD;
},
{
glyphname = Ldot;
layers = (
{
components = (
{
alignment = -1;
name = L;
}
);
layerId = "849A9C4C-BF7C-40C5-8614-1FD725A2A379";
paths = (
{
closed = 1;
nodes = (
"429 366 LINE",
"429 507 LINE",
"289 507 LINE",
"289 366 LINE"
);
}
);
width = 457;
}
);
leftKerningGroup = STRAIGHT;
rightKerningGroup = KINDAOPEN;
unicode = 013F;
},
{
glyphname = Lslash;
layers = (
{
background = {
components = (
{
name = L;
transform = "{1, 0, 0, 1, 8, 0}";
}
);
paths = (
{
closed = 1;
nodes = (
"353 433 LINE",
"334 546 LINE",
"0 319 LINE",
"19 206 LINE"
);
}
);
};
components = (
{
name = L;
transform = "{1, 0, 0, 1, 8, 0}";
}
);
layerId = "849A9C4C-BF7C-40C5-8614-1FD725A2A379";
paths = (
{
closed = 1;
nodes = (
"328 429 LINE",
"309 529 LINE",
"0 319 LINE",
"19 219 LINE"
);
}
);
width = 483;
}
);
leftKerningGroup = STRAIGHT;
rightKerningGroup = KINDAOPEN;
unicode = 0141;
},
{
glyphname = M;
layers = (
{
anchors = (
{
name = bottom;
position = "{392, 0}";
},
{
name = top;
position = "{392, 750}";
}
);
background = {
paths = (
{
closed = 1;
nodes = (
"719 6 LINE",
"719 744 LINE",
"523 732 LINE",
"404 285 LINE",
"280 749 LINE",
"65 743 LINE",
"65 0 LINE",
"186 6 LINE",
"186 559 LINE",
"337 0 LINE",
"427 0 LINE",
"567 557 LINE",
"567 -6 LINE"
);
}
);
};
guideLines = (
{
angle = 7;
position = "{249, 758}";
},
{
angle = 7;
position = "{334, -4}";
},
{
angle = 7;
position = "{62, 768}";
}
);
layerId = "849A9C4C-BF7C-40C5-8614-1FD725A2A379";
paths = (
{
closed = 1;
nodes = (
"432 8 LINE",
"584 627 LINE",
"575 629 LINE",
"567 520 LINE",
"567 0 LINE",
"702 0 LINE",
"702 750 LINE",
"512 750 LINE",
"388 243 LINE",
"254 762 LINE",
"60 739 LINE",
"60 0 LINE",
"187 0 LINE",
"187 516 LINE",
"180 628 LINE",
"170 626 LINE",
"332 -4 LINE"
);
}
);
width = 762;
}
);
leftKerningGroup = STRAIGHT;
leftMetricsKey = H;
rightKerningGroup = STRAIGHT;
rightMetricsKey = H;
unicode = 004D;
},
{
glyphname = Mturned;
layers = (
{
layerId = "849A9C4C-BF7C-40C5-8614-1FD725A2A379";
paths = (
{
closed = 1;
nodes = (
"258 0 OFFCURVE",
"306 57 OFFCURVE",
"326 139 CURVE",
"313 236 LINE",
"313 177 OFFCURVE",
"286 123 OFFCURVE",
"251 123 CURVE SMOOTH",
"214 123 OFFCURVE",
"201 156 OFFCURVE",
"201 203 CURVE SMOOTH",
"201 750 LINE",
"54 750 LINE",
"54 160 LINE SMOOTH",
"54 67 OFFCURVE",
"96 0 OFFCURVE",
"185 0 CURVE SMOOTH"
);
},
{
closed = 1;
nodes = (
"500 0 OFFCURVE",
"558 53 OFFCURVE",
"578 133 CURVE",
"572 247 LINE",
"572 196 OFFCURVE",
"543 123 OFFCURVE",
"504 123 CURVE SMOOTH",
"473 123 OFFCURVE",
"460 152 OFFCURVE",
"460 204 CURVE SMOOTH",
"460 750 LINE",
"313 750 LINE",
"313 149 LINE",
"313 75 OFFCURVE",
"350 0 OFFCURVE",
"431 0 CURVE SMOOTH"
);
},
{
closed = 1;
nodes = (
"719 23 LINE",
"719 750 LINE",
"572 750 LINE",
"572 180 LINE",
"578 138 LINE",
"578 6 LINE"
);
}
);
width = 779;
}
);
unicode = 019C;
},
{
glyphname = N;
layers = (
{
anchors = (
{
name = bottom;
position = "{293, 0}";
},
{
name = top;
position = "{293, 750}";
}
);
guideLines = (
{
angle = 7;
position = "{535, 7}";
showMeasurement = 1;
},
{
angle = 7;
position = "{59, 744}";
showMeasurement = 1;
}
);
layerId = "849A9C4C-BF7C-40C5-8614-1FD725A2A379";
paths = (
{
closed = 1;
nodes = (
"533 7 LINE",
"533 750 LINE",
"403 750 LINE",
"403 240 LINE",
"429 246 LINE",
"193 760 LINE",
"60 744 LINE",
"60 0 LINE",
"190 0 LINE",
"190 533 LINE",
"164 527 LINE",
"410 -9 LINE"
);
}
);
width = 593;
}
);
leftKerningGroup = STRAIGHT;
leftMetricsKey = H;
rightKerningGroup = STRAIGHT;
rightMetricsKey = H;
unicode = 004E;
},
{
glyphname = Eng;
layers = (
{
layerId = "849A9C4C-BF7C-40C5-8614-1FD725A2A379";
paths = (
{
closed = 1;
nodes = (
"493 -166 OFFCURVE",
"533 -90 OFFCURVE",
"533 23 CURVE SMOOTH",
"533 750 LINE",
"403 750 LINE",
"403 239 LINE",
"429 245 LINE",
"193 760 LINE",
"60 744 LINE",
"60 0 LINE",
"190 0 LINE",
"190 533 LINE",
"163 527 LINE",
"403 20 LINE",
"403 -28 OFFCURVE",
"386 -52 OFFCURVE",
"351 -52 CURVE SMOOTH",
"337 -52 OFFCURVE",
"327 -50 OFFCURVE",
"316 -46 CURVE",
"303 -151 LINE",
"331 -161 OFFCURVE",
"359 -166 OFFCURVE",
"397 -166 CURVE SMOOTH"
);
}
);
width = 596;
}
);
leftKerningGroup = STRAIGHT;
rightKerningGroup = STRAIGHT;
unicode = 014A;
},
{
glyphname = Nhookleft;
layers = (
{
layerId = "849A9C4C-BF7C-40C5-8614-1FD725A2A379";
paths = (
{
closed = 1;
nodes = (
"154 -166 OFFCURVE",
"200 -87 OFFCURVE",
"200 13 CURVE SMOOTH",
"200 540 LINE",
"174 534 LINE",
"424 -9 LINE",
"546 7 LINE",
"546 750 LINE",
"416 750 LINE",
"416 233 LINE",
"442 239 LINE",
"207 758 LINE",
"70 741 LINE",
"70 33 LINE SMOOTH",
"70 -25 OFFCURVE",
"59 -52 OFFCURVE",
"18 -52 CURVE SMOOTH",
"4 -52 OFFCURVE",
"-6 -50 OFFCURVE",
"-17 -46 CURVE",
"-30 -151 LINE",
"-2 -161 OFFCURVE",
"26 -166 OFFCURVE",
"59 -166 CURVE SMOOTH"
);
}
);
width = 606;
}
);
leftMetricsKey = j;
rightMetricsKey = N;
unicode = 019D;
},
{
glyphname = Nlongrightleg;
layers = (
{
background = {
components = (
{
name = N;
transform = "{1, 0, 0, 1, -12, 0}";
}
);
};
layerId = "849A9C4C-BF7C-40C5-8614-1FD725A2A379";
paths = (
{
closed = 1;
nodes = (
"508 -175 LINE",
"508 561 LINE SMOOTH",
"508 704 OFFCURVE",
"462 762 OFFCURVE",
"372 762 CURVE SMOOTH",
"285 762 OFFCURVE",
"214 716 OFFCURVE",
"177 545 CURVE",
"207 404 LINE",
"207 528 OFFCURVE",
"244 632 OFFCURVE",
"298 632 CURVE SMOOTH",
"354 632 OFFCURVE",
"361 572 OFFCURVE",
"361 493 CURVE SMOOTH",
"361 -175 LINE"
);
},
{
closed = 1;
nodes = (
"207 0 LINE",
"207 538 LINE",
"191 538 LINE",
"191 762 LINE",
"60 744 LINE",
"60 0 LINE"
);
}
);
width = 564;
}
);
unicode = 0220;
},
{
glyphname = O;
layers = (
{
anchors = (
{
name = bottom;
position = "{280, 0}";
},
{
name = center;
position = "{281, 375}";
},
{
name = ogonek;
position = "{451, 5}";
},
{
name = top;
position = "{280, 752}";
},
{
name = topleft;
position = "{16, 750}";
},
{
name = topright;
position = "{452, 515}";
}
);
background = {
components = (
{
name = O.ori;
transform = "{1, 0, 0, 1, 6, 0}";
}
);
paths = (
{
closed = 1;
nodes = (
"112 764 OFFCURVE",
"38 612 OFFCURVE",
"38 375 CURVE SMOOTH",
"38 138 OFFCURVE",
"112 -14 OFFCURVE",
"280 -14 CURVE SMOOTH",
"447 -14 OFFCURVE",
"522 138 OFFCURVE",
"522 375 CURVE SMOOTH",
"522 612 OFFCURVE",
"447 764 OFFCURVE",
"280 764 CURVE SMOOTH"
);
},
{
closed = 1;
nodes = (
"358 641 OFFCURVE",
"369 520 OFFCURVE",
"369 375 CURVE SMOOTH",
"369 230 OFFCURVE",
"358 108 OFFCURVE",
"280 108 CURVE SMOOTH",
"201 108 OFFCURVE",
"191 230 OFFCURVE",
"191 375 CURVE SMOOTH",
"191 520 OFFCURVE",
"201 641 OFFCURVE",
"280 641 CURVE SMOOTH"
);
}
);
};
layerId = "849A9C4C-BF7C-40C5-8614-1FD725A2A379";
paths = (
{
closed = 1;
nodes = (
"454 -14 OFFCURVE",
"525 138 OFFCURVE",
"525 375 CURVE SMOOTH",
"525 612 OFFCURVE",
"454 764 OFFCURVE",
"280 764 CURVE SMOOTH",
"107 764 OFFCURVE",
"35 612 OFFCURVE",
"35 375 CURVE SMOOTH",
"35 138 OFFCURVE",
"107 -14 OFFCURVE",
"280 -14 CURVE SMOOTH"
);
},
{
closed = 1;
nodes = (
"198 115 OFFCURVE",
"190 238 OFFCURVE",
"190 375 CURVE SMOOTH",
"190 512 OFFCURVE",
"198 635 OFFCURVE",
"280 635 CURVE SMOOTH",
"363 635 OFFCURVE",
"370 512 OFFCURVE",
"370 375 CURVE SMOOTH",
"370 238 OFFCURVE",
"363 115 OFFCURVE",
"280 115 CURVE SMOOTH"
);
}
);
width = 560;
}
);
leftKerningGroup = ROUND;
rightKerningGroup = ROUND;
unicode = 004F;
},
{
glyphname = OU;
layers = (
{
layerId = "849A9C4C-BF7C-40C5-8614-1FD725A2A379";
paths = (
{
closed = 1;
nodes = (
"464 -14 OFFCURVE",
"535 138 OFFCURVE",
"535 245 CURVE SMOOTH",
"535 352 OFFCURVE",
"464 489 OFFCURVE",
"290 489 CURVE SMOOTH",
"117 489 OFFCURVE",
"45 352 OFFCURVE",
"45 245 CURVE SMOOTH",
"45 138 OFFCURVE",
"117 -14 OFFCURVE",
"290 -14 CURVE SMOOTH"
);
},
{
closed = 1;
nodes = (
"208 115 OFFCURVE",
"200 208 OFFCURVE",
"200 245 CURVE SMOOTH",
"200 282 OFFCURVE",
"208 375 OFFCURVE",
"290 375 CURVE SMOOTH",
"373 375 OFFCURVE",
"380 282 OFFCURVE",
"380 245 CURVE SMOOTH",
"380 208 OFFCURVE",
"373 115 OFFCURVE",
"290 115 CURVE SMOOTH"
);
},
{
closed = 1;
nodes = (
"443 375 OFFCURVE",
"513 477 OFFCURVE",
"513 623 CURVE SMOOTH",
"513 750 LINE",
"376 750 LINE",
"376 610 LINE SMOOTH",
"376 537 OFFCURVE",
"348 489 OFFCURVE",
"292 489 CURVE SMOOTH",
"236 489 OFFCURVE",
"208 537 OFFCURVE",
"208 610 CURVE SMOOTH",
"208 750 LINE",
"61 750 LINE",
"61 623 LINE SMOOTH",
"61 456 OFFCURVE",
"131 375 OFFCURVE",
"290 375 CURVE SMOOTH"
);
}
);
width = 580;
}
);
unicode = 0222;
},
{
glyphname = Ohorn;
layers = (
{
anchors = (
{
name = bottom;
position = "{281, 0}";
},
{
name = top;
position = "{281, 750}";
}
);
background = {
components = (
{
alignment = -1;
name = O;
},
{
alignment = -1;
name = horncomb.case;
transform = "{1, 0, 0, 1, 452, 10}";
}
);
};
layerId = "849A9C4C-BF7C-40C5-8614-1FD725A2A379";
paths = (
{
closed = 1;
nodes = (
"454 -14 OFFCURVE",
"525 138 OFFCURVE",
"525 375 CURVE SMOOTH",
"525 439 OFFCURVE",
"520 497 OFFCURVE",
"509 547 CURVE",
"573 560 OFFCURVE",
"629 616 OFFCURVE",
"629 691 CURVE SMOOTH",
"629 744 OFFCURVE",
"611 780 OFFCURVE",
"601 793 CURVE",
"494 753 LINE",
"507 731 OFFCURVE",
"521 699 OFFCURVE",
"521 673 CURVE SMOOTH",
"521 650 OFFCURVE",
"507 633 OFFCURVE",
"482 630 CURVE",
"444 715 OFFCURVE",
"379 764 OFFCURVE",
"280 764 CURVE SMOOTH",
"107 764 OFFCURVE",
"35 612 OFFCURVE",
"35 375 CURVE SMOOTH",
"35 138 OFFCURVE",
"107 -14 OFFCURVE",
"280 -14 CURVE SMOOTH"
);
},
{
closed = 1;
nodes = (
"198 115 OFFCURVE",
"190 238 OFFCURVE",
"190 375 CURVE SMOOTH",
"190 512 OFFCURVE",
"198 635 OFFCURVE",
"280 635 CURVE SMOOTH",
"363 635 OFFCURVE",
"370 512 OFFCURVE",
"370 375 CURVE SMOOTH",
"370 238 OFFCURVE",
"363 115 OFFCURVE",
"280 115 CURVE SMOOTH"
);
}
);
width = 629;
}
);
leftKerningGroup = ROUND;
rightKerningGroup = ROUND;
unicode = 01A0;
},
{
glyphname = "Omega-latin";
layers = (
{
background = {
components = (
{
name = M;
transform = "{1, 0, 0, 1, -6, 0}";
}
);
};
layerId = "849A9C4C-BF7C-40C5-8614-1FD725A2A379";
paths = (
{
closed = 1;
nodes = (
"307 -14 OFFCURVE",
"365 40 OFFCURVE",
"393 143 CURVE",
"357 143 LINE",
"385 40 OFFCURVE",
"443 -14 OFFCURVE",
"528 -14 CURVE SMOOTH",
"652 -14 OFFCURVE",
"715 104 OFFCURVE",
"715 337 CURVE SMOOTH",
"715 494 OFFCURVE",
"686 625 OFFCURVE",
"625 750 CURVE",
"478 750 LINE",
"542 617 OFFCURVE",
"568 492 OFFCURVE",
"568 312 CURVE SMOOTH",
"568 163 OFFCURVE",
"550 109 OFFCURVE",
"500 109 CURVE SMOOTH",
"464 109 OFFCURVE",
"445 138 OFFCURVE",
"445 195 CURVE SMOOTH",
"445 429 LINE",
"305 429 LINE",
"305 195 LINE SMOOTH",
"305 138 OFFCURVE",
"286 109 OFFCURVE",
"250 109 CURVE SMOOTH",
"200 109 OFFCURVE",
"182 163 OFFCURVE",
"182 312 CURVE SMOOTH",
"182 492 OFFCURVE",
"208 617 OFFCURVE",
"272 750 CURVE",
"125 750 LINE",
"64 625 OFFCURVE",
"35 494 OFFCURVE",
"35 337 CURVE SMOOTH",
"35 104 OFFCURVE",
"98 -14 OFFCURVE",
"222 -14 CURVE SMOOTH"
);
}
);
width = 750;
}
);
unicode = A7B6;
},
{
glyphname = Oopen;
layers = (
{
layerId = "849A9C4C-BF7C-40C5-8614-1FD725A2A379";
paths = (
{
closed = 1;
nodes = (
"417 -15 OFFCURVE",
"497 122 OFFCURVE",
"497 375 CURVE SMOOTH",
"497 606 OFFCURVE",
"419 765 OFFCURVE",
"246 765 CURVE SMOOTH",
"98 765 OFFCURVE",
"33 641 OFFCURVE",
"24 510 CURVE",
"161 495 LINE",
"166 563 OFFCURVE",
"184 642 OFFCURVE",
"246 642 CURVE SMOOTH",
"318 642 OFFCURVE",
"342 547 OFFCURVE",
"342 375 CURVE SMOOTH",
"342 207 OFFCURVE",
"316 108 OFFCURVE",
"245 108 CURVE SMOOTH",
"185 108 OFFCURVE",
"167 201 OFFCURVE",
"163 269 CURVE",
"24 240 LINE",
"31 104 OFFCURVE",
"103 -15 OFFCURVE",
"244 -15 CURVE SMOOTH"
);
}
);
width = 532;
}
);
unicode = 0186;
},
{
glyphname = Oslash;
layers = (
{
anchors = (
{
name = bottom;
position = "{280, 0}";
},
{
name = top;
position = "{280, 750}";
}
);
background = {
paths = (
{
closed = 1;
nodes = (
"467 -16 OFFCURVE",
"508 190 OFFCURVE",
"508 400 CURVE SMOOTH",
"508 464 OFFCURVE",
"501 521 OFFCURVE",
"489 572 CURVE",
"552 648 LINE",
"505 693 LINE",
"464 643 LINE",
"427 721 OFFCURVE",
"365 766 OFFCURVE",
"274 766 CURVE SMOOTH",
"112 766 OFFCURVE",
"42 621 OFFCURVE",
"42 400 CURVE SMOOTH",
"42 315 OFFCURVE",
"49 233 OFFCURVE",
"69 163 CURVE",
"14 97 LINE",
"61 52 LINE",
"96 94 LINE",
"131 27 OFFCURVE",
"186 -16 OFFCURVE",
"274 -16 CURVE SMOOTH"
);
},
{
closed = 1;
nodes = (
"228 109 OFFCURVE",
"207 148 OFFCURVE",
"197 217 CURVE",
"361 417 LINE",
"361 400 LINE SMOOTH",
"361 221 OFFCURVE",
"353 109 OFFCURVE",
"274 109 CURVE SMOOTH"
);
},
{
closed = 1;
nodes = (
"188 337 OFFCURVE",
"188 367 OFFCURVE",
"188 400 CURVE SMOOTH",
"188 494 OFFCURVE",
"194 649 OFFCURVE",
"274 649 CURVE SMOOTH",
"327 649 OFFCURVE",
"348 583 OFFCURVE",
"356 512 CURVE",
"189 310 LINE"
);
}
);
};
layerId = "849A9C4C-BF7C-40C5-8614-1FD725A2A379";
paths = (
{
closed = 1;
nodes = (
"448 -14 OFFCURVE",
"524 138 OFFCURVE",
"524 375 CURVE SMOOTH",
"524 607 OFFCURVE",
"443 764 OFFCURVE",
"280 764 CURVE SMOOTH",
"113 764 OFFCURVE",
"36 612 OFFCURVE",
"36 375 CURVE SMOOTH",
"36 143 OFFCURVE",
"118 -14 OFFCURVE",
"280 -14 CURVE SMOOTH"
);
},
{
closed = 1;
nodes = (
"197 108 OFFCURVE",
"191 238 OFFCURVE",
"191 375 CURVE SMOOTH",
"191 512 OFFCURVE",
"202 642 OFFCURVE",
"280 642 CURVE SMOOTH",
"364 642 OFFCURVE",
"369 512 OFFCURVE",
"369 375 CURVE SMOOTH",
"369 238 OFFCURVE",
"359 108 OFFCURVE",
"280 108 CURVE SMOOTH"
);
},
{
closed = 1;
nodes = (
"149 139 LINE",
"143 144 LINE",
"479 570 LINE",
"482 568 LINE",
"570 678 LINE",
"508 730 LINE",
"420 621 LINE",
"425 617 LINE",
"89 189 LINE",
"87 191 LINE",
"-10 69 LINE",
"53 17 LINE"
);
}
);
width = 560;
}
);
leftKerningGroup = ROUND;
rightKerningGroup = ROUND;
unicode = 00D8;
},
{
glyphname = Otildeacute;
layers = (
{
components = (
{
name = O;
},
{
alignment = -1;
name = tildecomb.case;
transform = "{1, 0, 0, 1, 280, -29}";
}
);
layerId = "849A9C4C-BF7C-40C5-8614-1FD725A2A379";
paths = (
{
closed = 1;
nodes = (
"399 1045 LINE",
"335 1169 LINE",
"145 1029 LINE",
"177 964 LINE"
);
}
);
width = 560;
}
);
unicode = 1E4C;
},
{
glyphname = OE;
layers = (
{
background = {
components = (
{
name = E;
transform = "{1, 0, 0, 1, 299, 0}";
}
);
};
layerId = "849A9C4C-BF7C-40C5-8614-1FD725A2A379";
paths = (
{
closed = 1;
nodes = (
"739 0 LINE",
"753 122 LINE",
"510 122 LINE",
"510 315 LINE",
"670 315 LINE",
"685 433 LINE",
"510 433 LINE",
"510 628 LINE",
"731 628 LINE",
"747 750 LINE",
"321 750 LINE SMOOTH",
"138 750 OFFCURVE",
"30 620 OFFCURVE",
"30 375 CURVE SMOOTH",
"30 146 OFFCURVE",
"142 0 OFFCURVE",
"325 0 CURVE SMOOTH"
);
},
{
closed = 1;
nodes = (
"226 120 OFFCURVE",
"184 220 OFFCURVE",
"184 375 CURVE SMOOTH",
"184 536 OFFCURVE",
"226 633 OFFCURVE",
"333 633 CURVE SMOOTH",
"363 633 LINE",
"363 120 LINE",
"333 120 LINE SMOOTH"
);
}
);
width = 778;
}
);
leftKerningGroup = ROUND;
rightKerningGroup = KINDAOPEN;
rightMetricsKey = E;
unicode = 0152;
},
{
glyphname = P;
layers = (
{
anchors = (
{
name = bottom;
position = "{257, 0}";
},
{
name = top;
position = "{257, 750}";
}
);
background = {
components = (
{
name = R;
transform = "{1, 0, 0, 1, -6, 0}";
}
);
};
layerId = "849A9C4C-BF7C-40C5-8614-1FD725A2A379";
paths = (
{
closed = 1;
nodes = (
"204 0 LINE",
"204 631 LINE",
"239 631 LINE SMOOTH",
"312 631 OFFCURVE",
"352 599 OFFCURVE",
"352 512 CURVE SMOOTH",
"352 428 OFFCURVE",
"312 391 OFFCURVE",
"239 391 CURVE SMOOTH",
"168 391 LINE",
"168 273 LINE",
"228 273 LINE SMOOTH",
"394 273 OFFCURVE",
"498 347 OFFCURVE",
"498 512 CURVE SMOOTH",
"498 684 OFFCURVE",
"394 750 OFFCURVE",
"228 750 CURVE SMOOTH",
"60 750 LINE",
"60 0 LINE"
);
}
);
width = 513;
}
);
leftKerningGroup = STRAIGHT;
leftMetricsKey = H;
rightKerningGroup = P;
unicode = 0050;
},
{
glyphname = Phook;
layers = (
{
layerId = "849A9C4C-BF7C-40C5-8614-1FD725A2A379";
paths = (
{
closed = 1;
nodes = (
"340 0 LINE",
"340 273 LINE",
"364 273 LINE SMOOTH",
"530 273 OFFCURVE",
"634 347 OFFCURVE",
"634 512 CURVE SMOOTH",
"634 684 OFFCURVE",
"530 750 OFFCURVE",
"364 750 CURVE SMOOTH",
"185 750 LINE SMOOTH",
"80 750 OFFCURVE",
"15 690 OFFCURVE",
"15 596 CURVE SMOOTH",
"15 550 OFFCURVE",
"31 504 OFFCURVE",
"51 478 CURVE",
"150 515 LINE",
"133 537 OFFCURVE",
"123 558 OFFCURVE",
"123 581 CURVE SMOOTH",
"123 611 OFFCURVE",
"140 631 OFFCURVE",
"169 631 CURVE SMOOTH",
"196 631 LINE",
"196 0 LINE"
);
},
{
closed = 1;
nodes = (
"340 631 LINE",
"375 631 LINE SMOOTH",
"448 631 OFFCURVE",
"488 599 OFFCURVE",
"488 512 CURVE SMOOTH",
"488 428 OFFCURVE",
"448 391 OFFCURVE",
"375 391 CURVE SMOOTH",
"340 391 LINE"
);
}
);
width = 649;
}
);
unicode = 01A4;
},
{
glyphname = Thorn;
layers = (
{
layerId = "849A9C4C-BF7C-40C5-8614-1FD725A2A379";
paths = (
{
closed = 1;
nodes = (
"239 151 LINE SMOOTH",
"405 151 OFFCURVE",
"509 225 OFFCURVE",
"509 390 CURVE SMOOTH",
"509 562 OFFCURVE",
"405 628 OFFCURVE",
"239 628 CURVE SMOOTH",
"187 628 LINE",
"187 509 LINE",
"250 509 LINE SMOOTH",
"323 509 OFFCURVE",
"363 477 OFFCURVE",
"363 390 CURVE SMOOTH",
"363 306 OFFCURVE",
"323 269 OFFCURVE",
"250 269 CURVE SMOOTH",
"187 269 LINE",
"187 151 LINE"
);
},
{
closed = 1;
nodes = (
"207 -2 LINE",
"207 752 LINE",
"60 752 LINE",
"60 -2 LINE"
);
}
);
width = 524;
}
);
leftKerningGroup = STRAIGHT;
leftMetricsKey = H;
rightKerningGroup = SMALL;
rightMetricsKey = P;
unicode = 00DE;
},
{
glyphname = Pstroke;
layers = (
{
components = (
{
name = P;
}
);
layerId = "849A9C4C-BF7C-40C5-8614-1FD725A2A379";
paths = (
{
closed = 1;
nodes = (
"285 469 LINE",
"285 559 LINE",
"7 559 LINE",
"7 469 LINE"
);
}
);
width = 513;
}
);
unicode = 2C63;
},
{
glyphname = Q;
layers = (
{
background = {
paths = (
{
closed = 1;
nodes = (
"437 -10 OFFCURVE",
"523 142 OFFCURVE",
"523 375 CURVE SMOOTH",
"523 612 OFFCURVE",
"447 764 OFFCURVE",
"279 764 CURVE SMOOTH",
"112 764 OFFCURVE",
"35 612 OFFCURVE",
"35 375 CURVE SMOOTH",
"35 138 OFFCURVE",
"112 -18 OFFCURVE",
"274 -14 CURVE SMOOTH"
);
},
{
closed = 1;
nodes = (
"201 109 OFFCURVE",
"188 224 OFFCURVE",
"188 375 CURVE SMOOTH",
"188 525 OFFCURVE",
"201 642 OFFCURVE",
"279 642 CURVE SMOOTH",
"358 642 OFFCURVE",
"370 525 OFFCURVE",
"370 375 CURVE SMOOTH",
"370 224 OFFCURVE",
"364 109 OFFCURVE",
"279 109 CURVE SMOOTH"
);
},
{
closed = 1;
nodes = (
"519 -68 LINE",
"446 -22 OFFCURVE",
"396 16 OFFCURVE",
"342 71 CURVE",
"288 44 LINE",
"306 -51 OFFCURVE",
"373 -118 OFFCURVE",
"448 -153 CURVE"
);
}
);
};
layerId = "849A9C4C-BF7C-40C5-8614-1FD725A2A379";
paths = (
{
closed = 1;
nodes = (
"435 -14 OFFCURVE",
"523 142 OFFCURVE",
"523 375 CURVE SMOOTH",
"523 612 OFFCURVE",
"447 764 OFFCURVE",
"279 764 CURVE SMOOTH",
"112 764 OFFCURVE",
"35 612 OFFCURVE",
"35 375 CURVE SMOOTH",
"35 138 OFFCURVE",
"109 -14 OFFCURVE",
"270 -14 CURVE SMOOTH"
);
},
{
closed = 1;
nodes = (
"519 -68 LINE",
"446 -22 OFFCURVE",
"396 16 OFFCURVE",
"342 71 CURVE",
"288 44 LINE",
"306 -51 OFFCURVE",
"373 -118 OFFCURVE",
"448 -153 CURVE"
);
},
{
closed = 1;
nodes = (
"201 109 OFFCURVE",
"188 224 OFFCURVE",
"188 375 CURVE SMOOTH",
"188 525 OFFCURVE",
"201 642 OFFCURVE",
"279 642 CURVE SMOOTH",
"358 642 OFFCURVE",
"370 525 OFFCURVE",
"370 375 CURVE SMOOTH",
"370 224 OFFCURVE",
"364 109 OFFCURVE",
"279 109 CURVE SMOOTH"
);
}
);
width = 558;
}
);
leftKerningGroup = ROUND;
leftMetricsKey = O;
rightKerningGroup = ROUND;
rightMetricsKey = O;
unicode = 0051;
},
{
glyphname = Qhooktail;
layers = (
{
background = {
paths = (
{
closed = 1;
nodes = (
"335 645 OFFCURVE",
"354 563 OFFCURVE",
"354 431 CURVE",
"382 548 LINE",
"382 654 OFFCURVE",
"342 764 OFFCURVE",
"236 764 CURVE SMOOTH",
"97 764 OFFCURVE",
"35 593 OFFCURVE",
"35 375 CURVE SMOOTH",
"35 135 OFFCURVE",
"97 -13 OFFCURVE",
"227 -13 CURVE SMOOTH",
"327 -13 OFFCURVE",
"382 76 OFFCURVE",
"382 197 CURVE",
"354 318 LINE",
"354 183 OFFCURVE",
"336 106 OFFCURVE",
"273 106 CURVE SMOOTH",
"213 106 OFFCURVE",
"187 207 OFFCURVE",
"187 376 CURVE SMOOTH",
"187 544 OFFCURVE",
"213 645 OFFCURVE",
"276 645 CURVE SMOOTH"
);
},
{
closed = 1;
nodes = (
"501 760 LINE",
"354 743 LINE",
"354 -2 LINE SMOOTH",
"354 -100 OFFCURVE",
"397 -185 OFFCURVE",
"502 -185 CURVE SMOOTH",
"530 -185 OFFCURVE",
"551 -179 OFFCURVE",
"574 -171 CURVE",
"562 -50 LINE",
"554 -53 OFFCURVE",
"547 -54 OFFCURVE",
"538 -54 CURVE SMOOTH",
"512 -54 OFFCURVE",
"501 -37 OFFCURVE",
"501 1 CURVE SMOOTH"
);
}
);
};
layerId = "849A9C4C-BF7C-40C5-8614-1FD725A2A379";
paths = (
{
closed = 1;
nodes = (
"320 -13 OFFCURVE",
"375 76 OFFCURVE",
"375 197 CURVE",
"347 318 LINE",
"347 183 OFFCURVE",
"329 106 OFFCURVE",
"270 106 CURVE SMOOTH",
"214 106 OFFCURVE",
"188 207 OFFCURVE",
"188 376 CURVE SMOOTH",
"188 544 OFFCURVE",
"214 645 OFFCURVE",
"273 645 CURVE SMOOTH",
"328 645 OFFCURVE",
"347 563 OFFCURVE",
"347 431 CURVE",
"375 548 LINE",
"375 654 OFFCURVE",
"335 764 OFFCURVE",
"234 764 CURVE SMOOTH",
"100 764 OFFCURVE",
"38 593 OFFCURVE",
"38 375 CURVE SMOOTH",
"38 135 OFFCURVE",
"100 -13 OFFCURVE",
"225 -13 CURVE SMOOTH"
);
},
{
closed = 1;
nodes = (
"523 -185 OFFCURVE",
"544 -179 OFFCURVE",
"567 -171 CURVE",
"555 -50 LINE",
"547 -53 OFFCURVE",
"540 -54 OFFCURVE",
"531 -54 CURVE SMOOTH",
"505 -54 OFFCURVE",
"494 -37 OFFCURVE",
"494 1 CURVE SMOOTH",
"494 760 LINE",
"347 743 LINE",
"347 -2 LINE SMOOTH",
"347 -100 OFFCURVE",
"390 -185 OFFCURVE",
"495 -185 CURVE SMOOTH"
);
}
);
width = 557;
}
);
unicode = 024A;
},
{
glyphname = R;
layers = (
{
anchors = (
{
name = bottom;
position = "{287, 0}";
},
{
name = top;
position = "{273, 750}";
}
);
background = {
paths = (
{
closed = 1;
nodes = (
"232 286 OFFCURVE",
"252 286 OFFCURVE",
"280 288 CURVE",
"295 289 LINE",
"427 310 OFFCURVE",
"506 394 OFFCURVE",
"506 519 CURVE SMOOTH",
"506 679 OFFCURVE",
"411 750 OFFCURVE",
"248 750 CURVE SMOOTH",
"189 750 OFFCURVE",
"119 750 OFFCURVE",
"60 750 CURVE",
"60 0 LINE",
"204 0 LINE",
"204 286 LINE"
);
},
{
closed = 1;
nodes = (
"204 633 LINE",
"245 633 LINE SMOOTH",
"314 633 OFFCURVE",
"361 605 OFFCURVE",
"361 518 CURVE SMOOTH",
"361 439 OFFCURVE",
"308 397 OFFCURVE",
"245 397 CURVE SMOOTH",
"204 397 LINE"
);
},
{
closed = 1;
nodes = (
"401 -16 LINE",
"536 33 LINE",
"382 352 LINE",
"266 301 LINE"
);
}
);
};
guideLines = (
{
angle = 20;
position = "{401, -19}";
},
{
angle = 3;
position = "{207, 0}";
}
);
layerId = "849A9C4C-BF7C-40C5-8614-1FD725A2A379";
paths = (
{
closed = 1;
nodes = (
"204 0 LINE",
"204 286 LINE",
"232 286 OFFCURVE",
"252 286 OFFCURVE",
"280 288 CURVE SMOOTH",
"411 297 OFFCURVE",
"506 390 OFFCURVE",
"506 519 CURVE SMOOTH",
"506 679 OFFCURVE",
"411 750 OFFCURVE",
"248 750 CURVE SMOOTH",
"60 750 LINE",
"60 0 LINE"
);
},
{
closed = 1;
nodes = (
"536 33 LINE",
"382 352 LINE",
"266 301 LINE",
"401 -16 LINE"
);
},
{
closed = 1;
nodes = (
"204 633 LINE",
"245 633 LINE SMOOTH",
"314 633 OFFCURVE",
"361 605 OFFCURVE",
"361 518 CURVE SMOOTH",
"361 439 OFFCURVE",
"308 397 OFFCURVE",
"245 397 CURVE SMOOTH",
"204 397 LINE"
);
}
);
width = 551;
}
);
leftKerningGroup = STRAIGHT;
leftMetricsKey = H;
rightKerningGroup = VOID;
unicode = 0052;
},
{
glyphname = Rstroke;
layers = (
{
components = (
{
name = R;
transform = "{1, 0, 0, 1, 10, 0}";
}
);
layerId = "849A9C4C-BF7C-40C5-8614-1FD725A2A379";
paths = (
{
closed = 1;
nodes = (
"295 291 LINE",
"295 393 LINE",
"0 393 LINE",
"0 291 LINE"
);
}
);
width = 561;
}
);
unicode = 024C;
},
{
glyphname = Rtail;
layers = (
{
layerId = "849A9C4C-BF7C-40C5-8614-1FD725A2A379";
paths = (
{
closed = 1;
nodes = (
"236 -183 OFFCURVE",
"257 -177 OFFCURVE",
"280 -169 CURVE",
"268 -53 LINE",
"260 -56 OFFCURVE",
"253 -57 OFFCURVE",
"244 -57 CURVE SMOOTH",
"218 -57 OFFCURVE",
"204 -40 OFFCURVE",
"204 3 CURVE SMOOTH",
"204 286 LINE",
"232 286 OFFCURVE",
"252 286 OFFCURVE",
"280 288 CURVE SMOOTH",
"411 297 OFFCURVE",
"506 390 OFFCURVE",
"506 519 CURVE SMOOTH",
"506 679 OFFCURVE",
"411 750 OFFCURVE",
"248 750 CURVE SMOOTH",
"60 750 LINE",
"60 0 LINE SMOOTH",
"60 -98 OFFCURVE",
"103 -183 OFFCURVE",
"205 -183 CURVE SMOOTH"
);
},
{
closed = 1;
nodes = (
"536 33 LINE",
"382 352 LINE",
"266 301 LINE",
"401 -16 LINE"
);
},
{
closed = 1;
nodes = (
"204 633 LINE",
"245 633 LINE SMOOTH",
"314 633 OFFCURVE",
"361 605 OFFCURVE",
"361 518 CURVE SMOOTH",
"361 439 OFFCURVE",
"308 397 OFFCURVE",
"245 397 CURVE SMOOTH",
"204 397 LINE"
);
}
);
width = 551;
}
);
unicode = 2C64;
},
{
glyphname = S;
layers = (
{
anchors = (
{
name = bottom;
position = "{256, -10}";
},
{
name = top;
position = "{257, 752}";
}
);
background = {
paths = (
{
closed = 1;
nodes = (
"389 -16 OFFCURVE",
"483 69 OFFCURVE",
"483 203 CURVE SMOOTH",
"483 300 OFFCURVE",
"435 363 OFFCURVE",
"351 413 CURVE SMOOTH",
"261 467 LINE SMOOTH",
"216 493 OFFCURVE",
"183 521 OFFCURVE",
"183 568 CURVE SMOOTH",
"183 613 OFFCURVE",
"215 646 OFFCURVE",
"257 646 CURVE SMOOTH",
"318 646 OFFCURVE",
"345 601 OFFCURVE",
"348 520 CURVE",
"476 548 LINE",
"470 699 OFFCURVE",
"390 764 OFFCURVE",
"257 764 CURVE SMOOTH",
"129 764 OFFCURVE",
"41 673 OFFCURVE",
"41 554 CURVE SMOOTH",
"41 451 OFFCURVE",
"88 388 OFFCURVE",
"166 342 CURVE SMOOTH",
"257 289 LINE SMOOTH",
"301 263 OFFCURVE",
"338 237 OFFCURVE",
"338 187 CURVE SMOOTH",
"338 136 OFFCURVE",
"308 102 OFFCURVE",
"257 102 CURVE SMOOTH",
"190 102 OFFCURVE",
"163 153 OFFCURVE",
"159 226 CURVE",
"30 212 LINE",
"35 55 OFFCURVE",
"125 -16 OFFCURVE",
"256 -16 CURVE SMOOTH"
);
}
);
};
guideLines = (
{
angle = 12;
position = "{348, 520}";
},
{
angle = 154.3063;
position = "{220, 315}";
},
{
angle = 154.306;
position = "{310, 438}";
},
{
angle = 12;
position = "{156, 242}";
},
{
angle = 6.2484;
position = "{33, 212}";
}
);
layerId = "849A9C4C-BF7C-40C5-8614-1FD725A2A379";
paths = (
{
closed = 1;
nodes = (
"389 -16 OFFCURVE",
"483 69 OFFCURVE",
"483 203 CURVE SMOOTH",
"483 295 OFFCURVE",
"435 360 OFFCURVE",
"351 410 CURVE SMOOTH",
"261 464 LINE SMOOTH",
"216 491 OFFCURVE",
"183 516 OFFCURVE",
"183 568 CURVE SMOOTH",
"183 613 OFFCURVE",
"215 646 OFFCURVE",
"257 646 CURVE SMOOTH",
"318 646 OFFCURVE",
"348 601 OFFCURVE",
"348 520 CURVE",
"476 548 LINE",
"471 699 OFFCURVE",
"390 764 OFFCURVE",
"257 764 CURVE SMOOTH",
"129 764 OFFCURVE",
"41 673 OFFCURVE",
"41 554 CURVE SMOOTH",
"41 456 OFFCURVE",
"88 391 OFFCURVE",
"166 345 CURVE SMOOTH",
"257 292 LINE SMOOTH",
"301 266 OFFCURVE",
"338 242 OFFCURVE",
"338 187 CURVE SMOOTH",
"338 136 OFFCURVE",
"308 102 OFFCURVE",
"257 102 CURVE SMOOTH",
"190 102 OFFCURVE",
"159 153 OFFCURVE",
"159 226 CURVE",
"30 212 LINE",
"30 55 OFFCURVE",
"125 -16 OFFCURVE",
"256 -16 CURVE SMOOTH"
);
}
);
width = 513;
}
);
leftKerningGroup = SMALL;
rightKerningGroup = SMALL;
unicode = 0053;
},
{
glyphname = Sacutedotaccent;
layers = (
{
components = (
{
name = S;
},
{
name = dotaccentcomb.case;
transform = "{1, 0, 0, 1, 257, 177}";
}
);
layerId = "849A9C4C-BF7C-40C5-8614-1FD725A2A379";
paths = (
{
closed = 1;
nodes = (
"399 879 LINE",
"335 1003 LINE",
"145 863 LINE",
"177 798 LINE"
);
}
);
width = 513;
}
);
unicode = 1E64;
},
{
glyphname = Saltillo;
layers = (
{
layerId = "849A9C4C-BF7C-40C5-8614-1FD725A2A379";
paths = (
{
closed = 1;
nodes = (
"180 441 LINE",
"208 666 LINE",
"208 950 LINE",
"72 950 LINE",
"72 649 LINE",
"85 429 LINE"
);
}
);
width = 268;
}
);
unicode = A78B;
},
{
glyphname = Germandbls;
layers = (
{
background = {
paths = (
{
closed = 1;
nodes = (
"582 260 OFFCURVE",
"542 331 OFFCURVE",
"489 384 CURVE SMOOTH",
"446 427 LINE SMOOTH",
"414 459 OFFCURVE",
"396 475 OFFCURVE",
"396 523 CURVE SMOOTH",
"396 594 OFFCURVE",
"457 625 OFFCURVE",
"528 626 CURVE",
"542 737 LINE",
"477 755 OFFCURVE",
"366 768 OFFCURVE",
"281 768 CURVE SMOOTH",
"148 768 OFFCURVE",
"44 703 OFFCURVE",
"44 492 CURVE SMOOTH",
"44 0 LINE",
"189 0 LINE",
"189 497 LINE SMOOTH",
"189 600 OFFCURVE",
"220 651 OFFCURVE",
"298 651 CURVE SMOOTH",
"336 651 OFFCURVE",
"365 649 OFFCURVE",
"409 645 CURVE",
"408 653 LINE",
"313 646 OFFCURVE",
"261 576 OFFCURVE",
"261 492 CURVE SMOOTH",
"261 421 OFFCURVE",
"294 384 OFFCURVE",
"342 332 CURVE SMOOTH",
"389 281 LINE SMOOTH",
"419 248 OFFCURVE",
"449 209 OFFCURVE",
"449 164 CURVE SMOOTH",
"449 124 OFFCURVE",
"431 102 OFFCURVE",
"402 102 CURVE SMOOTH",
"369 102 OFFCURVE",
"342 140 OFFCURVE",
"338 212 CURVE",
"228 197 LINE",
"234 54 OFFCURVE",
"299 -14 OFFCURVE",
"405 -14 CURVE SMOOTH",
"505 -14 OFFCURVE",
"582 55 OFFCURVE",
"582 170 CURVE SMOOTH"
);
}
);
};
guideLines = (
{
angle = 7;
position = "{332, 213}";
},
{
angle = 97;
position = "{549, 642}";
}
);
layerId = "849A9C4C-BF7C-40C5-8614-1FD725A2A379";
paths = (
{
closed = 1;
nodes = (
"505 -14 OFFCURVE",
"582 55 OFFCURVE",
"582 170 CURVE SMOOTH",
"582 260 OFFCURVE",
"542 331 OFFCURVE",
"489 384 CURVE SMOOTH",
"446 427 LINE SMOOTH",
"409 464 OFFCURVE",
"396 482 OFFCURVE",
"396 525 CURVE SMOOTH",
"396 592 OFFCURVE",
"457 626 OFFCURVE",
"528 626 CURVE",
"542 737 LINE",
"477 755 OFFCURVE",
"366 768 OFFCURVE",
"281 768 CURVE SMOOTH",
"148 768 OFFCURVE",
"44 703 OFFCURVE",
"44 492 CURVE SMOOTH",
"44 0 LINE",
"189 0 LINE",
"189 497 LINE SMOOTH",
"189 600 OFFCURVE",
"220 651 OFFCURVE",
"298 651 CURVE SMOOTH",
"336 651 OFFCURVE",
"365 649 OFFCURVE",
"409 645 CURVE",
"408 653 LINE",
"313 646 OFFCURVE",
"261 566 OFFCURVE",
"261 502 CURVE SMOOTH",
"261 421 OFFCURVE",
"294 384 OFFCURVE",
"342 332 CURVE SMOOTH",
"389 281 LINE SMOOTH",
"419 248 OFFCURVE",
"449 209 OFFCURVE",
"449 164 CURVE SMOOTH",
"449 124 OFFCURVE",
"431 102 OFFCURVE",
"402 102 CURVE SMOOTH",
"369 102 OFFCURVE",
"342 140 OFFCURVE",
"338 212 CURVE",
"228 197 LINE",
"234 54 OFFCURVE",
"299 -14 OFFCURVE",
"405 -14 CURVE SMOOTH"
);
}
);
width = 596;
}
);
leftKerningGroup = STRAIGHT;
rightKerningGroup = SMALL;
unicode = 1E9E;
},
{
glyphname = Sobliquestroke;
layers = (
{
anchors = (
{
name = bottom;
position = "{256, -10}";
},
{
name = top;
position = "{257, 752}";
}
);
background = {
paths = (
{
closed = 1;
nodes = (
"389 -16 OFFCURVE",
"483 69 OFFCURVE",
"483 203 CURVE SMOOTH",
"483 295 OFFCURVE",
"435 360 OFFCURVE",
"351 410 CURVE SMOOTH",
"261 464 LINE SMOOTH",
"216 491 OFFCURVE",
"183 516 OFFCURVE",
"183 568 CURVE SMOOTH",
"183 613 OFFCURVE",
"215 646 OFFCURVE",
"257 646 CURVE SMOOTH",
"318 646 OFFCURVE",
"345 601 OFFCURVE",
"348 520 CURVE",
"476 548 LINE",
"470 699 OFFCURVE",
"390 764 OFFCURVE",
"257 764 CURVE SMOOTH",
"129 764 OFFCURVE",
"41 673 OFFCURVE",
"41 554 CURVE SMOOTH",
"41 456 OFFCURVE",
"88 391 OFFCURVE",
"166 345 CURVE SMOOTH",
"257 292 LINE SMOOTH",
"301 266 OFFCURVE",
"338 242 OFFCURVE",
"338 187 CURVE SMOOTH",
"338 136 OFFCURVE",
"308 102 OFFCURVE",
"257 102 CURVE SMOOTH",
"190 102 OFFCURVE",
"163 153 OFFCURVE",
"159 226 CURVE",
"30 212 LINE",
"35 55 OFFCURVE",
"125 -16 OFFCURVE",
"256 -16 CURVE SMOOTH"
);
},
{
closed = 1;
nodes = (
"490 404 LINE",
"471 501 LINE",
"22 349 LINE",
"41 252 LINE"
);
}
);
};
layerId = "849A9C4C-BF7C-40C5-8614-1FD725A2A379";
paths = (
{
closed = 1;
nodes = (
"389 -16 OFFCURVE",
"483 69 OFFCURVE",
"483 203 CURVE SMOOTH",
"483 295 OFFCURVE",
"435 360 OFFCURVE",
"351 410 CURVE SMOOTH",
"261 464 LINE SMOOTH",
"216 491 OFFCURVE",
"183 516 OFFCURVE",
"183 568 CURVE SMOOTH",
"183 613 OFFCURVE",
"215 646 OFFCURVE",
"257 646 CURVE SMOOTH",
"318 646 OFFCURVE",
"345 601 OFFCURVE",
"348 520 CURVE",
"476 548 LINE",
"470 699 OFFCURVE",
"390 764 OFFCURVE",
"257 764 CURVE SMOOTH",
"129 764 OFFCURVE",
"41 673 OFFCURVE",
"41 554 CURVE SMOOTH",
"41 456 OFFCURVE",
"88 391 OFFCURVE",
"166 345 CURVE SMOOTH",
"257 292 LINE SMOOTH",
"301 266 OFFCURVE",
"338 242 OFFCURVE",
"338 187 CURVE SMOOTH",
"338 136 OFFCURVE",
"308 102 OFFCURVE",
"257 102 CURVE SMOOTH",
"190 102 OFFCURVE",
"163 153 OFFCURVE",
"159 226 CURVE",
"30 212 LINE",
"30 65 OFFCURVE",
"125 -16 OFFCURVE",
"256 -16 CURVE SMOOTH"
);
},
{
closed = 1;
nodes = (
"490 404 LINE",
"471 501 LINE",
"22 349 LINE",
"41 252 LINE"
);
}
);
width = 513;
}
);
unicode = A7A8;
},
{
glyphname = Schwa;
layers = (
{
background = {
paths = (
{
closed = 1;
nodes = (
"456 -16 OFFCURVE",
"500 190 OFFCURVE",
"500 383 CURVE SMOOTH",
"500 628 OFFCURVE",
"433 764 OFFCURVE",
"264 764 CURVE SMOOTH",
"140 764 OFFCURVE",
"67 688 OFFCURVE",
"44 553 CURVE",
"178 523 LINE",
"186 590 OFFCURVE",
"211 641 OFFCURVE",
"264 641 CURVE SMOOTH",
"347 641 OFFCURVE",
"353 505 OFFCURVE",
"353 403 CURVE",
"41 403 LINE",
"39 382 OFFCURVE",
"38 360 OFFCURVE",
"38 338 CURVE SMOOTH",
"38 139 OFFCURVE",
"84 -16 OFFCURVE",
"270 -16 CURVE SMOOTH"
);
},
{
closed = 1;
nodes = (
"199 109 OFFCURVE",
"184 183 OFFCURVE",
"186 296 CURVE",
"351 296 LINE",
"349 187 OFFCURVE",
"329 109 OFFCURVE",
"270 109 CURVE SMOOTH"
);
}
);
};
guideLines = (
{
angle = -12;
position = "{43, 557}";
}
);
layerId = "849A9C4C-BF7C-40C5-8614-1FD725A2A379";
paths = (
{
closed = 1;
nodes = (
"456 -16 OFFCURVE",
"500 190 OFFCURVE",
"500 383 CURVE SMOOTH",
"500 628 OFFCURVE",
"433 764 OFFCURVE",
"264 764 CURVE SMOOTH",
"140 764 OFFCURVE",
"67 688 OFFCURVE",
"44 553 CURVE",
"178 523 LINE",
"186 590 OFFCURVE",
"211 641 OFFCURVE",
"264 641 CURVE SMOOTH",
"347 641 OFFCURVE",
"353 505 OFFCURVE",
"353 403 CURVE",
"41 403 LINE",
"39 382 OFFCURVE",
"38 360 OFFCURVE",
"38 338 CURVE SMOOTH",
"38 139 OFFCURVE",
"84 -16 OFFCURVE",
"270 -16 CURVE SMOOTH"
);
},
{
closed = 1;
nodes = (
"199 109 OFFCURVE",
"186 183 OFFCURVE",
"186 296 CURVE",
"351 296 LINE",
"351 187 OFFCURVE",
"329 109 OFFCURVE",
"267 109 CURVE SMOOTH"
);
}
);
width = 542;
}
);
leftKerningGroup = ROUND;
rightKerningGroup = ROUND;
unicode = 018F;
},
{
glyphname = T;
layers = (
{
anchors = (
{
name = bottom;
position = "{228, 0}";
},
{
name = center;
position = "{226, 375}";
},
{
name = top;
position = "{226, 750}";
}
);
background = {
paths = (
{
closed = 1;
nodes = (
"300 6 LINE",
"300 633 LINE",
"440 633 LINE",
"452 750 LINE",
"12 750 LINE",
"1 633 LINE",
"154 633 LINE",
"154 -6 LINE"
);
}
);
};
guideLines = (
{
angle = 83;
position = "{13, 750}";
},
{
angle = 83;
position = "{453, 750}";
}
);
layerId = "849A9C4C-BF7C-40C5-8614-1FD725A2A379";
paths = (
{
closed = 1;
nodes = (
"299 0 LINE",
"299 628 LINE",
"435 628 LINE",
"449 750 LINE",
"8 750 LINE",
"8 628 LINE",
"155 628 LINE",
"155 0 LINE"
);
}
);
width = 457;
}
);
leftKerningGroup = OPEN;
rightKerningGroup = OPEN;
unicode = 0054;
},
{
glyphname = Tbar;
layers = (
{
components = (
{
name = T;
}
);
guideLines = (
{
angle = 83;
position = "{376, 393}";
}
);
layerId = "849A9C4C-BF7C-40C5-8614-1FD725A2A379";
paths = (
{
closed = 1;
nodes = (
"368 295 LINE",
"379 389 LINE",
"77 389 LINE",
"77 295 LINE"
);
}
);
width = 457;
}
);
leftKerningGroup = OPEN;
leftMetricsKey = T;
rightKerningGroup = OPEN;
rightMetricsKey = T;
unicode = 0166;
},
{
glyphname = Tdiagonalstroke;
layers = (
{
components = (
{
name = T;
}
);
layerId = "849A9C4C-BF7C-40C5-8614-1FD725A2A379";
paths = (
{
closed = 1;
nodes = (
"284 436 LINE",
"237 503 LINE",
"25 -82 LINE",
"93 -90 LINE"
);
},
{
closed = 1;
nodes = (
"365 661 LINE",
"427 832 LINE",
"359 840 LINE",
"294 661 LINE"
);
}
);
width = 457;
}
);
unicode = 023E;
},
{
glyphname = Thook;
layers = (
{
background = {
paths = (
{
closed = 1;
nodes = (
"150 521 LINE",
"131 542 OFFCURVE",
"123 559 OFFCURVE",
"123 582 CURVE SMOOTH",
"123 606 OFFCURVE",
"140 628 OFFCURVE",
"175 628 CURVE SMOOTH",
"230 628 LINE",
"230 750 LINE",
"185 750 LINE SMOOTH",
"80 750 OFFCURVE",
"5 690 OFFCURVE",
"5 596 CURVE SMOOTH",
"5 550 OFFCURVE",
"21 510 OFFCURVE",
"41 484 CURVE"
);
},
{
closed = 1;
nodes = (
"364 0 LINE",
"364 628 LINE",
"500 628 LINE",
"514 750 LINE",
"220 750 LINE",
"220 0 LINE"
);
}
);
};
layerId = "849A9C4C-BF7C-40C5-8614-1FD725A2A379";
paths = (
{
closed = 1;
nodes = (
"364 0 LINE",
"364 628 LINE",
"500 628 LINE",
"514 750 LINE",
"185 750 LINE SMOOTH",
"80 750 OFFCURVE",
"5 690 OFFCURVE",
"5 596 CURVE SMOOTH",
"5 550 OFFCURVE",
"21 510 OFFCURVE",
"41 484 CURVE",
"150 521 LINE",
"131 542 OFFCURVE",
"123 559 OFFCURVE",
"123 582 CURVE SMOOTH",
"123 606 OFFCURVE",
"140 628 OFFCURVE",
"175 628 CURVE SMOOTH",
"220 628 LINE",
"220 0 LINE"
);
}
);
width = 522;
}
);
unicode = 01AC;
},
{
glyphname = Tretroflexhook;
layers = (
{
layerId = "849A9C4C-BF7C-40C5-8614-1FD725A2A379";
paths = (
{
closed = 1;
nodes = (
"331 -183 OFFCURVE",
"352 -177 OFFCURVE",
"375 -169 CURVE",
"363 -53 LINE",
"355 -56 OFFCURVE",
"348 -57 OFFCURVE",
"339 -57 CURVE SMOOTH",
"313 -57 OFFCURVE",
"299 -40 OFFCURVE",
"299 3 CURVE SMOOTH",
"299 628 LINE",
"435 628 LINE",
"449 750 LINE",
"8 750 LINE",
"8 628 LINE",
"155 628 LINE",
"155 0 LINE SMOOTH",
"155 -98 OFFCURVE",
"198 -183 OFFCURVE",
"300 -183 CURVE SMOOTH"
);
}
);
width = 457;
}
);
unicode = 01AE;
},
{
glyphname = U;
layers = (
{
anchors = (
{
name = bottom;
position = "{279, 0}";
},
{
name = ogonek;
position = "{448, 5}";
},
{
name = top;
position = "{281, 750}";
},
{
name = topright;
position = "{503, 527}";
}
);
background = {
components = (
{
name = O;
transform = "{1, 0, 0, 1, 17, 0}";
},
{
name = H;
transform = "{1, 0, 0, 1, -11, 0}";
}
);
};
guideLines = (
{
angle = 7;
position = "{498, 762}";
},
{
angle = 7;
position = "{206, 751}";
}
);
layerId = "849A9C4C-BF7C-40C5-8614-1FD725A2A379";
paths = (
{
closed = 1;
nodes = (
"437 -14 OFFCURVE",
"507 97 OFFCURVE",
"507 243 CURVE SMOOTH",
"507 750 LINE",
"370 750 LINE",
"370 230 LINE SMOOTH",
"370 157 OFFCURVE",
"342 109 OFFCURVE",
"286 109 CURVE SMOOTH",
"230 109 OFFCURVE",
"202 157 OFFCURVE",
"202 230 CURVE SMOOTH",
"202 750 LINE",
"55 750 LINE",
"55 243 LINE SMOOTH",
"55 76 OFFCURVE",
"125 -14 OFFCURVE",
"284 -14 CURVE SMOOTH"
);
}
);
width = 562;
}
);
leftKerningGroup = U;
rightKerningGroup = U;
unicode = 0055;
},
{
glyphname = Ubar;
layers = (
{
components = (
{
name = U;
}
);
layerId = "849A9C4C-BF7C-40C5-8614-1FD725A2A379";
paths = (
{
closed = 1;
nodes = (
"552 397 LINE",
"563 486 LINE",
"5 486 LINE",
"5 397 LINE"
);
}
);
width = 562;
}
);
unicode = 0244;
},
{
glyphname = Udieresisacute;
layers = (
{
components = (
{
name = U;
},
{
name = dieresiscomb.case;
transform = "{1, 0, 0, 1, 281, -42}";
}
);
layerId = "849A9C4C-BF7C-40C5-8614-1FD725A2A379";
paths = (
{
closed = 1;
nodes = (
"399 1045 LINE",
"335 1169 LINE",
"145 1029 LINE",
"177 964 LINE"
);
}
);
width = 562;
}
);
unicode = 01D7;
},
{
glyphname = Udieresisgrave;
layers = (
{
components = (
{
name = U;
},
{
alignment = -1;
name = dieresiscomb.case;
transform = "{1, 0, 0, 1, 281, -42}";
}
);
layerId = "849A9C4C-BF7C-40C5-8614-1FD725A2A379";
paths = (
{
closed = 1;
nodes = (
"399 1029 LINE",
"209 1169 LINE",
"145 1045 LINE",
"367 964 LINE"
);
}
);
width = 562;
}
);
unicode = 01DB;
},
{
glyphname = Uhorn;
layers = (
{
anchors = (
{
name = bottom;
position = "{279, 0}";
},
{
name = ogonek;
position = "{448, 5}";
},
{
name = top;
position = "{281, 750}";
},
{
name = topright;
position = "{505, 480}";
}
);
background = {
paths = (
{
closed = 1;
nodes = (
"437 -14 OFFCURVE",
"507 97 OFFCURVE",
"507 243 CURVE SMOOTH",
"507 750 LINE",
"370 750 LINE",
"370 230 LINE SMOOTH",
"370 157 OFFCURVE",
"342 109 OFFCURVE",
"286 109 CURVE SMOOTH",
"230 109 OFFCURVE",
"202 157 OFFCURVE",
"202 230 CURVE SMOOTH",
"202 750 LINE",
"55 750 LINE",
"55 243 LINE SMOOTH",
"55 76 OFFCURVE",
"125 -14 OFFCURVE",
"284 -14 CURVE SMOOTH"
);
},
{
closed = 1;
nodes = (
"545 765 LINE",
"558 743 OFFCURVE",
"572 711 OFFCURVE",
"572 687 CURVE SMOOTH",
"572 662 OFFCURVE",
"551 633 OFFCURVE",
"503 643 CURVE",
"503 559 LINE",
"512 557 OFFCURVE",
"521 556 OFFCURVE",
"530 556 CURVE SMOOTH",
"605 556 OFFCURVE",
"680 616 OFFCURVE",
"680 703 CURVE SMOOTH",
"680 756 OFFCURVE",
"654 789 OFFCURVE",
"644 802 CURVE"
);
}
);
};
layerId = "849A9C4C-BF7C-40C5-8614-1FD725A2A379";
paths = (
{
closed = 1;
nodes = (
"437 -14 OFFCURVE",
"507 97 OFFCURVE",
"507 243 CURVE SMOOTH",
"507 750 LINE",
"370 750 LINE",
"370 230 LINE SMOOTH",
"370 157 OFFCURVE",
"342 109 OFFCURVE",
"286 109 CURVE SMOOTH",
"230 109 OFFCURVE",
"202 157 OFFCURVE",
"202 230 CURVE SMOOTH",
"202 750 LINE",
"55 750 LINE",
"55 243 LINE SMOOTH",
"55 76 OFFCURVE",
"125 -14 OFFCURVE",
"284 -14 CURVE SMOOTH"
);
},
{
closed = 1;
nodes = (
"605 556 OFFCURVE",
"680 616 OFFCURVE",
"680 703 CURVE SMOOTH",
"680 756 OFFCURVE",
"662 792 OFFCURVE",
"652 805 CURVE",
"545 765 LINE",
"558 743 OFFCURVE",
"572 711 OFFCURVE",
"572 685 CURVE SMOOTH",
"572 659 OFFCURVE",
"554 641 OFFCURVE",
"524 641 CURVE SMOOTH",
"517 641 OFFCURVE",
"508 642 OFFCURVE",
"503 643 CURVE",
"503 559 LINE",
"512 557 OFFCURVE",
"521 556 OFFCURVE",
"530 556 CURVE SMOOTH"
);
}
);
width = 662;
}
);
leftKerningGroup = STRAIGHT;
rightKerningGroup = STRAIGHT;
unicode = 01AF;
},
{
glyphname = Upsilonafrican;
layers = (
{
background = {
components = (
{
name = Omega;
transform = "{1, 0, 0, -1, -11, 747}";
}
);
};
guideLines = (
{
position = "{367, 628}";
}
);
layerId = "849A9C4C-BF7C-40C5-8614-1FD725A2A379";
paths = (
{
closed = 1;
nodes = (
"443 -14 OFFCURVE",
"525 103 OFFCURVE",
"525 320 CURVE SMOOTH",
"525 512 OFFCURVE",
"385 702 OFFCURVE",
"309 716 CURVE",
"309 628 LINE",
"335 610 OFFCURVE",
"370 475 OFFCURVE",
"370 341 CURVE SMOOTH",
"370 188 OFFCURVE",
"353 109 OFFCURVE",
"280 109 CURVE SMOOTH",
"208 109 OFFCURVE",
"190 188 OFFCURVE",
"190 341 CURVE SMOOTH",
"190 474 OFFCURVE",
"226 608 OFFCURVE",
"249 628 CURVE",
"249 716 LINE",
"155 680 OFFCURVE",
"35 511 OFFCURVE",
"35 320 CURVE SMOOTH",
"35 103 OFFCURVE",
"117 -14 OFFCURVE",
"280 -14 CURVE SMOOTH"
);
},
{
closed = 1;
nodes = (
"249 628 LINE",
"249 750 LINE",
"45 750 LINE",
"29 628 LINE"
);
},
{
closed = 1;
nodes = (
"534 628 LINE",
"518 750 LINE",
"309 750 LINE",
"309 628 LINE"
);
}
);
width = 560;
}
);
unicode = 01B1;
},
{
glyphname = Utildeacute;
layers = (
{
components = (
{
name = U;
},
{
alignment = -1;
name = tildecomb.case;
transform = "{1, 0, 0, 1, 281, -30}";
}
);
layerId = "849A9C4C-BF7C-40C5-8614-1FD725A2A379";
paths = (
{
closed = 1;
nodes = (
"399 1045 LINE",
"335 1169 LINE",
"145 1029 LINE",
"177 964 LINE"
);
}
);
width = 562;
}
);
unicode = 1E78;
},
{
glyphname = V;
layers = (
{
anchors = (
{
name = bottom;
position = "{251, 0}";
},
{
name = top;
position = "{251, 750}";
}
);
background = {
components = (
{
name = A;
transform = "{-1, 0, 0, -1, 541, 750}";
}
);
paths = (
{
closed = 1;
nodes = (
"330 0 LINE",
"510 750 LINE",
"369 744 LINE",
"265 232 LINE",
"166 750 LINE",
"-8 744 LINE",
"169 0 LINE"
);
}
);
};
guideLines = (
{
angle = 7;
position = "{7, 750}";
},
{
angle = -7;
position = "{371, 761}";
}
);
layerId = "849A9C4C-BF7C-40C5-8614-1FD725A2A379";
paths = (
{
closed = 1;
nodes = (
"342 8 LINE",
"500 750 LINE",
"371 750 LINE",
"257 156 LINE",
"151 760 LINE",
"8 742 LINE",
"173 -13 LINE"
);
}
);
width = 508;
}
);
leftKerningGroup = ANGLE;
rightKerningGroup = ANGLE;
unicode = 0056;
},
{
glyphname = Gammaafrican;
layers = (
{
background = {
paths = (
{
closed = 1;
nodes = (
"334 208 LINE",
"492 750 LINE",
"363 750 LINE",
"249 356 LINE",
"143 760 LINE",
"0 742 LINE",
"165 187 LINE"
);
}
);
};
guideLines = (
{
angle = -66.8014;
position = "{113, 480}";
},
{
angle = 112.1306;
position = "{247, 506}";
}
);
layerId = "849A9C4C-BF7C-40C5-8614-1FD725A2A379";
paths = (
{
closed = 1;
nodes = (
"246 -79 LINE",
"204 -79 OFFCURVE",
"181 -46 OFFCURVE",
"181 -4 CURVE SMOOTH",
"181 25 OFFCURVE",
"187 63 OFFCURVE",
"217 130 CURVE SMOOTH",
"492 742 LINE",
"349 760 LINE",
"99 163 LINE SMOOTH",
"72 99 OFFCURVE",
"52 51 OFFCURVE",
"52 -8 CURVE SMOOTH",
"52 -98 OFFCURVE",
"121 -185 OFFCURVE",
"246 -185 CURVE"
);
},
{
closed = 1;
nodes = (
"371 -185 OFFCURVE",
"440 -98 OFFCURVE",
"440 -8 CURVE SMOOTH",
"440 51 OFFCURVE",
"420 99 OFFCURVE",
"393 163 CURVE SMOOTH",
"143 760 LINE",
"0 742 LINE",
"275 130 LINE SMOOTH",
"305 63 OFFCURVE",
"311 25 OFFCURVE",
"311 -4 CURVE SMOOTH",
"311 -46 OFFCURVE",
"288 -79 OFFCURVE",
"246 -79 CURVE",
"246 -185 LINE"
);
}
);
width = 492;
}
);
unicode = 0194;
},
{
glyphname = Vhook;
layers = (
{
background = {
paths = (
{
closed = 1;
nodes = (
"406 -14 OFFCURVE",
"507 138 OFFCURVE",
"507 385 CURVE SMOOTH",
"507 636 OFFCURVE",
"424 778 OFFCURVE",
"318 778 CURVE",
"268 653 LINE",
"315 653 OFFCURVE",
"360 573 OFFCURVE",
"360 386 CURVE SMOOTH",
"360 173 OFFCURVE",
"317 109 OFFCURVE",
"260 109 CURVE SMOOTH",
"224 109 OFFCURVE",
"202 137 OFFCURVE",
"202 200 CURVE SMOOTH",
"202 750 LINE",
"55 750 LINE",
"55 213 LINE SMOOTH",
"55 56 OFFCURVE",
"125 -14 OFFCURVE",
"243 -14 CURVE SMOOTH"
);
}
);
};
guideLines = (
{
angle = 12;
position = "{379, 587}";
}
);
layerId = "849A9C4C-BF7C-40C5-8614-1FD725A2A379";
paths = (
{
closed = 1;
nodes = (
"404 -14 OFFCURVE",
"507 108 OFFCURVE",
"507 425 CURVE SMOOTH",
"507 679 OFFCURVE",
"455 760 OFFCURVE",
"355 760 CURVE SMOOTH",
"325 760 OFFCURVE",
"290 751 OFFCURVE",
"266 738 CURVE",
"295 624 LINE",
"306 632 OFFCURVE",
"314 637 OFFCURVE",
"329 637 CURVE SMOOTH",
"354 637 OFFCURVE",
"368 600 OFFCURVE",
"368 426 CURVE SMOOTH",
"368 173 OFFCURVE",
"317 109 OFFCURVE",
"260 109 CURVE SMOOTH",
"224 109 OFFCURVE",
"202 137 OFFCURVE",
"202 200 CURVE SMOOTH",
"202 750 LINE",
"55 750 LINE",
"55 213 LINE SMOOTH",
"55 56 OFFCURVE",
"125 -14 OFFCURVE",
"243 -14 CURVE SMOOTH"
);
}
);
width = 547;
}
);
unicode = 01B2;
},
{
glyphname = Vturned;
layers = (
{
layerId = "849A9C4C-BF7C-40C5-8614-1FD725A2A379";
paths = (
{
closed = 1;
nodes = (
"500 8 LINE",
"335 763 LINE",
"166 742 LINE",
"8 0 LINE",
"137 0 LINE",
"251 594 LINE",
"357 -10 LINE"
);
}
);
width = 508;
}
);
unicode = 0245;
},
{
glyphname = W;
layers = (
{
anchors = (
{
name = bottom;
position = "{383, 0}";
},
{
name = top;
position = "{383, 750}";
}
);
background = {
paths = (
{
closed = 1;
nodes = (
"304 0 LINE",
"383 511 LINE",
"457 0 LINE",
"605 0 LINE",
"752 751 LINE",
"622 751 LINE",
"538 206 LINE",
"532 255 LINE",
"461 746 LINE",
"316 746 LINE",
"240 258 LINE",
"233 206 LINE",
"160 761 LINE",
"8 742 LINE",
"149 0 LINE"
);
}
);
};
guideLines = (
{
angle = 7;
position = "{160, 758}";
},
{
position = "{532, -8}";
},
{
angle = 7;
position = "{607, 6}";
}
);
layerId = "849A9C4C-BF7C-40C5-8614-1FD725A2A379";
paths = (
{
closed = 1;
nodes = (
"304 0 LINE",
"383 511 LINE",
"457 0 LINE",
"605 0 LINE",
"752 750 LINE",
"622 750 LINE",
"538 206 LINE",
"461 746 LINE",
"316 746 LINE",
"233 206 LINE",
"160 761 LINE",
"8 742 LINE",
"149 0 LINE"
);
}
);
width = 760;
}
);
leftKerningGroup = ANGLE;
rightKerningGroup = ANGLE;
unicode = 0057;
},
{
glyphname = Whook;
layers = (
{
background = {
paths = (
{
closed = 1;
nodes = (
"728 630 OFFCURVE",
"743 639 OFFCURVE",
"762 639 CURVE SMOOTH",
"779 639 OFFCURVE",
"788 634 OFFCURVE",
"801 624 CURVE",
"830 738 LINE",
"805 752 OFFCURVE",
"781 760 OFFCURVE",
"754 760 CURVE SMOOTH",
"653 760 OFFCURVE",
"614 696 OFFCURVE",
"596 582 CURVE SMOOTH",
"538 206 LINE",
"532 255 LINE",
"461 746 LINE",
"316 746 LINE",
"240 258 LINE",
"233 206 LINE",
"160 761 LINE",
"8 742 LINE",
"149 0 LINE",
"304 0 LINE",
"383 511 LINE",
"457 0 LINE",
"605 0 LINE",
"723 604 LINE SMOOTH"
);
}
);
};
layerId = "849A9C4C-BF7C-40C5-8614-1FD725A2A379";
paths = (
{
closed = 1;
nodes = (
"304 0 LINE",
"383 511 LINE",
"457 0 LINE",
"605 0 LINE",
"723 604 LINE SMOOTH",
"728 630 OFFCURVE",
"743 639 OFFCURVE",
"762 639 CURVE SMOOTH",
"779 639 OFFCURVE",
"788 634 OFFCURVE",
"801 624 CURVE",
"830 738 LINE",
"805 752 OFFCURVE",
"781 760 OFFCURVE",
"754 760 CURVE SMOOTH",
"653 760 OFFCURVE",
"614 696 OFFCURVE",
"596 582 CURVE SMOOTH",
"538 206 LINE",
"461 746 LINE",
"316 746 LINE",
"233 206 LINE",
"160 761 LINE",
"8 742 LINE",
"149 0 LINE"
);
}
);
width = 820;
}
);
unicode = 2C72;
},
{
glyphname = X;
layers = (
{
anchors = (
{
name = bottom;
position = "{270, 0}";
},
{
name = top;
position = "{257, 750}";
}
);
guideLines = (
{
angle = 15;
position = "{161, 761}";
},
{
angle = 7;
position = "{378, -12}";
},
{
angle = 173;
position = "{375, 756}";
},
{
angle = 173;
position = "{144, -12}";
},
{
angle = 16;
position = "{349, -17}";
}
);
layerId = "849A9C4C-BF7C-40C5-8614-1FD725A2A379";
paths = (
{
closed = 1;
nodes = (
"488 18 LINE",
"318 438 LINE",
"284 438 LINE",
"174 762 LINE",
"29 725 LINE",
"185 327 LINE",
"214 327 LINE",
"346 -22 LINE"
);
},
{
closed = 1;
nodes = (
"156 0 LINE",
"272 315 LINE",
"314 315 LINE",
"484 750 LINE",
"351 750 LINE",
"226 417 LINE",
"187 417 LINE",
"20 0 LINE"
);
}
);
width = 508;
}
);
leftKerningGroup = VOID;
rightKerningGroup = VOID;
unicode = 0058;
},
{
glyphname = Y;
layers = (
{
anchors = (
{
name = bottom;
position = "{250, 0}";
},
{
name = top;
position = "{250, 750}";
},
{
name = topleft;
position = "{9, 750}";
}
);
background = {
paths = (
{
closed = 1;
nodes = (
"321 0 LINE",
"321 266 LINE",
"487 750 LINE",
"349 752 LINE",
"261 439 LINE",
"252 398 LINE",
"243 439 LINE",
"148 761 LINE",
"8 739 LINE",
"174 248 LINE",
"174 0 LINE"
);
}
);
};
guideLines = (
{
angle = 7;
position = "{321, 266}";
},
{
angle = 7;
position = "{157, 756}";
},
{
angle = 71.7762;
position = "{321, 266}";
},
{
angle = -74.2967;
position = "{153, 758}";
}
);
layerId = "849A9C4C-BF7C-40C5-8614-1FD725A2A379";
paths = (
{
closed = 1;
nodes = (
"321 0 LINE",
"321 256 LINE",
"487 750 LINE",
"349 750 LINE",
"252 398 LINE",
"148 761 LINE",
"8 739 LINE",
"174 248 LINE",
"174 0 LINE"
);
}
);
width = 495;
}
);
leftKerningGroup = OPEN;
rightKerningGroup = OPEN;
unicode = 0059;
},
{
glyphname = Yhook;
layers = (
{
layerId = "849A9C4C-BF7C-40C5-8614-1FD725A2A379";
paths = (
{
closed = 1;
nodes = (
"321 0 LINE",
"321 266 LINE",
"437 604 LINE SMOOTH",
"445 628 OFFCURVE",
"457 639 OFFCURVE",
"476 639 CURVE SMOOTH",
"493 639 OFFCURVE",
"502 634 OFFCURVE",
"515 624 CURVE",
"544 738 LINE",
"519 752 OFFCURVE",
"495 760 OFFCURVE",
"468 760 CURVE SMOOTH",
"372 760 OFFCURVE",
"333 697 OFFCURVE",
"302 582 CURVE SMOOTH",
"252 398 LINE",
"148 761 LINE",
"8 739 LINE",
"174 248 LINE",
"174 0 LINE"
);
}
);
width = 544;
}
);
unicode = 01B3;
},
{
glyphname = Ystroke;
layers = (
{
components = (
{
name = Y;
transform = "{1, 0, 0, 1, 10, 0}";
}
);
layerId = "849A9C4C-BF7C-40C5-8614-1FD725A2A379";
paths = (
{
closed = 1;
nodes = (
"502 557 LINE",
"513 646 LINE",
"2 646 LINE",
"2 557 LINE"
);
}
);
width = 515;
}
);
unicode = 024E;
},
{
glyphname = Z;
layers = (
{
anchors = (
{
name = bottom;
position = "{225, 0}";
},
{
name = top;
position = "{243, 750}";
}
);
background = {
components = (
{
name = H;
transform = "{1, 0, 0, 1, -63, 0}";
}
);
};
guideLines = (
{
angle = 263;
position = "{41, 765}";
},
{
angle = -83;
position = "{32, 0}";
},
{
angle = 263;
position = "{439, 122}";
},
{
angle = 244.091;
position = "{19, 107}";
},
{
angle = -83;
position = "{436, 607}";
}
);
layerId = "849A9C4C-BF7C-40C5-8614-1FD725A2A379";
paths = (
{
closed = 1;
nodes = (
"430 0 LINE",
"445 122 LINE",
"181 122 LINE",
"442 651 LINE",
"430 750 LINE",
"35 750 LINE",
"35 632 LINE",
"281 632 LINE",
"20 103 LINE",
"32 0 LINE"
);
}
);
width = 465;
}
);
leftKerningGroup = VOID;
rightKerningGroup = VOID;
unicode = 005A;
},
{
glyphname = Zstroke;
layers = (
{
components = (
{
name = Z;
}
);
layerId = "849A9C4C-BF7C-40C5-8614-1FD725A2A379";
paths = (
{
closed = 1;
nodes = (
"406 341 LINE",
"416 431 LINE",
"55 431 LINE",
"55 341 LINE"
);
}
);
width = 465;
}
);
unicode = 01B5;
},
{
glyphname = C.001;
layers = (
{
anchors = (
{
name = bottom;
position = "{269, 0}";
},
{
name = top;
position = "{261, 750}";
}
);
background = {
components = (
{
name = O.001;
transform = "{1, 0, 0, 1, -23, 0}";
}
);
paths = (
{
closed = 1;
nodes = (
"418 -14 OFFCURVE",
"487 116 OFFCURVE",
"487 255 CURVE",
"362 267 LINE",
"357 202 OFFCURVE",
"344 104 OFFCURVE",
"283 104 CURVE SMOOTH",
"199 104 OFFCURVE",
"186 249 OFFCURVE",
"186 391 CURVE SMOOTH",
"186 501 OFFCURVE",
"199 646 OFFCURVE",
"269 646 CURVE SMOOTH",
"341 646 OFFCURVE",
"344 501 OFFCURVE",
"344 486 CURVE",
"486 493 LINE",
"486 625 OFFCURVE",
"409 764 OFFCURVE",
"277 764 CURVE SMOOTH",
"102 764 OFFCURVE",
"40 559 OFFCURVE",
"40 391 CURVE SMOOTH",
"40 201 OFFCURVE",
"85 -14 OFFCURVE",
"274 -14 CURVE SMOOTH"
);
},
{
closed = 1;
nodes = (
"418 -14 OFFCURVE",
"487 116 OFFCURVE",
"487 255 CURVE",
"362 267 LINE",
"357 202 OFFCURVE",
"344 104 OFFCURVE",
"283 104 CURVE SMOOTH",
"199 104 OFFCURVE",
"186 249 OFFCURVE",
"186 391 CURVE SMOOTH",
"186 501 OFFCURVE",
"199 646 OFFCURVE",
"269 646 CURVE SMOOTH",
"341 646 OFFCURVE",
"344 501 OFFCURVE",
"344 486 CURVE",
"486 493 LINE",
"486 625 OFFCURVE",
"409 764 OFFCURVE",
"277 764 CURVE SMOOTH",
"102 764 OFFCURVE",
"40 559 OFFCURVE",
"40 391 CURVE SMOOTH",
"40 201 OFFCURVE",
"85 -14 OFFCURVE",
"274 -14 CURVE SMOOTH"
);
},
{
closed = 1;
nodes = (
"88 764 OFFCURVE",
"20 590 OFFCURVE",
"20 369 CURVE SMOOTH",
"20 163 OFFCURVE",
"96 -14 OFFCURVE",
"277 -14 CURVE SMOOTH",
"407 -14 OFFCURVE",
"470 71 OFFCURVE",
"501 187 CURVE",
"374 214 LINE",
"365 157 OFFCURVE",
"336 114 OFFCURVE",
"282 114 CURVE SMOOTH",
"188 114 OFFCURVE",
"171 245 OFFCURVE",
"171 370 CURVE SMOOTH",
"171 517 OFFCURVE",
"185 639 OFFCURVE",
"282 639 CURVE SMOOTH",
"340 639 OFFCURVE",
"361 591 OFFCURVE",
"375 542 CURVE",
"497 568 LINE",
"465 680 OFFCURVE",
"401 764 OFFCURVE",
"277 764 CURVE SMOOTH"
);
}
);
};
guideLines = (
{
position = "{361, 445}";
},
{
angle = -7;
position = "{500, 244}";
},
{
angle = 7;
position = "{503, 488}";
},
{
position = "{156, 252}";
}
);
layerId = "849A9C4C-BF7C-40C5-8614-1FD725A2A379";
paths = (
{
closed = 1;
nodes = (
"401 -14 OFFCURVE",
"465 70 OFFCURVE",
"497 182 CURVE",
"375 208 LINE",
"361 159 OFFCURVE",
"340 111 OFFCURVE",
"282 111 CURVE SMOOTH",
"192 111 OFFCURVE",
"171 231 OFFCURVE",
"171 378 CURVE SMOOTH",
"171 507 OFFCURVE",
"192 639 OFFCURVE",
"283 639 CURVE SMOOTH",
"336 639 OFFCURVE",
"361 591 OFFCURVE",
"372 535 CURVE",
"501 563 LINE",
"473 685 OFFCURVE",
"407 764 OFFCURVE",
"277 764 CURVE SMOOTH",
"101 764 OFFCURVE",
"20 585 OFFCURVE",
"20 379 CURVE SMOOTH",
"20 158 OFFCURVE",
"93 -14 OFFCURVE",
"277 -14 CURVE SMOOTH"
);
}
);
width = 522;
}
);
},
{
glyphname = H.001;
layers = (
{
anchors = (
{
name = bottom;
position = "{297, 0}";
},
{
name = center;
position = "{297, 375}";
},
{
name = top;
position = "{297, 750}";
},
{
name = topleft;
position = "{20, 750}";
}
);
background = {
paths = (
{
closed = 1;
nodes = (
"216 0 LINE",
"217 309 LINE",
"377 309 LINE",
"377 0 LINE",
"524 0 LINE",
"523 342 OFFCURVE",
"522 609 OFFCURVE",
"524 756 CURVE",
"475 750 OFFCURVE",
"425 746 OFFCURVE",
"377 744 CURVE",
"377 429 LINE",
"217 429 LINE",
"217 756 LINE",
"170 750 OFFCURVE",
"121 746 OFFCURVE",
"70 744 CURVE",
"70 496 OFFCURVE",
"69 248 OFFCURVE",
"69 0 CURVE"
);
}
);
};
guideLines = (
{
position = "{-243, 795}";
},
{
angle = 4.6669;
position = "{451, 750}";
}
);
layerId = "849A9C4C-BF7C-40C5-8614-1FD725A2A379";
paths = (
{
closed = 1;
nodes = (
"217 0 LINE",
"217 309 LINE",
"377 309 LINE",
"377 0 LINE",
"524 0 LINE",
"524 756 LINE",
"475 750 OFFCURVE",
"425 746 OFFCURVE",
"377 744 CURVE",
"377 429 LINE",
"217 429 LINE",
"217 756 LINE",
"170 750 OFFCURVE",
"121 746 OFFCURVE",
"70 744 CURVE",
"70 0 LINE"
);
}
);
width = 594;
}
);
},
{
glyphname = M.001;
layers = (
{
anchors = (
{
name = bottom;
position = "{397, 0}";
},
{
name = top;
position = "{397, 750}";
}
);
background = {
paths = (
{
closed = 1;
nodes = (
"724 0 LINE",
"724 751 LINE",
"528 750 LINE",
"402 285 LINE",
"274 756 LINE",
"70 731 LINE",
"70 0 LINE",
"202 1 LINE",
"202 566 LINE",
"347 0 LINE",
"437 0 LINE",
"575 563 LINE",
"575 0 LINE"
);
}
);
};
guideLines = (
{
angle = 7;
position = "{724, 756}";
},
{
angle = 7;
position = "{575, -10}";
}
);
layerId = "849A9C4C-BF7C-40C5-8614-1FD725A2A379";
paths = (
{
closed = 1;
nodes = (
"437 0 LINE",
"575 563 LINE",
"575 0 LINE",
"724 0 LINE",
"724 750 LINE",
"528 750 LINE",
"402 285 LINE",
"274 756 LINE",
"70 731 LINE",
"70 1 LINE",
"202 1 LINE",
"202 566 LINE",
"347 0 LINE"
);
}
);
width = 794;
}
);
},
{
glyphname = O.001;
layers = (
{
anchors = (
{
name = bottom;
position = "{305, 0}";
},
{
name = center;
position = "{305, 375}";
},
{
name = ogonek;
position = "{475, 5}";
},
{
name = top;
position = "{305, 750}";
},
{
name = topleft;
position = "{40, 750}";
},
{
name = topright;
position = "{522, 463}";
}
);
background = {
paths = (
{
closed = 1;
nodes = (
"133 764 OFFCURVE",
"42 612 OFFCURVE",
"42 375 CURVE SMOOTH",
"42 138 OFFCURVE",
"133 -14 OFFCURVE",
"301 -14 CURVE SMOOTH",
"468 -14 OFFCURVE",
"559 138 OFFCURVE",
"559 375 CURVE SMOOTH",
"559 612 OFFCURVE",
"468 764 OFFCURVE",
"301 764 CURVE SMOOTH"
);
},
{
closed = 1;
nodes = (
"379 646 OFFCURVE",
"411 560 OFFCURVE",
"411 375 CURVE SMOOTH",
"411 191 OFFCURVE",
"379 104 OFFCURVE",
"301 104 CURVE SMOOTH",
"222 104 OFFCURVE",
"190 190 OFFCURVE",
"190 375 CURVE SMOOTH",
"190 560 OFFCURVE",
"222 646 OFFCURVE",
"301 646 CURVE SMOOTH"
);
}
);
};
layerId = "849A9C4C-BF7C-40C5-8614-1FD725A2A379";
paths = (
{
closed = 1;
nodes = (
"468 -14 OFFCURVE",
"559 138 OFFCURVE",
"559 375 CURVE SMOOTH",
"559 612 OFFCURVE",
"468 764 OFFCURVE",
"300 764 CURVE SMOOTH",
"133 764 OFFCURVE",
"42 612 OFFCURVE",
"42 375 CURVE SMOOTH",
"42 138 OFFCURVE",
"133 -14 OFFCURVE",
"300 -14 CURVE SMOOTH"
);
},
{
closed = 1;
nodes = (
"222 114 OFFCURVE",
"194 190 OFFCURVE",
"194 375 CURVE SMOOTH",
"194 559 OFFCURVE",
"222 636 OFFCURVE",
"300 636 CURVE SMOOTH",
"379 636 OFFCURVE",
"407 560 OFFCURVE",
"407 375 CURVE SMOOTH",
"407 190 OFFCURVE",
"379 114 OFFCURVE",
"300 114 CURVE SMOOTH"
);
}
);
width = 599;
}
);
},
{
glyphname = Q.001;
layers = (
{
anchors = (
{
name = bottom;
position = "{275, 0}";
},
{
name = top;
position = "{275, 750}";
}
);
components = (
{
name = O;
}
);
layerId = "849A9C4C-BF7C-40C5-8614-1FD725A2A379";
paths = (
{
closed = 1;
nodes = (
"428 -97 LINE",
"381 -66 OFFCURVE",
"345 -20 OFFCURVE",
"345 52 CURVE",
"246 31 LINE",
"246 -54 OFFCURVE",
"271 -127 OFFCURVE",
"338 -176 CURVE"
);
}
);
width = 549;
}
);
},
{
glyphname = M.002;
layers = (
{
anchors = (
{
name = bottom;
position = "{400, 0}";
},
{
name = top;
position = "{400, 750}";
}
);
background = {
paths = (
{
closed = 1;
nodes = (
"724 0 LINE",
"724 750 LINE",
"519 750 LINE",
"406 304 LINE",
"267 759 LINE",
"70 735 LINE",
"70 0 LINE",
"190 1 LINE",
"190 507 LINE",
"182 554 LINE",
"343 -3 LINE",
"442 9 LINE",
"584 554 LINE",
"577 509 LINE",
"577 0 LINE"
);
}
);
};
guideLines = (
{
angle = 7;
position = "{267, 759}";
},
{
angle = 7;
position = "{342, -4}";
}
);
layerId = "849A9C4C-BF7C-40C5-8614-1FD725A2A379";
paths = (
{
closed = 1;
nodes = (
"442 9 LINE",
"584 554 LINE",
"577 509 LINE",
"577 0 LINE",
"724 0 LINE",
"724 750 LINE",
"519 750 LINE",
"406 304 LINE",
"267 759 LINE",
"70 735 LINE",
"70 0 LINE",
"190 0 LINE",
"190 507 LINE",
"182 554 LINE",
"343 -3 LINE"
);
}
);
width = 794;
}
);
},
{
glyphname = B.ori;
layers = (
{
anchors = (
{
name = bottom;
position = "{276, 0}";
},
{
name = top;
position = "{276, 750}";
}
);
background = {
paths = (
{
closed = 1;
nodes = (
"190 0 LINE SMOOTH",
"348 0 OFFCURVE",
"521 35 OFFCURVE",
"521 210 CURVE SMOOTH",
"521 329 OFFCURVE",
"470 372 OFFCURVE",
"417 399 CURVE",
"467 424 OFFCURVE",
"498 484 OFFCURVE",
"498 557 CURVE SMOOTH",
"498 664 OFFCURVE",
"431 750 OFFCURVE",
"238 750 CURVE SMOOTH",
"70 750 LINE",
"70 0 LINE"
);
},
{
closed = 1;
nodes = (
"217 338 LINE",
"249 338 LINE SMOOTH",
"318 338 OFFCURVE",
"380 326 OFFCURVE",
"380 230 CURVE SMOOTH",
"380 186 OFFCURVE",
"351 117 OFFCURVE",
"244 117 CURVE SMOOTH",
"217 117 LINE"
);
},
{
closed = 1;
nodes = (
"212 633 LINE",
"241 633 LINE SMOOTH",
"306 633 OFFCURVE",
"362 617 OFFCURVE",
"362 542 CURVE SMOOTH",
"362 457 OFFCURVE",
"315 445 OFFCURVE",
"247 445 CURVE SMOOTH",
"212 445 LINE"
);
}
);
};
layerId = "849A9C4C-BF7C-40C5-8614-1FD725A2A379";
paths = (
{
closed = 1;
nodes = (
"190 0 LINE SMOOTH",
"348 0 OFFCURVE",
"521 35 OFFCURVE",
"521 210 CURVE SMOOTH",
"521 329 OFFCURVE",
"470 372 OFFCURVE",
"417 399 CURVE",
"467 424 OFFCURVE",
"498 484 OFFCURVE",
"498 557 CURVE SMOOTH",
"498 664 OFFCURVE",
"431 750 OFFCURVE",
"238 750 CURVE SMOOTH",
"70 750 LINE",
"70 0 LINE"
);
},
{
closed = 1;
nodes = (
"217 338 LINE",
"249 338 LINE SMOOTH",
"318 338 OFFCURVE",
"380 326 OFFCURVE",
"380 230 CURVE SMOOTH",
"380 186 OFFCURVE",
"351 117 OFFCURVE",
"244 117 CURVE SMOOTH",
"217 117 LINE"
);
},
{
closed = 1;
nodes = (
"212 633 LINE",
"241 633 LINE SMOOTH",
"306 633 OFFCURVE",
"362 617 OFFCURVE",
"362 542 CURVE SMOOTH",
"362 457 OFFCURVE",
"315 445 OFFCURVE",
"247 445 CURVE SMOOTH",
"212 445 LINE"
);
}
);
width = 551;
}
);
},
{
glyphname = C.ori;
layers = (
{
anchors = (
{
name = bottom;
position = "{269, 0}";
},
{
name = top;
position = "{261, 750}";
}
);
background = {
components = (
{
name = O.001;
transform = "{1, 0, 0, 1, -23, 0}";
}
);
paths = (
{
closed = 1;
nodes = (
"418 -14 OFFCURVE",
"487 116 OFFCURVE",
"487 255 CURVE",
"362 267 LINE",
"357 202 OFFCURVE",
"344 104 OFFCURVE",
"283 104 CURVE SMOOTH",
"199 104 OFFCURVE",
"186 249 OFFCURVE",
"186 391 CURVE SMOOTH",
"186 501 OFFCURVE",
"199 646 OFFCURVE",
"269 646 CURVE SMOOTH",
"341 646 OFFCURVE",
"344 501 OFFCURVE",
"344 486 CURVE",
"486 493 LINE",
"486 625 OFFCURVE",
"409 764 OFFCURVE",
"277 764 CURVE SMOOTH",
"102 764 OFFCURVE",
"40 559 OFFCURVE",
"40 391 CURVE SMOOTH",
"40 201 OFFCURVE",
"85 -14 OFFCURVE",
"274 -14 CURVE SMOOTH"
);
},
{
closed = 1;
nodes = (
"418 -14 OFFCURVE",
"487 116 OFFCURVE",
"487 255 CURVE",
"362 267 LINE",
"357 202 OFFCURVE",
"344 104 OFFCURVE",
"283 104 CURVE SMOOTH",
"199 104 OFFCURVE",
"186 249 OFFCURVE",
"186 391 CURVE SMOOTH",
"186 501 OFFCURVE",
"199 646 OFFCURVE",
"269 646 CURVE SMOOTH",
"341 646 OFFCURVE",
"344 501 OFFCURVE",
"344 486 CURVE",
"486 493 LINE",
"486 625 OFFCURVE",
"409 764 OFFCURVE",
"277 764 CURVE SMOOTH",
"102 764 OFFCURVE",
"40 559 OFFCURVE",
"40 391 CURVE SMOOTH",
"40 201 OFFCURVE",
"85 -14 OFFCURVE",
"274 -14 CURVE SMOOTH"
);
},
{
closed = 1;
nodes = (
"88 764 OFFCURVE",
"20 590 OFFCURVE",
"20 369 CURVE SMOOTH",
"20 163 OFFCURVE",
"96 -14 OFFCURVE",
"277 -14 CURVE SMOOTH",
"407 -14 OFFCURVE",
"470 71 OFFCURVE",
"501 187 CURVE",
"374 214 LINE",
"365 157 OFFCURVE",
"336 114 OFFCURVE",
"282 114 CURVE SMOOTH",
"188 114 OFFCURVE",
"171 245 OFFCURVE",
"171 370 CURVE SMOOTH",
"171 517 OFFCURVE",
"185 639 OFFCURVE",
"282 639 CURVE SMOOTH",
"340 639 OFFCURVE",
"361 591 OFFCURVE",
"375 542 CURVE",
"497 568 LINE",
"465 680 OFFCURVE",
"401 764 OFFCURVE",
"277 764 CURVE SMOOTH"
);
}
);
};
guideLines = (
{
position = "{361, 445}";
},
{
angle = -12;
position = "{371, 209}";
},
{
angle = 12;
position = "{368, 534}";
},
{
position = "{156, 252}";
}
);
layerId = "849A9C4C-BF7C-40C5-8614-1FD725A2A379";
paths = (
{
closed = 1;
nodes = (
"418 -14 OFFCURVE",
"487 116 OFFCURVE",
"487 255 CURVE",
"362 267 LINE",
"357 202 OFFCURVE",
"344 104 OFFCURVE",
"283 104 CURVE SMOOTH",
"199 104 OFFCURVE",
"186 249 OFFCURVE",
"186 391 CURVE SMOOTH",
"186 501 OFFCURVE",
"199 646 OFFCURVE",
"269 646 CURVE SMOOTH",
"341 646 OFFCURVE",
"344 501 OFFCURVE",
"344 486 CURVE",
"486 493 LINE",
"486 625 OFFCURVE",
"409 764 OFFCURVE",
"277 764 CURVE SMOOTH",
"102 764 OFFCURVE",
"40 559 OFFCURVE",
"40 391 CURVE SMOOTH",
"40 201 OFFCURVE",
"85 -14 OFFCURVE",
"274 -14 CURVE SMOOTH"
);
}
);
width = 522;
}
);
},
{
glyphname = E.ori;
layers = (
{
anchors = (
{
name = bottom;
position = "{242, 0}";
},
{
name = ogonek;
position = "{459, 0}";
},
{
name = top;
position = "{242, 750}";
},
{
name = topleft;
position = "{10, 750}";
}
);
guideLines = (
{
position = "{447, 622}";
},
{
position = "{405, 443}";
}
);
layerId = "849A9C4C-BF7C-40C5-8614-1FD725A2A379";
paths = (
{
closed = 1;
nodes = (
"447 0 LINE",
"459 117 LINE",
"217 117 LINE",
"217 328 LINE",
"375 328 LINE",
"375 454 LINE",
"217 454 LINE",
"217 633 LINE",
"439 633 LINE",
"451 750 LINE",
"70 750 LINE",
"70 0 LINE"
);
}
);
width = 483;
}
);
},
{
glyphname = F.ori;
layers = (
{
anchors = (
{
name = bottom;
position = "{230, 0}";
},
{
name = top;
position = "{230, 750}";
}
);
guideLines = (
{
position = "{7, 438}";
}
);
layerId = "849A9C4C-BF7C-40C5-8614-1FD725A2A379";
paths = (
{
closed = 1;
nodes = (
"217 6 LINE",
"217 312 LINE",
"374 312 LINE",
"374 436 LINE",
"217 436 LINE",
"217 632 LINE",
"439 632 LINE",
"451 750 LINE",
"70 750 LINE",
"70 -6 LINE"
);
}
);
width = 460;
}
);
},
{
glyphname = G.ori;
layers = (
{
anchors = (
{
name = bottom;
position = "{276, 0}";
},
{
name = top;
position = "{276, 750}";
}
);
background = {
paths = (
{
closed = 1;
nodes = (
"379 -14 OFFCURVE",
"402 91 OFFCURVE",
"413 139 CURVE",
"437 40 OFFCURVE",
"446 6 OFFCURVE",
"447 0 CURVE",
"503 6 LINE",
"503 375 LINE",
"300 375 LINE",
"288 263 LINE",
"362 263 LINE",
"362 179 OFFCURVE",
"334 104 OFFCURVE",
"282 104 CURVE SMOOTH",
"186 104 OFFCURVE",
"186 263 OFFCURVE",
"186 370 CURVE SMOOTH",
"186 484 OFFCURVE",
"203 646 OFFCURVE",
"281 646 CURVE SMOOTH",
"345 646 OFFCURVE",
"358 573 OFFCURVE",
"361 496 CURVE",
"500 505 LINE",
"500 653 OFFCURVE",
"435 764 OFFCURVE",
"283 764 CURVE SMOOTH",
"103 764 OFFCURVE",
"40 551 OFFCURVE",
"40 378 CURVE SMOOTH",
"40 173 OFFCURVE",
"96 -14 OFFCURVE",
"254 -14 CURVE SMOOTH"
);
}
);
};
layerId = "849A9C4C-BF7C-40C5-8614-1FD725A2A379";
paths = (
{
closed = 1;
nodes = (
"344 -14 OFFCURVE",
"389 34 OFFCURVE",
"413 139 CURVE",
"447 0 LINE",
"503 6 LINE",
"503 375 LINE",
"300 375 LINE",
"288 263 LINE",
"362 263 LINE",
"362 179 OFFCURVE",
"334 104 OFFCURVE",
"282 104 CURVE SMOOTH",
"186 104 OFFCURVE",
"186 263 OFFCURVE",
"186 370 CURVE SMOOTH",
"186 484 OFFCURVE",
"203 646 OFFCURVE",
"281 646 CURVE SMOOTH",
"345 646 OFFCURVE",
"358 573 OFFCURVE",
"361 496 CURVE",
"500 505 LINE",
"500 653 OFFCURVE",
"435 764 OFFCURVE",
"283 764 CURVE SMOOTH",
"103 764 OFFCURVE",
"40 551 OFFCURVE",
"40 378 CURVE SMOOTH",
"40 173 OFFCURVE",
"96 -14 OFFCURVE",
"254 -14 CURVE SMOOTH"
);
}
);
width = 553;
}
);
},
{
glyphname = Hbar.ori;
layers = (
{
background = {
components = (
{
name = H;
}
);
};
layerId = "849A9C4C-BF7C-40C5-8614-1FD725A2A379";
paths = (
{
closed = 1;
nodes = (
"217 6 LINE",
"217 312 LINE",
"358 312 LINE",
"358 -6 LINE",
"504 6 LINE",
"504 750 LINE",
"358 738 LINE",
"358 446 LINE",
"217 446 LINE",
"217 750 LINE",
"71 738 LINE",
"71 -6 LINE"
);
},
{
closed = 1;
nodes = (
"556 567 LINE",
"556 656 LINE",
"13 656 LINE",
"13 567 LINE"
);
}
);
width = 576;
}
);
},
{
glyphname = K.ori;
layers = (
{
anchors = (
{
name = bottom;
position = "{281, 0}";
},
{
name = top;
position = "{281, 750}";
}
);
layerId = "849A9C4C-BF7C-40C5-8614-1FD725A2A379";
paths = (
{
closed = 1;
nodes = (
"553 21 LINE",
"390 440 LINE",
"551 750 LINE",
"395 750 LINE",
"217 422 LINE",
"217 750 LINE",
"70 738 LINE",
"70 0 LINE",
"217 0 LINE",
"217 237 LINE",
"274 336 LINE",
"404 -13 LINE"
);
}
);
width = 563;
}
);
},
{
glyphname = M.ori;
layers = (
{
anchors = (
{
name = bottom;
position = "{397, 0}";
},
{
name = top;
position = "{397, 750}";
}
);
background = {
paths = (
{
closed = 1;
nodes = (
"724 6 LINE",
"724 744 LINE",
"528 732 LINE",
"409 285 LINE",
"285 749 LINE",
"70 743 LINE",
"70 0 LINE",
"191 6 LINE",
"191 559 LINE",
"342 0 LINE",
"432 0 LINE",
"572 557 LINE",
"572 -6 LINE"
);
}
);
};
guideLines = (
{
angle = 7;
position = "{340, -7}";
},
{
angle = 7;
position = "{575, -10}";
}
);
layerId = "849A9C4C-BF7C-40C5-8614-1FD725A2A379";
paths = (
{
closed = 1;
nodes = (
"724 6 LINE",
"724 744 LINE",
"528 732 LINE",
"409 285 LINE",
"285 749 LINE",
"70 743 LINE",
"70 0 LINE",
"191 6 LINE",
"191 559 LINE",
"342 0 LINE",
"432 0 LINE",
"572 557 LINE",
"572 -6 LINE"
);
}
);
width = 794;
}
);
},
{
glyphname = O.ori;
layers = (
{
anchors = (
{
name = bottom;
position = "{275, 0}";
},
{
name = center;
position = "{275, 375}";
},
{
name = ogonek;
position = "{445, 5}";
},
{
name = top;
position = "{275, 750}";
},
{
name = topleft;
position = "{10, 750}";
},
{
name = topright;
position = "{492, 463}";
}
);
background = {
paths = (
{
closed = 1;
nodes = (
"463 -14 OFFCURVE",
"507 192 OFFCURVE",
"507 383 CURVE SMOOTH",
"507 623 OFFCURVE",
"438 764 OFFCURVE",
"274 764 CURVE SMOOTH",
"104 764 OFFCURVE",
"42 613 OFFCURVE",
"42 379 CURVE SMOOTH",
"42 180 OFFCURVE",
"87 -14 OFFCURVE",
"272 -14 CURVE SMOOTH"
);
},
{
closed = 1;
nodes = (
"197 104 OFFCURVE",
"188 223 OFFCURVE",
"188 385 CURVE SMOOTH",
"188 490 OFFCURVE",
"192 646 OFFCURVE",
"274 646 CURVE SMOOTH",
"356 646 OFFCURVE",
"361 490 OFFCURVE",
"361 384 CURVE SMOOTH",
"361 222 OFFCURVE",
"351 104 OFFCURVE",
"274 104 CURVE SMOOTH"
);
}
);
};
layerId = "849A9C4C-BF7C-40C5-8614-1FD725A2A379";
paths = (
{
closed = 1;
nodes = (
"463 -14 OFFCURVE",
"507 192 OFFCURVE",
"507 383 CURVE SMOOTH",
"507 623 OFFCURVE",
"438 764 OFFCURVE",
"274 764 CURVE SMOOTH",
"104 764 OFFCURVE",
"42 613 OFFCURVE",
"42 379 CURVE SMOOTH",
"42 180 OFFCURVE",
"87 -14 OFFCURVE",
"272 -14 CURVE SMOOTH"
);
},
{
closed = 1;
nodes = (
"197 104 OFFCURVE",
"188 223 OFFCURVE",
"188 385 CURVE SMOOTH",
"188 490 OFFCURVE",
"192 646 OFFCURVE",
"274 646 CURVE SMOOTH",
"356 646 OFFCURVE",
"361 490 OFFCURVE",
"361 384 CURVE SMOOTH",
"361 222 OFFCURVE",
"351 104 OFFCURVE",
"274 104 CURVE SMOOTH"
);
}
);
width = 549;
}
);
},
{
glyphname = P.ori;
layers = (
{
anchors = (
{
name = bottom;
position = "{267, 0}";
},
{
name = top;
position = "{267, 750}";
}
);
layerId = "849A9C4C-BF7C-40C5-8614-1FD725A2A379";
paths = (
{
closed = 1;
nodes = (
"217 6 LINE",
"217 295 LINE",
"350 295 OFFCURVE",
"514 314 OFFCURVE",
"514 525 CURVE SMOOTH",
"514 718 OFFCURVE",
"407 750 OFFCURVE",
"219 750 CURVE SMOOTH",
"70 750 LINE",
"70 -6 LINE"
);
},
{
closed = 1;
nodes = (
"218 633 LINE",
"239 633 LINE SMOOTH",
"321 633 OFFCURVE",
"368 616 OFFCURVE",
"368 526 CURVE SMOOTH",
"368 434 OFFCURVE",
"311 414 OFFCURVE",
"243 414 CURVE SMOOTH",
"218 414 LINE"
);
}
);
width = 533;
}
);
},
{
glyphname = Thorn.ori;
layers = (
{
layerId = "849A9C4C-BF7C-40C5-8614-1FD725A2A379";
paths = (
{
closed = 1;
nodes = (
"215 -33 LINE",
"215 129 LINE",
"348 129 OFFCURVE",
"512 148 OFFCURVE",
"512 350 CURVE SMOOTH",
"512 551 OFFCURVE",
"356 568 OFFCURVE",
"216 570 CURVE",
"216 750 LINE",
"68 750 LINE",
"68 -45 LINE"
);
},
{
closed = 1;
nodes = (
"216 458 LINE",
"237 458 LINE SMOOTH",
"319 458 OFFCURVE",
"366 440 OFFCURVE",
"366 351 CURVE SMOOTH",
"366 259 OFFCURVE",
"309 238 OFFCURVE",
"241 238 CURVE SMOOTH",
"216 238 LINE"
);
}
);
width = 528;
}
);
},
{
glyphname = R.ori;
layers = (
{
anchors = (
{
name = bottom;
position = "{283, 0}";
},
{
name = top;
position = "{283, 750}";
}
);
background = {
components = (
{
name = P;
}
);
paths = (
{
closed = 1;
nodes = (
"551 26 LINE",
"483 188 LINE SMOOTH",
"450 268 OFFCURVE",
"416 350 OFFCURVE",
"416 351 CURVE",
"480 388 OFFCURVE",
"523 443 OFFCURVE",
"523 541 CURVE SMOOTH",
"523 688 OFFCURVE",
"413 750 OFFCURVE",
"248 750 CURVE",
"70 750 LINE",
"70 -6 LINE",
"216 6 LINE",
"216 329 LINE",
"273 329 LINE",
"407 -13 LINE"
);
},
{
closed = 1;
nodes = (
"216 633 LINE",
"285 633 LINE SMOOTH",
"337 633 OFFCURVE",
"377 610 OFFCURVE",
"377 540 CURVE SMOOTH",
"377 452 OFFCURVE",
"325 437 OFFCURVE",
"266 437 CURVE SMOOTH",
"216 437 LINE"
);
}
);
};
layerId = "849A9C4C-BF7C-40C5-8614-1FD725A2A379";
paths = (
{
closed = 1;
nodes = (
"551 26 LINE",
"483 188 LINE SMOOTH",
"450 268 OFFCURVE",
"416 350 OFFCURVE",
"416 351 CURVE",
"480 388 OFFCURVE",
"523 443 OFFCURVE",
"523 541 CURVE SMOOTH",
"523 688 OFFCURVE",
"413 750 OFFCURVE",
"248 750 CURVE",
"70 750 LINE",
"70 -6 LINE",
"216 6 LINE",
"216 329 LINE",
"273 329 LINE",
"407 -13 LINE"
);
},
{
closed = 1;
nodes = (
"216 633 LINE",
"285 633 LINE SMOOTH",
"337 633 OFFCURVE",
"377 610 OFFCURVE",
"377 540 CURVE SMOOTH",
"377 452 OFFCURVE",
"325 437 OFFCURVE",
"266 437 CURVE SMOOTH",
"216 437 LINE"
);
}
);
width = 565;
}
);
},
{
glyphname = S.ori;
layers = (
{
anchors = (
{
name = bottom;
position = "{267, 0}";
},
{
name = top;
position = "{267, 750}";
}
);
guideLines = (
{
angle = 150.8712;
position = "{235, 491}";
},
{
angle = 150.8712;
position = "{238, 315}";
},
{
angle = 216.2538;
position = "{59, 170}";
},
{
angle = 216.2538;
position = "{465, 589}";
}
);
layerId = "849A9C4C-BF7C-40C5-8614-1FD725A2A379";
paths = (
{
closed = 1;
nodes = (
"313 -14 OFFCURVE",
"353 -4 OFFCURVE",
"390 16 CURVE SMOOTH",
"462 56 OFFCURVE",
"507 131 OFFCURVE",
"507 226 CURVE",
"502 309 OFFCURVE",
"455 375 OFFCURVE",
"366 426 CURVE SMOOTH",
"245 497 LINE SMOOTH",
"220 512 OFFCURVE",
"199 539 OFFCURVE",
"199 571 CURVE SMOOTH",
"199 615 OFFCURVE",
"223 646 OFFCURVE",
"267 646 CURVE SMOOTH",
"303 646 OFFCURVE",
"327 630 OFFCURVE",
"344 593 CURVE SMOOTH",
"353 574 OFFCURVE",
"358 562 OFFCURVE",
"361 557 CURVE",
"485 613 LINE",
"450 713 OFFCURVE",
"377 764 OFFCURVE",
"274 764 CURVE SMOOTH",
"230 764 OFFCURVE",
"191 755 OFFCURVE",
"156 736 CURVE SMOOTH",
"86 699 OFFCURVE",
"42 628 OFFCURVE",
"42 541 CURVE SMOOTH",
"42 460 OFFCURVE",
"91 393 OFFCURVE",
"167 350 CURVE SMOOTH",
"298 272 LINE",
"327 253 OFFCURVE",
"348 221 OFFCURVE",
"348 184 CURVE SMOOTH",
"348 144 OFFCURVE",
"316 104 OFFCURVE",
"281 104 CURVE SMOOTH",
"228 104 OFFCURVE",
"198 143 OFFCURVE",
"159 210 CURVE SMOOTH",
"147 230 LINE",
"23 172 LINE",
"62 59 OFFCURVE",
"147 -14 OFFCURVE",
"268 -14 CURVE SMOOTH"
);
}
);
width = 533;
}
);
},
{
glyphname = V.ori;
layers = (
{
anchors = (
{
name = bottom;
position = "{267, 0}";
},
{
name = top;
position = "{267, 750}";
}
);
background = {
paths = (
{
closed = 1;
nodes = (
"346 0 LINE",
"526 750 LINE",
"385 744 LINE",
"281 232 LINE",
"182 750 LINE",
"8 744 LINE",
"185 0 LINE"
);
}
);
};
guideLines = (
{
angle = 7;
position = "{33, 743}";
}
);
layerId = "849A9C4C-BF7C-40C5-8614-1FD725A2A379";
paths = (
{
closed = 1;
nodes = (
"346 0 LINE",
"526 750 LINE",
"385 744 LINE",
"281 232 LINE",
"182 750 LINE",
"8 744 LINE",
"185 0 LINE"
);
}
);
width = 533;
}
);
},
{
glyphname = W.ori;
layers = (
{
anchors = (
{
name = bottom;
position = "{387, 0}";
},
{
name = top;
position = "{387, 750}";
}
);
background = {
paths = (
{
closed = 1;
nodes = (
"300 0 LINE",
"381 458 LINE",
"460 0 LINE",
"605 0 LINE",
"766 750 LINE",
"631 744 LINE",
"536 296 LINE",
"457 750 LINE",
"337 744 LINE",
"252 301 LINE",
"173 750 LINE",
"13 744 LINE",
"166 0 LINE"
);
}
);
};
guideLines = (
{
angle = 2.1476;
position = "{93, 747}";
},
{
angle = 2.8624;
position = "{397, 747}";
},
{
angle = 2.5448;
position = "{699, 747}";
},
{
angle = 7;
position = "{-1, 743}";
}
);
layerId = "849A9C4C-BF7C-40C5-8614-1FD725A2A379";
paths = (
{
closed = 1;
nodes = (
"300 0 LINE",
"381 458 LINE",
"460 0 LINE",
"605 0 LINE",
"766 750 LINE",
"631 744 LINE",
"536 296 LINE",
"457 750 LINE",
"337 744 LINE",
"252 301 LINE",
"173 750 LINE",
"13 744 LINE",
"166 0 LINE"
);
}
);
width = 774;
}
);
},
{
glyphname = Ismall;
layers = (
{
layerId = "849A9C4C-BF7C-40C5-8614-1FD725A2A379";
paths = (
{
closed = 1;
nodes = (
"240 54 LINE",
"240 525 LINE",
"99 525 LINE",
"99 54 LINE"
);
},
{
closed = 1;
nodes = (
"328 0 LINE",
"328 105 LINE",
"23 105 LINE",
"10 0 LINE"
);
},
{
closed = 1;
nodes = (
"315 458 LINE",
"328 563 LINE",
"10 563 LINE",
"10 458 LINE"
);
}
);
width = 343;
}
);
unicode = 026A;
},
{
glyphname = a;
layers = (
{
anchors = (
{
name = bottom;
position = "{223, 0}";
},
{
name = ogonek;
position = "{488, -5}";
},
{
name = top;
position = "{220, 563}";
}
);
background = {
paths = (
{
closed = 1;
nodes = (
"126 336 OFFCURVE",
"20 280 OFFCURVE",
"20 148 CURVE SMOOTH",
"20 48 OFFCURVE",
"72 -12 OFFCURVE",
"152 -12 CURVE SMOOTH",
"225 -12 OFFCURVE",
"267 35 OFFCURVE",
"284 92 CURVE",
"268 160 LINE",
"268 124 OFFCURVE",
"246 99 OFFCURVE",
"213 99 CURVE SMOOTH",
"177 99 OFFCURVE",
"159 126 OFFCURVE",
"159 168 CURVE SMOOTH",
"159 222 OFFCURVE",
"199 261 OFFCURVE",
"268 261 CURVE SMOOTH",
"280 261 LINE",
"280 336 LINE",
"268 336 LINE SMOOTH"
);
},
{
closed = 1;
nodes = (
"277 54 OFFCURVE",
"282 28 OFFCURVE",
"292 0 CURVE",
"428 0 LINE",
"413 45 OFFCURVE",
"408 94 OFFCURVE",
"408 148 CURVE SMOOTH",
"408 372 LINE SMOOTH",
"408 498 OFFCURVE",
"349 570 OFFCURVE",
"218 570 CURVE SMOOTH",
"125 570 OFFCURVE",
"51 521 OFFCURVE",
"34 414 CURVE",
"158 387 LINE",
"163 428 OFFCURVE",
"179 463 OFFCURVE",
"214 463 CURVE SMOOTH",
"255 463 OFFCURVE",
"268 428 OFFCURVE",
"268 387 CURVE SMOOTH",
"268 86 LINE",
"277 86 LINE"
);
}
);
};
guideLines = (
{
position = "{37, 471}";
},
{
angle = -12;
position = "{39, 415}";
}
);
layerId = "849A9C4C-BF7C-40C5-8614-1FD725A2A379";
paths = (
{
closed = 1;
nodes = (
"428 0 LINE",
"413 45 OFFCURVE",
"408 94 OFFCURVE",
"408 148 CURVE SMOOTH",
"408 372 LINE SMOOTH",
"408 498 OFFCURVE",
"349 570 OFFCURVE",
"218 570 CURVE SMOOTH",
"125 570 OFFCURVE",
"51 521 OFFCURVE",
"34 414 CURVE",
"158 387 LINE",
"163 428 OFFCURVE",
"179 463 OFFCURVE",
"214 463 CURVE SMOOTH",
"255 463 OFFCURVE",
"268 428 OFFCURVE",
"268 387 CURVE SMOOTH",
"268 86 LINE",
"277 86 LINE",
"277 54 OFFCURVE",
"282 28 OFFCURVE",
"292 0 CURVE"
);
},
{
closed = 1;
nodes = (
"225 -12 OFFCURVE",
"267 35 OFFCURVE",
"284 92 CURVE",
"268 160 LINE",
"268 124 OFFCURVE",
"246 99 OFFCURVE",
"213 99 CURVE SMOOTH",
"177 99 OFFCURVE",
"159 126 OFFCURVE",
"159 168 CURVE SMOOTH",
"159 222 OFFCURVE",
"199 261 OFFCURVE",
"268 261 CURVE SMOOTH",
"280 261 LINE",
"280 336 LINE",
"268 336 LINE SMOOTH",
"126 336 OFFCURVE",
"20 280 OFFCURVE",
"20 148 CURVE SMOOTH",
"20 48 OFFCURVE",
"72 -12 OFFCURVE",
"152 -12 CURVE SMOOTH"
);
}
);
width = 453;
}
);
leftKerningGroup = a;
rightKerningGroup = a;
unicode = 0061;
},
{
glyphname = "alpha-latin";
layers = (
{
components = (
{
name = d_bowl;
transform = "{1, 0, 0, 1, 37, 0}";
}
);
layerId = "849A9C4C-BF7C-40C5-8614-1FD725A2A379";
paths = (
{
closed = 1;
nodes = (
"476 -13 OFFCURVE",
"496 -7 OFFCURVE",
"516 0 CURVE",
"505 104 LINE",
"498 102 OFFCURVE",
"492 101 OFFCURVE",
"483 101 CURVE SMOOTH",
"466 101 OFFCURVE",
"455 113 OFFCURVE",
"455 138 CURVE SMOOTH",
"455 572 LINE",
"321 556 LINE",
"321 478 LINE",
"315 478 LINE",
"315 152 LINE",
"326 152 LINE",
"326 43 OFFCURVE",
"365 -13 OFFCURVE",
"448 -13 CURVE SMOOTH"
);
}
);
width = 521;
}
);
unicode = 0251;
},
{
glyphname = aringacute;
layers = (
{
background = {
components = (
{
alignment = -1;
name = acutecomb;
transform = "{1, 0, 0, 1, 227, 165}";
}
);
};
components = (
{
name = a;
},
{
name = ringcomb;
transform = "{1, 0, 0, 1, 220, 0}";
}
);
layerId = "849A9C4C-BF7C-40C5-8614-1FD725A2A379";
paths = (
{
closed = 1;
nodes = (
"450 889 LINE",
"347 984 LINE",
"247 795 LINE",
"279 768 LINE"
);
}
);
width = 453;
}
);
leftKerningGroup = small;
rightKerningGroup = a;
unicode = 01FB;
},
{
glyphname = astroke;
layers = (
{
components = (
{
name = a;
}
);
layerId = "849A9C4C-BF7C-40C5-8614-1FD725A2A379";
paths = (
{
closed = 1;
nodes = (
"307 482 LINE",
"335 675 LINE",
"267 683 LINE",
"238 482 LINE"
);
},
{
closed = 1;
nodes = (
"247 74 LINE",
"178 74 LINE",
"151 -112 LINE",
"219 -120 LINE"
);
}
);
width = 453;
}
);
unicode = 2C65;
},
{
glyphname = ae;
layers = (
{
anchors = (
{
name = bottom;
position = "{356, 0}";
},
{
name = top;
position = "{356, 563}";
}
);
background = {
paths = (
{
closed = 1;
nodes = (
"268 -13 OFFCURVE",
"328 50 OFFCURVE",
"338 134 CURVE",
"310 134 LINE",
"345 24 OFFCURVE",
"399 -13 OFFCURVE",
"489 -13 CURVE SMOOTH",
"589 -13 OFFCURVE",
"653 61 OFFCURVE",
"670 154 CURVE",
"550 179 LINE",
"544 138 OFFCURVE",
"528 93 OFFCURVE",
"486 93 CURVE SMOOTH",
"415 93 OFFCURVE",
"411 194 OFFCURVE",
"411 279 CURVE",
"389 245 LINE",
"671 245 LINE",
"673 274 OFFCURVE",
"674 305 OFFCURVE",
"674 332 CURVE SMOOTH",
"674 466 OFFCURVE",
"616 570 OFFCURVE",
"486 570 CURVE SMOOTH",
"415 570 OFFCURVE",
"359 535 OFFCURVE",
"352 494 CURVE",
"366 494 LINE",
"356 545 OFFCURVE",
"301 570 OFFCURVE",
"240 570 CURVE SMOOTH",
"166 570 OFFCURVE",
"71 538 OFFCURVE",
"55 418 CURVE",
"179 391 LINE",
"185 433 OFFCURVE",
"203 463 OFFCURVE",
"236 463 CURVE SMOOTH",
"276 463 OFFCURVE",
"286 421 OFFCURVE",
"286 383 CURVE SMOOTH",
"286 336 LINE",
"152 336 OFFCURVE",
"26 285 OFFCURVE",
"26 150 CURVE SMOOTH",
"26 45 OFFCURVE",
"91 -13 OFFCURVE",
"193 -13 CURVE SMOOTH"
);
},
{
closed = 1;
nodes = (
"186 98 OFFCURVE",
"165 120 OFFCURVE",
"165 164 CURVE SMOOTH",
"165 231 OFFCURVE",
"217 261 OFFCURVE",
"284 261 CURVE",
"284 172 LINE SMOOTH",
"284 127 OFFCURVE",
"253 98 OFFCURVE",
"220 98 CURVE SMOOTH"
);
},
{
closed = 1;
nodes = (
"410 393 OFFCURVE",
"432 466 OFFCURVE",
"482 466 CURVE SMOOTH",
"536 466 OFFCURVE",
"548 398 OFFCURVE",
"545 290 CURVE",
"567 324 LINE",
"389 324 LINE",
"411 290 LINE"
);
}
);
};
layerId = "849A9C4C-BF7C-40C5-8614-1FD725A2A379";
paths = (
{
closed = 1;
nodes = (
"268 -13 OFFCURVE",
"328 50 OFFCURVE",
"338 134 CURVE",
"310 134 LINE",
"345 24 OFFCURVE",
"399 -13 OFFCURVE",
"489 -13 CURVE SMOOTH",
"589 -13 OFFCURVE",
"653 61 OFFCURVE",
"670 154 CURVE",
"550 179 LINE",
"544 138 OFFCURVE",
"528 93 OFFCURVE",
"486 93 CURVE SMOOTH",
"415 93 OFFCURVE",
"411 194 OFFCURVE",
"411 279 CURVE",
"389 245 LINE",
"671 245 LINE",
"673 274 OFFCURVE",
"674 305 OFFCURVE",
"674 332 CURVE SMOOTH",
"674 466 OFFCURVE",
"616 570 OFFCURVE",
"486 570 CURVE SMOOTH",
"415 570 OFFCURVE",
"359 535 OFFCURVE",
"352 494 CURVE",
"366 494 LINE",
"356 545 OFFCURVE",
"301 570 OFFCURVE",
"240 570 CURVE SMOOTH",
"166 570 OFFCURVE",
"71 538 OFFCURVE",
"55 418 CURVE",
"179 391 LINE",
"185 433 OFFCURVE",
"203 463 OFFCURVE",
"236 463 CURVE SMOOTH",
"276 463 OFFCURVE",
"286 421 OFFCURVE",
"286 383 CURVE SMOOTH",
"286 336 LINE",
"152 336 OFFCURVE",
"26 285 OFFCURVE",
"26 150 CURVE SMOOTH",
"26 45 OFFCURVE",
"91 -13 OFFCURVE",
"193 -13 CURVE SMOOTH"
);
},
{
closed = 1;
nodes = (
"186 98 OFFCURVE",
"165 120 OFFCURVE",
"165 164 CURVE SMOOTH",
"165 231 OFFCURVE",
"217 261 OFFCURVE",
"284 261 CURVE",
"284 172 LINE SMOOTH",
"284 127 OFFCURVE",
"253 98 OFFCURVE",
"220 98 CURVE SMOOTH"
);
},
{
closed = 1;
nodes = (
"410 393 OFFCURVE",
"432 466 OFFCURVE",
"482 466 CURVE SMOOTH",
"536 466 OFFCURVE",
"548 398 OFFCURVE",
"548 290 CURVE",
"567 324 LINE",
"389 324 LINE",
"410 290 LINE"
);
}
);
width = 711;
}
);
leftKerningGroup = small;
rightKerningGroup = round;
unicode = 00E6;
},
{
glyphname = b;
layers = (
{
anchors = (
{
name = bottom;
position = "{248, 0}";
},
{
name = top;
position = "{346, 563}";
}
);
background = {
paths = (
{
closed = 1;
nodes = (
"414 -13 OFFCURVE",
"472 78 OFFCURVE",
"472 281 CURVE SMOOTH",
"472 495 OFFCURVE",
"413 570 OFFCURVE",
"333 570 CURVE SMOOTH",
"275 570 OFFCURVE",
"223 538 OFFCURVE",
"190 491 CURVE",
"190 750 LINE",
"50 732 LINE",
"50 0 LINE",
"159 0 LINE",
"190 70 LINE",
"202 28 OFFCURVE",
"229 -13 OFFCURVE",
"311 -13 CURVE SMOOTH"
);
},
{
closed = 1;
nodes = (
"225 87 OFFCURVE",
"190 117 OFFCURVE",
"190 234 CURVE SMOOTH",
"190 412 LINE",
"203 425 OFFCURVE",
"241 450 OFFCURVE",
"268 450 CURVE SMOOTH",
"320 450 OFFCURVE",
"332 409 OFFCURVE",
"332 281 CURVE SMOOTH",
"332 177 OFFCURVE",
"327 87 OFFCURVE",
"259 87 CURVE SMOOTH"
);
}
);
};
components = (
{
name = d_bowl;
transform = "{-1, 0, 0, -1, 468, 557}";
}
);
guideLines = (
{
angle = 7;
position = "{115, 751}";
},
{
angle = 7;
position = "{178, 8}";
}
);
layerId = "849A9C4C-BF7C-40C5-8614-1FD725A2A379";
paths = (
{
closed = 1;
nodes = (
"178 0 LINE",
"178 84 LINE",
"190 138 LINE",
"190 760 LINE",
"50 743 LINE",
"50 0 LINE"
);
}
);
width = 505;
}
);
leftKerningGroup = straight;
leftMetricsKey = l;
rightKerningGroup = round;
unicode = 0062;
},
{
glyphname = "beta-latin";
layers = (
{
layerId = "849A9C4C-BF7C-40C5-8614-1FD725A2A379";
paths = (
{
closed = 1;
nodes = (
"190 -168 LINE",
"190 548 LINE SMOOTH",
"190 608 OFFCURVE",
"212 651 OFFCURVE",
"263 651 CURVE SMOOTH",
"309 651 OFFCURVE",
"338 610 OFFCURVE",
"338 552 CURVE SMOOTH",
"338 489 OFFCURVE",
"309 435 OFFCURVE",
"239 428 CURVE",
"239 336 LINE",
"313 318 OFFCURVE",
"369 269 OFFCURVE",
"369 195 CURVE SMOOTH",
"369 135 OFFCURVE",
"334 99 OFFCURVE",
"279 99 CURVE SMOOTH",
"224 99 OFFCURVE",
"190 135 OFFCURVE",
"190 195 CURVE",
"154 195 LINE",
"154 67 OFFCURVE",
"173 -15 OFFCURVE",
"309 -15 CURVE SMOOTH",
"425 -15 OFFCURVE",
"505 67 OFFCURVE",
"505 195 CURVE SMOOTH",
"505 291 OFFCURVE",
"462 348 OFFCURVE",
"386 384 CURVE",
"447 422 OFFCURVE",
"474 489 OFFCURVE",
"474 560 CURVE SMOOTH",
"474 687 OFFCURVE",
"394 766 OFFCURVE",
"263 766 CURVE SMOOTH",
"118 766 OFFCURVE",
"50 675 OFFCURVE",
"50 531 CURVE SMOOTH",
"50 -185 LINE"
);
}
);
width = 534;
}
);
unicode = A7B5;
},
{
glyphname = bhook;
layers = (
{
anchors = (
{
name = bottom;
position = "{248, 0}";
},
{
name = top;
position = "{346, 563}";
}
);
components = (
{
name = d_bowl;
transform = "{-1, 0, 0, -1, 468, 557}";
}
);
layerId = "849A9C4C-BF7C-40C5-8614-1FD725A2A379";
paths = (
{
closed = 1;
nodes = (
"178 0 LINE",
"178 84 LINE",
"190 138 LINE",
"190 583 LINE SMOOTH",
"190 624 OFFCURVE",
"207 644 OFFCURVE",
"242 644 CURVE SMOOTH",
"256 644 OFFCURVE",
"266 642 OFFCURVE",
"277 638 CURVE",
"290 748 LINE",
"267 757 OFFCURVE",
"246 760 OFFCURVE",
"223 760 CURVE SMOOTH",
"116 760 OFFCURVE",
"50 685 OFFCURVE",
"50 587 CURVE SMOOTH",
"50 0 LINE"
);
}
);
width = 505;
}
);
unicode = 0253;
},
{
glyphname = bilabialclick;
layers = (
{
anchors = (
{
name = _center;
position = "{237.506, 279.247}";
}
);
layerId = "849A9C4C-BF7C-40C5-8614-1FD725A2A379";
paths = (
{
closed = 1;
nodes = (
"372 -13 OFFCURVE",
"451 94 OFFCURVE",
"451 279 CURVE SMOOTH",
"451 456 OFFCURVE",
"372 570 OFFCURVE",
"237 570 CURVE SMOOTH",
"101 570 OFFCURVE",
"25 454 OFFCURVE",
"25 279 CURVE SMOOTH",
"25 95 OFFCURVE",
"102 -13 OFFCURVE",
"237 -13 CURVE SMOOTH"
);
},
{
closed = 1;
nodes = (
"178 90 OFFCURVE",
"164 183 OFFCURVE",
"164 279 CURVE SMOOTH",
"164 362 OFFCURVE",
"177 467 OFFCURVE",
"237 467 CURVE SMOOTH",
"297 467 OFFCURVE",
"312 361 OFFCURVE",
"312 279 CURVE SMOOTH",
"312 183 OFFCURVE",
"297 90 OFFCURVE",
"237 90 CURVE SMOOTH"
);
},
{
closed = 1;
nodes = (
"289 227 LINE",
"289 330 LINE",
"186 330 LINE",
"186 227 LINE"
);
}
);
width = 476;
}
);
unicode = 0298;
},
{
glyphname = bstroke;
layers = (
{
background = {
components = (
{
name = hbar;
transform = "{1, 0, 0, 1, -1, 0}";
}
);
};
components = (
{
name = b;
}
);
layerId = "849A9C4C-BF7C-40C5-8614-1FD725A2A379";
paths = (
{
closed = 1;
nodes = (
"301 603 LINE",
"311 693 LINE",
"-17 693 LINE",
"-17 603 LINE"
);
}
);
width = 505;
}
);
unicode = 0180;
},
{
glyphname = c;
layers = (
{
anchors = (
{
name = bottom;
position = "{265, 0}";
},
{
name = top;
position = "{230, 563}";
}
);
background = {
components = (
{
name = o;
transform = "{1, 0, 0, 1, -9, 0}";
}
);
};
guideLines = (
{
angle = 12;
position = "{429, 379}";
},
{
angle = 90;
position = "{237, 279}";
},
{
angle = 173.7516;
position = "{426, 183}";
},
{
position = "{530, 331}";
},
{
position = "{527, 197}";
}
);
layerId = "849A9C4C-BF7C-40C5-8614-1FD725A2A379";
paths = (
{
closed = 1;
nodes = (
"348 -13 OFFCURVE",
"417 76 OFFCURVE",
"429 182 CURVE",
"301 196 LINE",
"299 154 OFFCURVE",
"285 90 OFFCURVE",
"237 90 CURVE SMOOTH",
"186 90 OFFCURVE",
"168 163 OFFCURVE",
"168 278 CURVE SMOOTH",
"168 378 OFFCURVE",
"180 467 OFFCURVE",
"237 467 CURVE SMOOTH",
"283 467 OFFCURVE",
"295 405 OFFCURVE",
"299 353 CURVE",
"429 379 LINE",
"420 497 OFFCURVE",
"348 570 OFFCURVE",
"237 570 CURVE SMOOTH",
"106 570 OFFCURVE",
"25 457 OFFCURVE",
"25 278 CURVE SMOOTH",
"25 101 OFFCURVE",
"95 -13 OFFCURVE",
"237 -13 CURVE SMOOTH"
);
}
);
width = 444;
}
);
leftKerningGroup = round;
leftMetricsKey = o;
rightKerningGroup = superopen;
unicode = 0063;
},
{
glyphname = "chi-latin";
layers = (
{
layerId = "849A9C4C-BF7C-40C5-8614-1FD725A2A379";
paths = (
{
closed = 1;
nodes = (
"437 -185 OFFCURVE",
"470 -172 OFFCURVE",
"491 -153 CURVE",
"457 -54 LINE",
"451 -58 OFFCURVE",
"443 -63 OFFCURVE",
"430 -63 CURVE SMOOTH",
"418 -63 OFFCURVE",
"410 -57 OFFCURVE",
"404 -41 CURVE SMOOTH",
"292 258 LINE",
"256 258 LINE",
"206 452 LINE SMOOTH",
"185 534 OFFCURVE",
"149 573 OFFCURVE",
"88 573 CURVE SMOOTH",
"52 573 OFFCURVE",
"22 560 OFFCURVE",
"-10 541 CURVE",
"24 442 LINE",
"30 446 OFFCURVE",
"38 451 OFFCURVE",
"51 451 CURVE SMOOTH",
"63 451 OFFCURVE",
"71 445 OFFCURVE",
"77 429 CURVE SMOOTH",
"178 142 LINE",
"216 142 LINE",
"277 -64 LINE SMOOTH",
"301 -145 OFFCURVE",
"334 -185 OFFCURVE",
"405 -185 CURVE SMOOTH"
);
},
{
closed = 1;
nodes = (
"166 -175 LINE",
"254 145 LINE",
"298 145 LINE",
"446 564 LINE",
"312 564 LINE",
"225 242 LINE",
"183 242 LINE",
"33 -175 LINE"
);
}
);
width = 481;
}
);
unicode = AB53;
},
{
glyphname = chook;
layers = (
{
background = {
paths = (
{
closed = 1;
nodes = (
"348 -13 OFFCURVE",
"417 76 OFFCURVE",
"429 182 CURVE",
"301 196 LINE",
"299 154 OFFCURVE",
"285 90 OFFCURVE",
"237 90 CURVE SMOOTH",
"186 90 OFFCURVE",
"168 163 OFFCURVE",
"168 278 CURVE SMOOTH",
"168 378 OFFCURVE",
"180 467 OFFCURVE",
"237 467 CURVE SMOOTH",
"283 467 OFFCURVE",
"295 405 OFFCURVE",
"299 353 CURVE",
"429 379 LINE",
"398 497 OFFCURVE",
"348 570 OFFCURVE",
"237 570 CURVE SMOOTH",
"106 570 OFFCURVE",
"25 457 OFFCURVE",
"25 278 CURVE SMOOTH",
"25 101 OFFCURVE",
"95 -13 OFFCURVE",
"237 -13 CURVE SMOOTH"
);
},
{
closed = 1;
nodes = (
"412 457 OFFCURVE",
"404 511 OFFCURVE",
"404 549 CURVE SMOOTH",
"404 602 OFFCURVE",
"420 621 OFFCURVE",
"449 621 CURVE SMOOTH",
"469 621 OFFCURVE",
"481 613 OFFCURVE",
"498 594 CURVE",
"535 703 LINE",
"520 723 OFFCURVE",
"487 739 OFFCURVE",
"445 739 CURVE SMOOTH",
"357 739 OFFCURVE",
"309 674 OFFCURVE",
"309 598 CURVE SMOOTH",
"309 576 OFFCURVE",
"310 543 OFFCURVE",
"323 518 CURVE",
"429 379 LINE"
);
}
);
};
layerId = "849A9C4C-BF7C-40C5-8614-1FD725A2A379";
paths = (
{
closed = 1;
nodes = (
"348 -13 OFFCURVE",
"417 76 OFFCURVE",
"429 182 CURVE",
"301 196 LINE",
"299 154 OFFCURVE",
"285 90 OFFCURVE",
"237 90 CURVE SMOOTH",
"186 90 OFFCURVE",
"168 163 OFFCURVE",
"168 278 CURVE SMOOTH",
"168 378 OFFCURVE",
"180 467 OFFCURVE",
"237 467 CURVE SMOOTH",
"283 467 OFFCURVE",
"295 405 OFFCURVE",
"299 353 CURVE",
"429 379 LINE",
"417 432 OFFCURVE",
"404 491 OFFCURVE",
"404 543 CURVE SMOOTH",
"404 591 OFFCURVE",
"414 621 OFFCURVE",
"443 621 CURVE SMOOTH",
"455 621 OFFCURVE",
"469 616 OFFCURVE",
"483 602 CURVE",
"520 703 LINE",
"501 723 OFFCURVE",
"474 739 OFFCURVE",
"435 739 CURVE SMOOTH",
"357 739 OFFCURVE",
"299 674 OFFCURVE",
"299 598 CURVE SMOOTH",
"299 556 OFFCURVE",
"306 535 OFFCURVE",
"323 514 CURVE",
"347 538 LINE",
"315 558 OFFCURVE",
"282 570 OFFCURVE",
"237 570 CURVE SMOOTH",
"106 570 OFFCURVE",
"25 457 OFFCURVE",
"25 278 CURVE SMOOTH",
"25 101 OFFCURVE",
"95 -13 OFFCURVE",
"237 -13 CURVE SMOOTH"
);
}
);
width = 500;
}
);
unicode = 0188;
},
{
glyphname = cstroke;
layers = (
{
background = {
paths = (
{
closed = 1;
nodes = (
"141 -112 LINE",
"209 -120 LINE",
"325 675 LINE",
"257 683 LINE"
);
},
{
closed = 1;
nodes = (
"348 -13 OFFCURVE",
"417 76 OFFCURVE",
"429 182 CURVE",
"301 196 LINE",
"299 154 OFFCURVE",
"285 90 OFFCURVE",
"237 90 CURVE SMOOTH",
"186 90 OFFCURVE",
"168 163 OFFCURVE",
"168 278 CURVE SMOOTH",
"168 378 OFFCURVE",
"180 467 OFFCURVE",
"237 467 CURVE SMOOTH",
"283 467 OFFCURVE",
"295 405 OFFCURVE",
"299 353 CURVE",
"429 379 LINE",
"420 497 OFFCURVE",
"348 570 OFFCURVE",
"237 570 CURVE SMOOTH",
"106 570 OFFCURVE",
"25 457 OFFCURVE",
"25 278 CURVE SMOOTH",
"25 101 OFFCURVE",
"95 -13 OFFCURVE",
"237 -13 CURVE SMOOTH"
);
}
);
};
layerId = "849A9C4C-BF7C-40C5-8614-1FD725A2A379";
paths = (
{
closed = 1;
nodes = (
"348 -13 OFFCURVE",
"417 76 OFFCURVE",
"429 182 CURVE",
"301 196 LINE",
"299 154 OFFCURVE",
"285 90 OFFCURVE",
"234 90 CURVE SMOOTH",
"176 90 OFFCURVE",
"158 163 OFFCURVE",
"158 278 CURVE SMOOTH",
"158 388 OFFCURVE",
"180 467 OFFCURVE",
"237 467 CURVE SMOOTH",
"283 467 OFFCURVE",
"304 417 OFFCURVE",
"309 355 CURVE",
"429 379 LINE",
"420 497 OFFCURVE",
"348 570 OFFCURVE",
"237 570 CURVE SMOOTH",
"106 570 OFFCURVE",
"25 457 OFFCURVE",
"25 278 CURVE SMOOTH",
"25 101 OFFCURVE",
"95 -13 OFFCURVE",
"237 -13 CURVE SMOOTH"
);
},
{
closed = 1;
nodes = (
"323 675 LINE",
"259 683 LINE",
"143 -112 LINE",
"207 -120 LINE"
);
}
);
width = 444;
}
);
unicode = 023C;
},
{
glyphname = d;
layers = (
{
anchors = (
{
name = bottom;
position = "{256, 0}";
},
{
name = center;
position = "{350, 644}";
},
{
name = top;
position = "{181, 524}";
},
{
name = topright;
position = "{489, 530}";
}
);
background = {
paths = (
{
closed = 1;
nodes = (
"277 -13 OFFCURVE",
"304 28 OFFCURVE",
"315 70 CURVE",
"350 -6 LINE",
"456 6 LINE",
"456 750 LINE",
"315 732 LINE",
"315 488 LINE",
"295 534 OFFCURVE",
"247 570 OFFCURVE",
"198 570 CURVE SMOOTH",
"87 570 OFFCURVE",
"33 489 OFFCURVE",
"33 281 CURVE SMOOTH",
"33 78 OFFCURVE",
"92 -13 OFFCURVE",
"195 -13 CURVE SMOOTH"
);
},
{
closed = 1;
nodes = (
"178 87 OFFCURVE",
"174 177 OFFCURVE",
"174 281 CURVE SMOOTH",
"174 385 OFFCURVE",
"178 467 OFFCURVE",
"247 467 CURVE SMOOTH",
"274 467 OFFCURVE",
"297 450 OFFCURVE",
"315 422 CURVE",
"315 234 LINE SMOOTH",
"315 117 OFFCURVE",
"281 87 OFFCURVE",
"247 87 CURVE SMOOTH"
);
},
{
closed = 1;
nodes = (
"274 467 OFFCURVE",
"297 450 OFFCURVE",
"315 422 CURVE",
"315 488 LINE",
"295 534 OFFCURVE",
"247 570 OFFCURVE",
"198 570 CURVE SMOOTH",
"87 570 OFFCURVE",
"33 489 OFFCURVE",
"33 281 CURVE SMOOTH",
"33 78 OFFCURVE",
"92 -13 OFFCURVE",
"195 -13 CURVE SMOOTH",
"277 -13 OFFCURVE",
"304 28 OFFCURVE",
"315 70 CURVE",
"315 234 LINE",
"315 117 OFFCURVE",
"281 87 OFFCURVE",
"247 87 CURVE SMOOTH",
"178 87 OFFCURVE",
"174 177 OFFCURVE",
"174 281 CURVE SMOOTH",
"174 385 OFFCURVE",
"178 467 OFFCURVE",
"247 467 CURVE SMOOTH"
);
}
);
};
components = (
{
name = d_bowl;
transform = "{1, 0, 0, 1, 37, 0}";
}
);
guideLines = (
{
angle = 7;
position = "{388, 752}";
}
);
layerId = "849A9C4C-BF7C-40C5-8614-1FD725A2A379";
paths = (
{
closed = 1;
nodes = (
"455 8 LINE",
"455 760 LINE",
"315 743 LINE",
"315 138 LINE",
"327 137 LINE",
"327 -8 LINE"
);
}
);
width = 505;
}
);
leftKerningGroup = round;
rightKerningGroup = straight;
rightMetricsKey = l;
unicode = 0064;
},
{
glyphname = eth;
layers = (
{
background = {
components = (
{
name = o;
transform = "{1, 0, 0, 1, 4, 0}";
}
);
paths = (
{
closed = 1;
nodes = (
"412 -16 OFFCURVE",
"446 194 OFFCURVE",
"446 378 CURVE SMOOTH",
"446 541 OFFCURVE",
"383 766 OFFCURVE",
"218 766 CURVE SMOOTH",
"130 766 OFFCURVE",
"82 752 OFFCURVE",
"-5 680 CURVE",
"48 589 LINE",
"75 614 OFFCURVE",
"141 657 OFFCURVE",
"193 657 CURVE SMOOTH",
"295 657 OFFCURVE",
"301 500 OFFCURVE",
"303 418 CURVE",
"272 441 OFFCURVE",
"228 457 OFFCURVE",
"188 457 CURVE SMOOTH",
"84 457 OFFCURVE",
"20 343 OFFCURVE",
"20 221 CURVE SMOOTH",
"20 101 OFFCURVE",
"105 -16 OFFCURVE",
"229 -16 CURVE SMOOTH"
);
},
{
closed = 1;
nodes = (
"175 112 OFFCURVE",
"161 175 OFFCURVE",
"161 218 CURVE SMOOTH",
"161 276 OFFCURVE",
"180 338 OFFCURVE",
"237 338 CURVE SMOOTH",
"255 338 OFFCURVE",
"271 333 OFFCURVE",
"283 327 CURVE",
"302 317 LINE",
"302 314 OFFCURVE",
"302 312 OFFCURVE",
"303 309 CURVE",
"303 305 OFFCURVE",
"303 300 OFFCURVE",
"303 297 CURVE SMOOTH",
"303 235 OFFCURVE",
"308 112 OFFCURVE",
"235 112 CURVE SMOOTH"
);
}
);
};
guideLines = (
{
angle = 20;
position = "{256, 798}";
},
{
position = "{124, 842}";
showMeasurement = 1;
}
);
layerId = "849A9C4C-BF7C-40C5-8614-1FD725A2A379";
paths = (
{
closed = 1;
nodes = (
"413 -15 OFFCURVE",
"463 138 OFFCURVE",
"463 299 CURVE SMOOTH",
"463 518 OFFCURVE",
"396 662 OFFCURVE",
"246 778 CURVE",
"116 730 LINE",
"264 627 OFFCURVE",
"321 499 OFFCURVE",
"321 418 CURVE SMOOTH",
"321 298 LINE",
"321 189 OFFCURVE",
"315 90 OFFCURVE",
"255 90 CURVE SMOOTH",
"188 90 OFFCURVE",
"178 200 OFFCURVE",
"178 290 CURVE SMOOTH",
"178 377 OFFCURVE",
"195 466 OFFCURVE",
"255 466 CURVE SMOOTH",
"301 466 OFFCURVE",
"321 421 OFFCURVE",
"321 299 CURVE",
"336 299 LINE",
"336 428 OFFCURVE",
"310 571 OFFCURVE",
"209 571 CURVE SMOOTH",
"70 571 OFFCURVE",
"35 419 OFFCURVE",
"35 275 CURVE SMOOTH",
"35 114 OFFCURVE",
"95 -15 OFFCURVE",
"252 -15 CURVE SMOOTH"
);
},
{
closed = 1;
nodes = (
"412 693 LINE",
"387 758 LINE",
"89 644 LINE",
"114 578 LINE"
);
}
);
width = 488;
}
);
leftKerningGroup = round;
leftMetricsKey = d;
rightKerningGroup = ROUND;
rightMetricsKey = o;
unicode = 00F0;
},
{
glyphname = dhook;
layers = (
{
components = (
{
name = d_bowl;
transform = "{1, 0, 0, 1, 37, 0}";
}
);
layerId = "849A9C4C-BF7C-40C5-8614-1FD725A2A379";
paths = (
{
closed = 1;
nodes = (
"455 8 LINE",
"455 609 LINE SMOOTH",
"455 634 OFFCURVE",
"466 646 OFFCURVE",
"483 646 CURVE SMOOTH",
"492 646 OFFCURVE",
"498 645 OFFCURVE",
"505 643 CURVE",
"516 747 LINE",
"496 754 OFFCURVE",
"476 760 OFFCURVE",
"448 760 CURVE SMOOTH",
"357 760 OFFCURVE",
"315 710 OFFCURVE",
"315 621 CURVE SMOOTH",
"315 138 LINE",
"327 137 LINE",
"327 -8 LINE"
);
}
);
width = 511;
}
);
unicode = 0257;
},
{
glyphname = dtail;
layers = (
{
components = (
{
name = d_bowl;
transform = "{1, 0, 0, 1, 37, 0}";
}
);
layerId = "849A9C4C-BF7C-40C5-8614-1FD725A2A379";
paths = (
{
closed = 1;
nodes = (
"477 -185 OFFCURVE",
"497 -179 OFFCURVE",
"517 -172 CURVE",
"506 -68 LINE",
"499 -70 OFFCURVE",
"493 -71 OFFCURVE",
"484 -71 CURVE SMOOTH",
"467 -71 OFFCURVE",
"455 -59 OFFCURVE",
"455 -34 CURVE SMOOTH",
"455 760 LINE",
"315 743 LINE",
"315 -20 LINE SMOOTH",
"315 -129 OFFCURVE",
"366 -185 OFFCURVE",
"449 -185 CURVE SMOOTH"
);
}
);
width = 505;
}
);
unicode = 0256;
},
{
glyphname = e;
layers = (
{
anchors = (
{
name = bottom;
position = "{262, 0}";
},
{
name = ogonek;
position = "{390, 5}";
},
{
name = top;
position = "{236, 563}";
}
);
background = {
components = (
{
name = c;
transform = "{1, 0, 0, 1, -11, 0}";
},
{
name = a;
transform = "{-1, 0, 0, -1, 462, 563}";
}
);
};
guideLines = (
{
angle = -12;
position = "{305, 177}";
},
{
angle = 173.7516;
position = "{427, 152}";
}
);
layerId = "849A9C4C-BF7C-40C5-8614-1FD725A2A379";
paths = (
{
closed = 1;
nodes = (
"335 -13 OFFCURVE",
"406 50 OFFCURVE",
"425 154 CURVE",
"305 179 LINE",
"299 132 OFFCURVE",
"283 90 OFFCURVE",
"238 90 CURVE SMOOTH",
"169 90 OFFCURVE",
"166 198 OFFCURVE",
"166 279 CURVE",
"144 245 LINE",
"426 245 LINE",
"428 279 OFFCURVE",
"429 304 OFFCURVE",
"429 336 CURVE SMOOTH",
"429 469 OFFCURVE",
"371 570 OFFCURVE",
"235 570 CURVE SMOOTH",
"103 570 OFFCURVE",
"25 448 OFFCURVE",
"25 276 CURVE SMOOTH",
"25 113 OFFCURVE",
"85 -13 OFFCURVE",
"236 -13 CURVE SMOOTH"
);
},
{
closed = 1;
nodes = (
"166 367 OFFCURVE",
"175 469 OFFCURVE",
"238 469 CURVE SMOOTH",
"288 469 OFFCURVE",
"300 400 OFFCURVE",
"300 342 CURVE SMOOTH",
"300 290 LINE",
"322 324 LINE",
"144 324 LINE",
"166 290 LINE"
);
}
);
width = 454;
}
);
leftKerningGroup = round;
leftMetricsKey = o;
rightKerningGroup = round;
unicode = 0065;
},
{
glyphname = eogonek;
layers = (
{
background = {
paths = (
{
closed = 1;
nodes = (
"219 -15 OFFCURVE",
"178 -55 OFFCURVE",
"178 -106 CURVE SMOOTH",
"178 -171 OFFCURVE",
"224 -210 OFFCURVE",
"289 -210 CURVE SMOOTH",
"346 -210 OFFCURVE",
"381 -181 OFFCURVE",
"411 -137 CURVE",
"373 -103 LINE",
"363 -115 OFFCURVE",
"349 -128 OFFCURVE",
"325 -128 CURVE SMOOTH",
"293 -128 OFFCURVE",
"275 -103 OFFCURVE",
"275 -71 CURVE SMOOTH",
"275 -36 OFFCURVE",
"291 -11 OFFCURVE",
"320 4 CURVE SMOOTH",
"389 38 OFFCURVE",
"414 97 OFFCURVE",
"423 152 CURVE",
"305 177 LINE",
"297 132 OFFCURVE",
"280 90 OFFCURVE",
"240 90 CURVE SMOOTH",
"185 90 OFFCURVE",
"167 162 OFFCURVE",
"165 248 CURVE",
"425 248 LINE",
"427 284 OFFCURVE",
"428 307 OFFCURVE",
"428 336 CURVE SMOOTH",
"428 469 OFFCURVE",
"370 570 OFFCURVE",
"234 570 CURVE SMOOTH",
"102 570 OFFCURVE",
"24 448 OFFCURVE",
"24 276 CURVE SMOOTH",
"24 23 OFFCURVE",
"159 -13 OFFCURVE",
"251 -11 CURVE",
"251 -5 LINE"
);
},
{
closed = 1;
nodes = (
"170 412 OFFCURVE",
"195 464 OFFCURVE",
"236 464 CURVE SMOOTH",
"280 464 OFFCURVE",
"301 416 OFFCURVE",
"301 352 CURVE SMOOTH",
"301 330 LINE",
"167 330 LINE"
);
}
);
};
components = (
{
name = e;
},
{
name = ogonekcomb;
transform = "{1, 0, 0, 1, 281, 50}";
}
);
guideLines = (
{
angle = -78;
position = "{376, -91}";
}
);
layerId = "849A9C4C-BF7C-40C5-8614-1FD725A2A379";
width = 454;
}
);
leftKerningGroup = round;
rightKerningGroup = round;
unicode = 0119;
},
{
glyphname = eopen;
layers = (
{
background = {
anchors = (
{
name = bottom;
position = "{280, 0}";
},
{
name = ogonek;
position = "{408, 5}";
},
{
name = top;
position = "{254, 563}";
}
);
paths = (
{
closed = 1;
nodes = (
"353 -13 OFFCURVE",
"424 50 OFFCURVE",
"443 154 CURVE",
"323 179 LINE",
"317 132 OFFCURVE",
"301 90 OFFCURVE",
"256 90 CURVE SMOOTH",
"187 90 OFFCURVE",
"184 198 OFFCURVE",
"184 279 CURVE",
"162 245 LINE",
"444 245 LINE",
"446 279 OFFCURVE",
"447 304 OFFCURVE",
"447 336 CURVE SMOOTH",
"447 469 OFFCURVE",
"389 570 OFFCURVE",
"253 570 CURVE SMOOTH",
"121 570 OFFCURVE",
"43 448 OFFCURVE",
"43 276 CURVE SMOOTH",
"43 113 OFFCURVE",
"103 -13 OFFCURVE",
"254 -13 CURVE SMOOTH"
);
},
{
closed = 1;
nodes = (
"184 367 OFFCURVE",
"193 469 OFFCURVE",
"256 469 CURVE SMOOTH",
"306 469 OFFCURVE",
"318 400 OFFCURVE",
"318 342 CURVE SMOOTH",
"318 290 LINE",
"340 324 LINE",
"162 324 LINE",
"184 290 LINE"
);
}
);
};
guideLines = (
{
angle = 10.7131;
position = "{375, 391}";
}
);
layerId = "849A9C4C-BF7C-40C5-8614-1FD725A2A379";
paths = (
{
closed = 1;
nodes = (
"351 -13 OFFCURVE",
"433 57 OFFCURVE",
"437 155 CURVE",
"324 179 LINE",
"321 127 OFFCURVE",
"292 90 OFFCURVE",
"239 90 CURVE SMOOTH",
"192 90 OFFCURVE",
"168 119 OFFCURVE",
"168 158 CURVE SMOOTH",
"168 210 OFFCURVE",
"210 241 OFFCURVE",
"297 241 CURVE",
"297 327 LINE",
"216 327 OFFCURVE",
"178 353 OFFCURVE",
"178 401 CURVE SMOOTH",
"178 439 OFFCURVE",
"202 467 OFFCURVE",
"243 467 CURVE SMOOTH",
"290 467 OFFCURVE",
"315 431 OFFCURVE",
"319 380 CURVE",
"432 402 LINE",
"423 504 OFFCURVE",
"350 570 OFFCURVE",
"235 570 CURVE SMOOTH",
"124 570 OFFCURVE",
"38 519 OFFCURVE",
"38 420 CURVE SMOOTH",
"38 349 OFFCURVE",
"82 281 OFFCURVE",
"199 276 CURVE",
"196 297 LINE",
"83 288 OFFCURVE",
"28 228 OFFCURVE",
"28 149 CURVE SMOOTH",
"28 56 OFFCURVE",
"105 -13 OFFCURVE",
"231 -13 CURVE SMOOTH"
);
}
);
width = 452;
}
);
unicode = 025B;
},
{
glyphname = esh;
layers = (
{
layerId = "849A9C4C-BF7C-40C5-8614-1FD725A2A379";
paths = (
{
closed = 1;
nodes = (
"170 -185 OFFCURVE",
"217 -113 OFFCURVE",
"217 -10 CURVE SMOOTH",
"217 607 LINE SMOOTH",
"217 641 OFFCURVE",
"234 656 OFFCURVE",
"264 656 CURVE SMOOTH",
"279 656 OFFCURVE",
"292 654 OFFCURVE",
"311 649 CURVE",
"318 747 LINE",
"293 758 OFFCURVE",
"261 765 OFFCURVE",
"228 765 CURVE SMOOTH",
"124 765 OFFCURVE",
"77 693 OFFCURVE",
"77 590 CURVE SMOOTH",
"77 -27 LINE SMOOTH",
"77 -61 OFFCURVE",
"60 -76 OFFCURVE",
"30 -76 CURVE SMOOTH",
"15 -76 OFFCURVE",
"2 -74 OFFCURVE",
"-17 -69 CURVE",
"-24 -167 LINE",
"1 -178 OFFCURVE",
"33 -185 OFFCURVE",
"66 -185 CURVE SMOOTH"
);
}
);
width = 294;
}
);
unicode = 0283;
},
{
glyphname = estroke;
layers = (
{
components = (
{
name = e;
}
);
layerId = "849A9C4C-BF7C-40C5-8614-1FD725A2A379";
paths = (
{
closed = 1;
nodes = (
"228 49 LINE",
"159 49 LINE",
"135 -112 LINE",
"203 -120 LINE"
);
},
{
closed = 1;
nodes = (
"296 517 LINE",
"319 675 LINE",
"251 683 LINE",
"227 517 LINE"
);
}
);
width = 454;
}
);
unicode = 0247;
},
{
glyphname = eturned;
layers = (
{
layerId = "849A9C4C-BF7C-40C5-8614-1FD725A2A379";
paths = (
{
closed = 1;
nodes = (
"351 -7 OFFCURVE",
"429 115 OFFCURVE",
"429 287 CURVE SMOOTH",
"429 450 OFFCURVE",
"369 576 OFFCURVE",
"218 576 CURVE SMOOTH",
"119 576 OFFCURVE",
"48 513 OFFCURVE",
"29 409 CURVE",
"149 384 LINE",
"155 431 OFFCURVE",
"171 473 OFFCURVE",
"216 473 CURVE SMOOTH",
"285 473 OFFCURVE",
"288 365 OFFCURVE",
"288 284 CURVE",
"310 318 LINE",
"28 318 LINE",
"26 284 OFFCURVE",
"25 259 OFFCURVE",
"25 227 CURVE SMOOTH",
"25 94 OFFCURVE",
"83 -7 OFFCURVE",
"219 -7 CURVE SMOOTH"
);
},
{
closed = 1;
nodes = (
"166 94 OFFCURVE",
"154 163 OFFCURVE",
"154 221 CURVE SMOOTH",
"154 273 LINE",
"132 239 LINE",
"310 239 LINE",
"288 273 LINE",
"288 196 OFFCURVE",
"279 94 OFFCURVE",
"216 94 CURVE SMOOTH"
);
}
);
width = 454;
}
);
unicode = 01DD;
},
{
glyphname = schwa;
layers = (
{
layerId = "849A9C4C-BF7C-40C5-8614-1FD725A2A379";
paths = (
{
closed = 1;
nodes = (
"356 -12 OFFCURVE",
"434 107 OFFCURVE",
"434 280 CURVE SMOOTH",
"434 462 OFFCURVE",
"366 571 OFFCURVE",
"223 571 CURVE SMOOTH",
"124 571 OFFCURVE",
"49 503 OFFCURVE",
"30 402 CURVE",
"153 379 LINE",
"159 422 OFFCURVE",
"179 467 OFFCURVE",
"228 467 CURVE SMOOTH",
"278 467 OFFCURVE",
"299 413 OFFCURVE",
"299 296 CURVE",
"32 296 LINE",
"29 277 OFFCURVE",
"28 248 OFFCURVE",
"28 215 CURVE SMOOTH",
"28 89 OFFCURVE",
"90 -12 OFFCURVE",
"223 -12 CURVE SMOOTH"
);
},
{
closed = 1;
nodes = (
"179 92 OFFCURVE",
"151 142 OFFCURVE",
"151 206 CURVE SMOOTH",
"151 209 OFFCURVE",
"151 214 OFFCURVE",
"152 220 CURVE",
"297 220 LINE",
"297 150 OFFCURVE",
"276 92 OFFCURVE",
"225 92 CURVE SMOOTH"
);
}
);
width = 471;
}
);
leftKerningGroup = round;
rightKerningGroup = round;
unicode = 0259;
},
{
glyphname = ezh;
layers = (
{
anchors = (
{
name = bottom;
position = "{235, 0}";
},
{
name = top;
position = "{235, 563}";
}
);
background = {
paths = (
{
closed = 1;
nodes = (
"359 -181 OFFCURVE",
"441 -81 OFFCURVE",
"441 45 CURVE SMOOTH",
"441 155 OFFCURVE",
"376 261 OFFCURVE",
"241 271 CURVE",
"253 209 LINE",
"428 451 LINE",
"428 563 LINE",
"46 563 LINE",
"31 441 LINE",
"337 441 LINE",
"304 496 LINE",
"147 279 LINE",
"147 184 LINE",
"239 184 OFFCURVE",
"304 135 OFFCURVE",
"304 48 CURVE SMOOTH",
"304 -12 OFFCURVE",
"283 -63 OFFCURVE",
"221 -63 CURVE SMOOTH",
"167 -63 OFFCURVE",
"141 -15 OFFCURVE",
"141 90 CURVE",
"10 65 LINE",
"10 -100 OFFCURVE",
"100 -181 OFFCURVE",
"218 -181 CURVE SMOOTH"
);
}
);
};
layerId = "849A9C4C-BF7C-40C5-8614-1FD725A2A379";
paths = (
{
closed = 1;
nodes = (
"359 -175 OFFCURVE",
"441 -81 OFFCURVE",
"441 45 CURVE SMOOTH",
"441 155 OFFCURVE",
"376 261 OFFCURVE",
"241 271 CURVE",
"253 209 LINE",
"428 451 LINE",
"428 563 LINE",
"46 563 LINE",
"33 458 LINE",
"339 458 LINE",
"304 496 LINE",
"147 279 LINE",
"147 184 LINE",
"239 184 OFFCURVE",
"298 135 OFFCURVE",
"298 43 CURVE SMOOTH",
"298 -22 OFFCURVE",
"277 -72 OFFCURVE",
"218 -72 CURVE SMOOTH",
"167 -72 OFFCURVE",
"138 -25 OFFCURVE",
"138 90 CURVE",
"10 65 LINE",
"10 -100 OFFCURVE",
"100 -175 OFFCURVE",
"218 -175 CURVE SMOOTH"
);
}
);
width = 470;
}
);
unicode = 0292;
},
{
glyphname = ezhreversed;
layers = (
{
guideLines = (
{
angle = 82.9422;
position = "{432, 511}";
}
);
layerId = "849A9C4C-BF7C-40C5-8614-1FD725A2A379";
paths = (
{
closed = 1;
nodes = (
"370 -175 OFFCURVE",
"460 -100 OFFCURVE",
"460 65 CURVE",
"333 79 LINE",
"333 -25 OFFCURVE",
"303 -72 OFFCURVE",
"252 -72 CURVE SMOOTH",
"193 -72 OFFCURVE",
"172 -22 OFFCURVE",
"172 43 CURVE SMOOTH",
"172 135 OFFCURVE",
"231 184 OFFCURVE",
"323 184 CURVE",
"323 279 LINE",
"166 496 LINE",
"131 458 LINE",
"425 458 LINE",
"438 563 LINE",
"42 563 LINE",
"42 451 LINE",
"217 209 LINE",
"229 271 LINE",
"94 261 OFFCURVE",
"29 155 OFFCURVE",
"29 45 CURVE SMOOTH",
"29 -81 OFFCURVE",
"111 -175 OFFCURVE",
"252 -175 CURVE SMOOTH"
);
}
);
width = 470;
}
);
unicode = 01B9;
},
{
glyphname = f;
layers = (
{
anchors = (
{
name = bottom;
position = "{160, 0}";
},
{
name = top;
position = "{210, 750}";
}
);
background = {
components = (
{
name = t;
}
);
};
guideLines = (
{
angle = 83;
position = "{6, 460}";
},
{
angle = 97;
position = "{321, 566}";
},
{
angle = 7;
position = "{220, 0}";
}
);
layerId = "849A9C4C-BF7C-40C5-8614-1FD725A2A379";
paths = (
{
closed = 1;
nodes = (
"220 0 LINE",
"220 562 LINE SMOOTH",
"220 621 OFFCURVE",
"233 651 OFFCURVE",
"274 651 CURVE SMOOTH",
"292 651 OFFCURVE",
"307 649 OFFCURVE",
"326 644 CURVE",
"333 742 LINE",
"298 753 OFFCURVE",
"264 760 OFFCURVE",
"221 760 CURVE SMOOTH",
"127 760 OFFCURVE",
"80 688 OFFCURVE",
"80 585 CURVE SMOOTH",
"80 0 LINE"
);
},
{
closed = 1;
nodes = (
"313 458 LINE",
"326 563 LINE",
"15 563 LINE",
"15 458 LINE"
);
}
);
width = 340;
}
);
leftKerningGroup = open;
rightKerningGroup = open;
unicode = 0066;
},
{
glyphname = g;
layers = (
{
anchors = (
{
name = bottom;
position = "{258, 0}";
},
{
name = top;
position = "{239, 563}";
}
);
background = {
paths = (
{
closed = 1;
nodes = (
"372 -182 OFFCURVE",
"475 -128 OFFCURVE",
"475 -8 CURVE SMOOTH",
"475 82 OFFCURVE",
"423 133 OFFCURVE",
"327 140 CURVE SMOOTH",
"215 149 LINE SMOOTH",
"180 152 OFFCURVE",
"161 168 OFFCURVE",
"161 194 CURVE SMOOTH",
"161 216 OFFCURVE",
"184 233 OFFCURVE",
"215 234 CURVE",
"167 261 LINE",
"110 250 OFFCURVE",
"42 213 OFFCURVE",
"42 140 CURVE SMOOTH",
"42 72 OFFCURVE",
"86 34 OFFCURVE",
"165 28 CURVE SMOOTH",
"273 20 LINE SMOOTH",
"317 17 OFFCURVE",
"349 4 OFFCURVE",
"349 -28 CURVE SMOOTH",
"349 -66 OFFCURVE",
"306 -81 OFFCURVE",
"239 -81 CURVE SMOOTH",
"180 -81 OFFCURVE",
"132 -61 OFFCURVE",
"132 -15 CURVE SMOOTH",
"132 24 OFFCURVE",
"158 51 OFFCURVE",
"196 52 CURVE",
"141 62 LINE",
"71 57 OFFCURVE",
"15 17 OFFCURVE",
"15 -51 CURVE SMOOTH",
"15 -141 OFFCURVE",
"92 -182 OFFCURVE",
"229 -182 CURVE SMOOTH"
);
},
{
closed = 1;
nodes = (
"346 215 OFFCURVE",
"444 275 OFFCURVE",
"444 389 CURVE SMOOTH",
"444 501 OFFCURVE",
"346 570 OFFCURVE",
"238 570 CURVE SMOOTH",
"132 570 OFFCURVE",
"32 501 OFFCURVE",
"32 389 CURVE SMOOTH",
"32 275 OFFCURVE",
"132 215 OFFCURVE",
"238 215 CURVE SMOOTH"
);
},
{
closed = 1;
nodes = (
"198 297 OFFCURVE",
"176 340 OFFCURVE",
"176 390 CURVE SMOOTH",
"176 439 OFFCURVE",
"198 489 OFFCURVE",
"238 489 CURVE SMOOTH",
"280 489 OFFCURVE",
"300 439 OFFCURVE",
"300 389 CURVE SMOOTH",
"300 340 OFFCURVE",
"279 297 OFFCURVE",
"238 297 CURVE SMOOTH"
);
},
{
closed = 1;
nodes = (
"410 531 OFFCURVE",
"450 555 OFFCURVE",
"492 566 CURVE",
"455 680 LINE",
"389 660 OFFCURVE",
"345 581 OFFCURVE",
"344 500 CURVE",
"385 500 LINE"
);
}
);
};
guideLines = (
{
angle = 108;
position = "{492, 571}";
}
);
layerId = "849A9C4C-BF7C-40C5-8614-1FD725A2A379";
paths = (
{
closed = 1;
nodes = (
"372 -182 OFFCURVE",
"475 -128 OFFCURVE",
"475 -8 CURVE SMOOTH",
"475 82 OFFCURVE",
"423 132 OFFCURVE",
"327 140 CURVE SMOOTH",
"215 149 LINE SMOOTH",
"180 152 OFFCURVE",
"161 168 OFFCURVE",
"161 194 CURVE SMOOTH",
"161 216 OFFCURVE",
"184 233 OFFCURVE",
"215 234 CURVE",
"167 261 LINE",
"110 250 OFFCURVE",
"42 213 OFFCURVE",
"42 140 CURVE SMOOTH",
"42 72 OFFCURVE",
"86 34 OFFCURVE",
"165 28 CURVE SMOOTH",
"273 20 LINE SMOOTH",
"317 17 OFFCURVE",
"349 4 OFFCURVE",
"349 -28 CURVE SMOOTH",
"349 -66 OFFCURVE",
"306 -81 OFFCURVE",
"239 -81 CURVE SMOOTH",
"180 -81 OFFCURVE",
"132 -61 OFFCURVE",
"132 -15 CURVE SMOOTH",
"132 24 OFFCURVE",
"158 50 OFFCURVE",
"196 52 CURVE",
"141 62 LINE",
"71 57 OFFCURVE",
"15 17 OFFCURVE",
"15 -51 CURVE SMOOTH",
"15 -141 OFFCURVE",
"92 -182 OFFCURVE",
"229 -182 CURVE SMOOTH"
);
},
{
closed = 1;
nodes = (
"346 215 OFFCURVE",
"444 275 OFFCURVE",
"444 389 CURVE SMOOTH",
"444 501 OFFCURVE",
"346 570 OFFCURVE",
"238 570 CURVE SMOOTH",
"132 570 OFFCURVE",
"32 501 OFFCURVE",
"32 389 CURVE SMOOTH",
"32 275 OFFCURVE",
"132 215 OFFCURVE",
"238 215 CURVE SMOOTH"
);
},
{
closed = 1;
nodes = (
"198 297 OFFCURVE",
"176 335 OFFCURVE",
"176 390 CURVE SMOOTH",
"176 454 OFFCURVE",
"198 489 OFFCURVE",
"238 489 CURVE SMOOTH",
"280 489 OFFCURVE",
"300 454 OFFCURVE",
"300 389 CURVE SMOOTH",
"300 335 OFFCURVE",
"279 297 OFFCURVE",
"238 297 CURVE SMOOTH"
);
},
{
closed = 1;
nodes = (
"395 490 LINE",
"420 521 OFFCURVE",
"460 545 OFFCURVE",
"502 556 CURVE",
"465 670 LINE",
"399 650 OFFCURVE",
"354 571 OFFCURVE",
"354 490 CURVE"
);
}
);
width = 477;
}
);
leftKerningGroup = small;
rightKerningGroup = small;
unicode = 0067;
},
{
glyphname = "gamma-latin";
layers = (
{
background = {
components = (
{
name = v;
}
);
};
layerId = "849A9C4C-BF7C-40C5-8614-1FD725A2A379";
paths = (
{
closed = 1;
nodes = (
"371 -185 OFFCURVE",
"440 -101 OFFCURVE",
"440 -8 CURVE SMOOTH",
"440 61 OFFCURVE",
"412 120 OFFCURVE",
"369 194 CURVE SMOOTH",
"154 569 LINE",
"22 553 LINE",
"270 150 LINE SMOOTH",
"307 90 OFFCURVE",
"321 35 OFFCURVE",
"321 -4 CURVE SMOOTH",
"321 -46 OFFCURVE",
"298 -84 OFFCURVE",
"246 -84 CURVE",
"246 -185 LINE"
);
},
{
closed = 1;
nodes = (
"246 -84 LINE",
"194 -84 OFFCURVE",
"171 -46 OFFCURVE",
"171 -4 CURVE SMOOTH",
"171 35 OFFCURVE",
"185 73 OFFCURVE",
"220 140 CURVE SMOOTH",
"443 563 LINE",
"321 563 LINE",
"121 199 LINE SMOOTH",
"71 107 OFFCURVE",
"52 51 OFFCURVE",
"52 -8 CURVE SMOOTH",
"52 -101 OFFCURVE",
"121 -185 OFFCURVE",
"246 -185 CURVE"
);
}
);
width = 465;
}
);
unicode = 0263;
},
{
glyphname = gcommaaccent;
layers = (
{
background = {
paths = (
{
closed = 1;
nodes = (
"362 -175 OFFCURVE",
"514 -138 OFFCURVE",
"514 -10 CURVE SMOOTH",
"514 35 OFFCURVE",
"499 71 OFFCURVE",
"469 97 CURVE SMOOTH",
"440 123 OFFCURVE",
"399 133 OFFCURVE",
"349 137 CURVE SMOOTH",
"216 147 LINE",
"196 150 OFFCURVE",
"181 164 OFFCURVE",
"181 183 CURVE SMOOTH",
"181 200 OFFCURVE",
"183 211 OFFCURVE",
"188 216 CURVE SMOOTH",
"194 221 OFFCURVE",
"204 225 OFFCURVE",
"217 229 CURVE",
"231 229 OFFCURVE",
"250 227 OFFCURVE",
"276 227 CURVE",
"308 223 OFFCURVE",
"336 227 OFFCURVE",
"360 237 CURVE SMOOTH",
"384 249 OFFCURVE",
"405 263 OFFCURVE",
"421 280 CURVE SMOOTH",
"454 315 OFFCURVE",
"470 359 OFFCURVE",
"470 400 CURVE SMOOTH",
"470 417 OFFCURVE",
"465 438 OFFCURVE",
"459 455 CURVE SMOOTH",
"456 464 OFFCURVE",
"453 474 OFFCURVE",
"449 484 CURVE",
"451 485 OFFCURVE",
"454 486 OFFCURVE",
"458 488 CURVE SMOOTH",
"463 490 OFFCURVE",
"469 492 OFFCURVE",
"476 492 CURVE SMOOTH",
"484 492 OFFCURVE",
"500 488 OFFCURVE",
"513 482 CURVE SMOOTH",
"538 473 LINE",
"538 591 LINE",
"532 592 LINE SMOOTH",
"529 593 OFFCURVE",
"526 593 OFFCURVE",
"522 593 CURVE SMOOTH",
"471 593 OFFCURVE",
"421 546 OFFCURVE",
"401 528 CURVE",
"374 546 OFFCURVE",
"331 570 OFFCURVE",
"259 570 CURVE SMOOTH",
"159 570 OFFCURVE",
"52 510 OFFCURVE",
"52 398 CURVE SMOOTH",
"52 347 OFFCURVE",
"75 311 OFFCURVE",
"97 286 CURVE",
"110 272 OFFCURVE",
"125 260 OFFCURVE",
"142 250 CURVE",
"122 240 OFFCURVE",
"104 229 OFFCURVE",
"89 215 CURVE SMOOTH",
"63 193 OFFCURVE",
"36 162 OFFCURVE",
"36 125 CURVE SMOOTH",
"36 98 OFFCURVE",
"57 79 OFFCURVE",
"78 67 CURVE SMOOTH",
"90 60 OFFCURVE",
"104 55 OFFCURVE",
"120 50 CURVE",
"102 43 OFFCURVE",
"85 34 OFFCURVE",
"71 23 CURVE SMOOTH",
"46 5 OFFCURVE",
"21 -22 OFFCURVE",
"21 -60 CURVE SMOOTH",
"21 -127 OFFCURVE",
"104 -175 OFFCURVE",
"257 -175 CURVE SMOOTH"
);
},
{
closed = 1;
nodes = (
"183 -71 OFFCURVE",
"149 -50 OFFCURVE",
"149 -18 CURVE SMOOTH",
"149 16 OFFCURVE",
"172 32 OFFCURVE",
"194 39 CURVE",
"276 39 LINE SMOOTH",
"305 39 OFFCURVE",
"377 35 OFFCURVE",
"377 -8 CURVE SMOOTH",
"377 -47 OFFCURVE",
"341 -71 OFFCURVE",
"274 -71 CURVE SMOOTH"
);
},
{
closed = 1;
nodes = (
"203 307 OFFCURVE",
"193 360 OFFCURVE",
"193 403 CURVE SMOOTH",
"193 440 OFFCURVE",
"213 485 OFFCURVE",
"258 485 CURVE SMOOTH",
"292 485 OFFCURVE",
"321 458 OFFCURVE",
"321 400 CURVE SMOOTH",
"321 340 OFFCURVE",
"297 307 OFFCURVE",
"259 307 CURVE SMOOTH"
);
},
{
closed = 1;
nodes = (
"367 642 LINE",
"367 797 LINE",
"272 797 LINE",
"273 806 OFFCURVE",
"276 813 OFFCURVE",
"281 820 CURVE SMOOTH",
"291 832 OFFCURVE",
"308 844 OFFCURVE",
"343 844 CURVE",
"343 938 LINE",
"316 936 OFFCURVE",
"293 930 OFFCURVE",
"272 920 CURVE SMOOTH",
"237 902 OFFCURVE",
"202 868 OFFCURVE",
"202 797 CURVE SMOOTH",
"202 636 LINE"
);
}
);
};
components = (
{
name = g;
},
{
name = commaturnedabovecomb;
transform = "{1, 0, 0, 1, 240, 0}";
}
);
layerId = "849A9C4C-BF7C-40C5-8614-1FD725A2A379";
width = 477;
}
);
leftKerningGroup = small;
rightKerningGroup = small;
unicode = 0123;
},
{
glyphname = ghook;
layers = (
{
layerId = "849A9C4C-BF7C-40C5-8614-1FD725A2A379";
paths = (
{
closed = 1;
nodes = (
"346 215 OFFCURVE",
"444 275 OFFCURVE",
"444 389 CURVE SMOOTH",
"444 422 OFFCURVE",
"440 454 OFFCURVE",
"433 484 CURVE SMOOTH",
"426 512 OFFCURVE",
"423 538 OFFCURVE",
"423 563 CURVE SMOOTH",
"423 597 OFFCURVE",
"433 621 OFFCURVE",
"462 621 CURVE SMOOTH",
"474 621 OFFCURVE",
"488 616 OFFCURVE",
"502 602 CURVE",
"539 703 LINE",
"520 723 OFFCURVE",
"493 739 OFFCURVE",
"454 739 CURVE SMOOTH",
"376 739 OFFCURVE",
"318 674 OFFCURVE",
"318 598 CURVE SMOOTH",
"318 556 OFFCURVE",
"325 535 OFFCURVE",
"342 514 CURVE",
"359 537 LINE",
"324 559 OFFCURVE",
"282 570 OFFCURVE",
"238 570 CURVE SMOOTH",
"132 570 OFFCURVE",
"32 501 OFFCURVE",
"32 389 CURVE SMOOTH",
"32 275 OFFCURVE",
"132 215 OFFCURVE",
"238 215 CURVE SMOOTH"
);
},
{
closed = 1;
nodes = (
"372 -182 OFFCURVE",
"475 -128 OFFCURVE",
"475 -8 CURVE SMOOTH",
"475 82 OFFCURVE",
"423 132 OFFCURVE",
"327 140 CURVE SMOOTH",
"215 149 LINE SMOOTH",
"180 152 OFFCURVE",
"161 168 OFFCURVE",
"161 194 CURVE SMOOTH",
"161 216 OFFCURVE",
"184 233 OFFCURVE",
"215 234 CURVE",
"167 261 LINE",
"110 250 OFFCURVE",
"42 213 OFFCURVE",
"42 140 CURVE SMOOTH",
"42 72 OFFCURVE",
"86 34 OFFCURVE",
"165 28 CURVE SMOOTH",
"273 20 LINE SMOOTH",
"317 17 OFFCURVE",
"349 4 OFFCURVE",
"349 -28 CURVE SMOOTH",
"349 -66 OFFCURVE",
"306 -81 OFFCURVE",
"239 -81 CURVE SMOOTH",
"180 -81 OFFCURVE",
"132 -61 OFFCURVE",
"132 -15 CURVE SMOOTH",
"132 24 OFFCURVE",
"158 50 OFFCURVE",
"196 52 CURVE",
"141 62 LINE",
"71 57 OFFCURVE",
"15 17 OFFCURVE",
"15 -51 CURVE SMOOTH",
"15 -141 OFFCURVE",
"92 -182 OFFCURVE",
"229 -182 CURVE SMOOTH"
);
},
{
closed = 1;
nodes = (
"198 297 OFFCURVE",
"176 335 OFFCURVE",
"176 390 CURVE SMOOTH",
"176 454 OFFCURVE",
"198 489 OFFCURVE",
"238 489 CURVE SMOOTH",
"280 489 OFFCURVE",
"300 454 OFFCURVE",
"300 389 CURVE SMOOTH",
"300 335 OFFCURVE",
"279 297 OFFCURVE",
"238 297 CURVE SMOOTH"
);
}
);
width = 507;
}
);
unicode = 0260;
},
{
glyphname = glottalstop;
layers = (
{
layerId = "849A9C4C-BF7C-40C5-8614-1FD725A2A379";
paths = (
{
closed = 1;
nodes = (
"292 16 LINE",
"281 36 OFFCURVE",
"266 73 OFFCURVE",
"266 126 CURVE SMOOTH",
"266 210 OFFCURVE",
"292 247 OFFCURVE",
"353 318 CURVE SMOOTH",
"400 373 OFFCURVE",
"441 461 OFFCURVE",
"441 549 CURVE SMOOTH",
"441 687 OFFCURVE",
"359 764 OFFCURVE",
"223 764 CURVE SMOOTH",
"100 764 OFFCURVE",
"14 685 OFFCURVE",
"14 553 CURVE",
"144 528 LINE",
"144 621 OFFCURVE",
"172 661 OFFCURVE",
"225 661 CURVE SMOOTH",
"278 661 OFFCURVE",
"298 621 OFFCURVE",
"298 566 CURVE SMOOTH",
"298 504 OFFCURVE",
"272 444 OFFCURVE",
"211 372 CURVE SMOOTH",
"150 300 OFFCURVE",
"126 223 OFFCURVE",
"126 138 CURVE SMOOTH",
"126 73 OFFCURVE",
"146 26 OFFCURVE",
"169 -10 CURVE"
);
}
);
width = 454;
}
);
unicode = 0294;
},
{
glyphname = glottalstopsmall;
layers = (
{
layerId = "849A9C4C-BF7C-40C5-8614-1FD725A2A379";
paths = (
{
closed = 1;
nodes = (
"282 14 LINE",
"272 28 OFFCURVE",
"266 52 OFFCURVE",
"266 75 CURVE SMOOTH",
"266 125 OFFCURVE",
"298 162 OFFCURVE",
"341 206 CURVE SMOOTH",
"402 268 OFFCURVE",
"421 325 OFFCURVE",
"421 391 CURVE SMOOTH",
"421 500 OFFCURVE",
"334 573 OFFCURVE",
"219 573 CURVE SMOOTH",
"95 573 OFFCURVE",
"14 502 OFFCURVE",
"14 382 CURVE",
"133 357 LINE",
"138 410 OFFCURVE",
"153 457 OFFCURVE",
"217 457 CURVE SMOOTH",
"258 457 OFFCURVE",
"285 429 OFFCURVE",
"285 381 CURVE SMOOTH",
"285 328 OFFCURVE",
"254 288 OFFCURVE",
"200 234 CURVE SMOOTH",
"157 191 OFFCURVE",
"134 146 OFFCURVE",
"134 79 CURVE SMOOTH",
"134 42 OFFCURVE",
"144 11 OFFCURVE",
"159 -12 CURVE"
);
}
);
width = 434;
}
);
unicode = 0242;
},
{
glyphname = gmacron;
layers = (
{
components = (
{
name = g;
}
);
layerId = "849A9C4C-BF7C-40C5-8614-1FD725A2A379";
paths = (
{
closed = 1;
nodes = (
"339 620 LINE",
"339 714 LINE",
"99 714 LINE",
"99 620 LINE"
);
}
);
width = 477;
}
);
unicode = 1E21;
},
{
glyphname = gstroke;
layers = (
{
components = (
{
name = g;
transform = "{1, 0, 0, 1, 36, 0}";
}
);
layerId = "849A9C4C-BF7C-40C5-8614-1FD725A2A379";
paths = (
{
closed = 1;
nodes = (
"143 -75 LINE",
"143 15 LINE",
"10 15 LINE",
"10 -75 LINE"
);
},
{
closed = 1;
nodes = (
"561 -75 LINE",
"561 15 LINE",
"434 15 LINE",
"434 -75 LINE"
);
}
);
width = 571;
}
);
unicode = 01E5;
},
{
glyphname = h;
layers = (
{
anchors = (
{
name = bottom;
position = "{259, 0}";
},
{
name = center;
position = "{259, 281}";
},
{
name = top;
position = "{118, 750}";
}
);
background = {
paths = (
{
closed = 1;
nodes = (
"190 6 LINE",
"190 412 LINE",
"229 435 OFFCURVE",
"256 450 OFFCURVE",
"282 450 CURVE SMOOTH",
"310 450 OFFCURVE",
"331 429 OFFCURVE",
"331 377 CURVE SMOOTH",
"331 -6 LINE",
"471 6 LINE",
"471 428 LINE SMOOTH",
"471 515 OFFCURVE",
"421 570 OFFCURVE",
"351 570 CURVE SMOOTH",
"303 570 OFFCURVE",
"249 545 OFFCURVE",
"190 491 CURVE",
"190 760 LINE",
"50 742 LINE",
"50 -6 LINE"
);
}
);
};
components = (
{
name = n_arch;
transform = "{1, 0, 0, 1, 190, 0}";
}
);
guideLines = (
{
angle = 7;
position = "{120, 752}";
}
);
layerId = "849A9C4C-BF7C-40C5-8614-1FD725A2A379";
paths = (
{
closed = 1;
nodes = (
"190 0 LINE",
"190 760 LINE",
"50 743 LINE",
"50 0 LINE"
);
}
);
width = 509;
}
);
leftKerningGroup = straight;
leftMetricsKey = n;
rightKerningGroup = straight;
rightMetricsKey = n;
unicode = 0068;
},
{
glyphname = hbar;
layers = (
{
components = (
{
name = h;
transform = "{1, 0, 0, 1, 1, 0}";
}
);
guideLines = (
{
angle = 83;
position = "{312, 687}";
}
);
layerId = "849A9C4C-BF7C-40C5-8614-1FD725A2A379";
paths = (
{
closed = 1;
nodes = (
"302 603 LINE",
"312 693 LINE",
"-16 693 LINE",
"-16 603 LINE"
);
}
);
width = 539;
}
);
leftKerningGroup = straight;
rightKerningGroup = straight;
unicode = 0127;
},
{
glyphname = heng;
layers = (
{
layerId = "849A9C4C-BF7C-40C5-8614-1FD725A2A379";
paths = (
{
closed = 1;
nodes = (
"413 -185 OFFCURVE",
"464 -129 OFFCURVE",
"464 -20 CURVE SMOOTH",
"464 404 LINE SMOOTH",
"464 521 OFFCURVE",
"413 573 OFFCURVE",
"334 573 CURVE SMOOTH",
"257 573 OFFCURVE",
"196 526 OFFCURVE",
"180 418 CURVE",
"190 287 LINE",
"190 382 OFFCURVE",
"222 454 OFFCURVE",
"269 454 CURVE SMOOTH",
"318 454 OFFCURVE",
"324 408 OFFCURVE",
"324 348 CURVE SMOOTH",
"324 -34 LINE SMOOTH",
"324 -59 OFFCURVE",
"312 -71 OFFCURVE",
"295 -71 CURVE SMOOTH",
"286 -71 OFFCURVE",
"280 -70 OFFCURVE",
"273 -68 CURVE",
"262 -172 LINE",
"282 -179 OFFCURVE",
"302 -185 OFFCURVE",
"330 -185 CURVE SMOOTH"
);
},
{
closed = 1;
nodes = (
"190 0 LINE",
"190 760 LINE",
"50 743 LINE",
"50 0 LINE"
);
}
);
width = 509;
}
);
unicode = A727;
},
{
glyphname = hhook;
layers = (
{
components = (
{
name = n_arch;
transform = "{1, 0, 0, 1, 190, 0}";
}
);
layerId = "849A9C4C-BF7C-40C5-8614-1FD725A2A379";
paths = (
{
closed = 1;
nodes = (
"190 0 LINE",
"190 583 LINE SMOOTH",
"190 624 OFFCURVE",
"207 644 OFFCURVE",
"242 644 CURVE SMOOTH",
"256 644 OFFCURVE",
"266 642 OFFCURVE",
"277 638 CURVE",
"290 748 LINE",
"267 757 OFFCURVE",
"246 760 OFFCURVE",
"223 760 CURVE SMOOTH",
"116 760 OFFCURVE",
"50 685 OFFCURVE",
"50 587 CURVE SMOOTH",
"50 0 LINE"
);
}
);
width = 509;
}
);
unicode = 0266;
},
{
glyphname = hturned;
layers = (
{
components = (
{
name = n_arch;
transform = "{-1, 0, 0, -1, 319, 563}";
}
);
layerId = "849A9C4C-BF7C-40C5-8614-1FD725A2A379";
paths = (
{
closed = 1;
nodes = (
"459 -168 LINE",
"459 563 LINE",
"319 563 LINE",
"319 -185 LINE"
);
}
);
width = 509;
}
);
unicode = 0265;
},
{
glyphname = i;
layers = (
{
background = {
components = (
{
name = idotless;
transform = "{1, 0, 0, 1, 2, 0}";
}
);
paths = (
{
closed = 1;
nodes = (
"205 632 LINE",
"205 760 LINE",
"61 760 LINE",
"61 632 LINE"
);
}
);
};
guideLines = (
{
position = "{244, 566}";
},
{
angle = 7;
position = "{133, 560}";
},
{
angle = 270;
position = "{203, 638}";
},
{
angle = 270;
position = "{63, 625}";
}
);
layerId = "849A9C4C-BF7C-40C5-8614-1FD725A2A379";
paths = (
{
closed = 1;
nodes = (
"201 0 LINE",
"201 567 LINE",
"61 550 LINE",
"61 0 LINE"
);
},
{
closed = 1;
nodes = (
"196 615 LINE",
"196 748 LINE",
"66 748 LINE",
"66 615 LINE"
);
}
);
width = 262;
}
);
leftKerningGroup = straight;
rightKerningGroup = straight;
unicode = 0069;
},
{
glyphname = idotless;
layers = (
{
anchors = (
{
name = bottom;
position = "{131, 0}";
},
{
name = ogonek;
position = "{225, 5}";
},
{
name = top;
position = "{131, 561}";
}
);
guideLines = (
{
angle = 7;
position = "{111, 560}";
}
);
layerId = "849A9C4C-BF7C-40C5-8614-1FD725A2A379";
paths = (
{
closed = 1;
nodes = (
"201 0 LINE",
"201 567 LINE",
"61 550 LINE",
"61 0 LINE"
);
}
);
width = 262;
}
);
leftKerningGroup = straight;
rightKerningGroup = straight;
unicode = 0131;
userData = {
com.fontlab.hintData = {
vhints = (
{
position = 124;
width = 288;
}
);
};
};
},
{
glyphname = idieresisacute;
layers = (
{
components = (
{
name = idotless;
},
{
name = dieresiscomb;
transform = "{1, 0, 0, 1, 132, -2}";
}
);
layerId = "849A9C4C-BF7C-40C5-8614-1FD725A2A379";
paths = (
{
closed = 1;
nodes = (
"259 864 LINE",
"195 988 LINE",
"5 848 LINE",
"37 783 LINE"
);
}
);
width = 262;
}
);
unicode = 1E2F;
},
{
glyphname = "iota-latin";
layers = (
{
layerId = "849A9C4C-BF7C-40C5-8614-1FD725A2A379";
paths = (
{
closed = 1;
nodes = (
"223 -11 OFFCURVE",
"243 -5 OFFCURVE",
"263 2 CURVE",
"252 106 LINE",
"245 104 OFFCURVE",
"239 103 OFFCURVE",
"230 103 CURVE SMOOTH",
"213 103 OFFCURVE",
"201 115 OFFCURVE",
"201 140 CURVE SMOOTH",
"201 567 LINE",
"61 550 LINE",
"61 154 LINE SMOOTH",
"61 45 OFFCURVE",
"112 -11 OFFCURVE",
"195 -11 CURVE SMOOTH"
);
}
);
width = 262;
}
);
unicode = 0269;
},
{
glyphname = istroke;
layers = (
{
components = (
{
name = idotless;
},
{
name = dotaccentcomb;
transform = "{1, 0, 0, 1, 131, -2}";
}
);
layerId = "849A9C4C-BF7C-40C5-8614-1FD725A2A379";
paths = (
{
closed = 1;
nodes = (
"254 251 LINE",
"264 341 LINE",
"3 341 LINE",
"3 251 LINE"
);
}
);
width = 262;
}
);
unicode = 0268;
},
{
glyphname = j;
layers = (
{
background = {
paths = (
{
closed = 1;
nodes = (
"136 -168 OFFCURVE",
"192 -93 OFFCURVE",
"192 5 CURVE SMOOTH",
"192 566 LINE",
"52 549 LINE",
"52 33 LINE SMOOTH",
"52 -25 OFFCURVE",
"41 -52 OFFCURVE",
"0 -52 CURVE SMOOTH",
"-14 -52 OFFCURVE",
"-24 -50 OFFCURVE",
"-35 -46 CURVE",
"-48 -154 LINE",
"-17 -164 OFFCURVE",
"11 -168 OFFCURVE",
"41 -168 CURVE SMOOTH"
);
},
{
closed = 1;
nodes = (
"194 632 LINE",
"194 761 LINE",
"49 761 LINE",
"49 632 LINE"
);
}
);
};
guideLines = (
{
angle = 270;
position = "{191, 638}";
},
{
angle = 270;
position = "{52, 625}";
},
{
angle = 7;
position = "{192, 566}";
},
{
angle = 83;
position = "{-48, -154}";
}
);
layerId = "849A9C4C-BF7C-40C5-8614-1FD725A2A379";
paths = (
{
closed = 1;
nodes = (
"154 -168 OFFCURVE",
"210 -93 OFFCURVE",
"210 5 CURVE SMOOTH",
"210 566 LINE",
"70 553 LINE",
"70 34 LINE SMOOTH",
"70 -29 OFFCURVE",
"59 -56 OFFCURVE",
"16 -56 CURVE SMOOTH",
"4 -56 OFFCURVE",
"-6 -54 OFFCURVE",
"-17 -50 CURVE",
"-30 -154 LINE",
"1 -164 OFFCURVE",
"29 -168 OFFCURVE",
"63 -168 CURVE SMOOTH"
);
},
{
closed = 1;
nodes = (
"205 617 LINE",
"205 750 LINE",
"75 750 LINE",
"75 617 LINE"
);
}
);
width = 270;
}
);
leftKerningGroup = open;
rightKerningGroup = straight;
unicode = 006A;
},
{
glyphname = jdotless;
layers = (
{
anchors = (
{
name = bottom;
position = "{140, 0}";
},
{
name = top;
position = "{140, 563}";
}
);
layerId = "849A9C4C-BF7C-40C5-8614-1FD725A2A379";
paths = (
{
closed = 1;
nodes = (
"154 -168 OFFCURVE",
"210 -93 OFFCURVE",
"210 5 CURVE SMOOTH",
"210 566 LINE",
"70 553 LINE",
"70 34 LINE SMOOTH",
"70 -29 OFFCURVE",
"59 -56 OFFCURVE",
"16 -56 CURVE SMOOTH",
"4 -56 OFFCURVE",
"-6 -54 OFFCURVE",
"-17 -50 CURVE",
"-30 -154 LINE",
"1 -164 OFFCURVE",
"29 -168 OFFCURVE",
"63 -168 CURVE SMOOTH"
);
}
);
width = 270;
}
);
leftKerningGroup = open;
rightKerningGroup = straight;
unicode = 0237;
},
{
glyphname = jcrossedtail;
layers = (
{
layerId = "849A9C4C-BF7C-40C5-8614-1FD725A2A379";
paths = (
{
closed = 1;
nodes = (
"270 -168 OFFCURVE",
"326 -93 OFFCURVE",
"326 5 CURVE SMOOTH",
"326 566 LINE",
"186 553 LINE",
"186 4 LINE SMOOTH",
"186 -39 OFFCURVE",
"172 -57 OFFCURVE",
"150 -57 CURVE SMOOTH",
"126 -57 OFFCURVE",
"112 -30 OFFCURVE",
"112 25 CURVE SMOOTH",
"112 88 OFFCURVE",
"154 139 OFFCURVE",
"213 139 CURVE",
"213 255 LINE",
"75 255 OFFCURVE",
"-10 151 OFFCURVE",
"-10 25 CURVE SMOOTH",
"-10 -93 OFFCURVE",
"39 -168 OFFCURVE",
"157 -168 CURVE SMOOTH"
);
},
{
closed = 1;
nodes = (
"386 236 LINE",
"352 251 OFFCURVE",
"324 255 OFFCURVE",
"284 255 CURVE",
"315 138 LINE",
"337 138 OFFCURVE",
"352 134 OFFCURVE",
"371 124 CURVE"
);
},
{
closed = 1;
nodes = (
"321 617 LINE",
"321 750 LINE",
"191 750 LINE",
"191 617 LINE"
);
}
);
width = 386;
}
);
unicode = 029D;
},
{
glyphname = jstroke;
layers = (
{
components = (
{
name = jdotless;
},
{
name = dotaccentcomb;
transform = "{1, 0, 0, 1, 140, 0}";
}
);
layerId = "849A9C4C-BF7C-40C5-8614-1FD725A2A379";
paths = (
{
closed = 1;
nodes = (
"254 251 LINE",
"264 341 LINE",
"3 341 LINE",
"3 251 LINE"
);
}
);
width = 270;
}
);
unicode = 0249;
},
{
glyphname = k;
layers = (
{
anchors = (
{
name = bottom;
position = "{258, 0}";
},
{
name = top;
position = "{120, 750}";
}
);
background = {
components = (
{
name = n;
transform = "{1, 0, 0, 1, -5, 0}";
}
);
};
layerId = "849A9C4C-BF7C-40C5-8614-1FD725A2A379";
paths = (
{
closed = 1;
nodes = (
"288 314 LINE",
"301 306 LINE",
"463 563 LINE",
"322 563 LINE",
"174 325 LINE",
"185 158 LINE"
);
},
{
closed = 1;
nodes = (
"190 0 LINE",
"190 760 LINE",
"50 743 LINE",
"50 0 LINE"
);
},
{
closed = 1;
nodes = (
"474 25 LINE",
"317 373 LINE",
"226 265 LINE",
"350 -16 LINE"
);
}
);
width = 474;
}
);
leftKerningGroup = straight;
leftMetricsKey = l;
rightKerningGroup = void;
unicode = 006B;
},
{
glyphname = kgreenlandic;
layers = (
{
layerId = "849A9C4C-BF7C-40C5-8614-1FD725A2A379";
paths = (
{
closed = 1;
nodes = (
"190 0 LINE",
"190 131 LINE",
"255 241 LINE",
"289 221 LINE",
"461 536 LINE",
"348 581 LINE",
"190 292 LINE",
"190 563 LINE",
"50 563 LINE",
"50 0 LINE"
);
},
{
closed = 1;
nodes = (
"482 29 LINE",
"328 356 LINE",
"221 281 LINE",
"356 -16 LINE"
);
}
);
width = 474;
}
);
leftKerningGroup = straight;
leftMetricsKey = n;
rightKerningGroup = void;
unicode = 0138;
},
{
glyphname = khook;
layers = (
{
layerId = "849A9C4C-BF7C-40C5-8614-1FD725A2A379";
paths = (
{
closed = 1;
nodes = (
"190 0 LINE",
"190 583 LINE SMOOTH",
"190 624 OFFCURVE",
"207 644 OFFCURVE",
"242 644 CURVE SMOOTH",
"256 644 OFFCURVE",
"266 642 OFFCURVE",
"277 638 CURVE",
"290 748 LINE",
"267 757 OFFCURVE",
"246 760 OFFCURVE",
"223 760 CURVE SMOOTH",
"116 760 OFFCURVE",
"50 685 OFFCURVE",
"50 587 CURVE SMOOTH",
"50 0 LINE"
);
},
{
closed = 1;
nodes = (
"474 25 LINE",
"317 373 LINE",
"226 265 LINE",
"350 -16 LINE"
);
},
{
closed = 1;
nodes = (
"288 314 LINE",
"301 306 LINE",
"463 563 LINE",
"322 563 LINE",
"174 325 LINE",
"185 158 LINE"
);
}
);
width = 474;
}
);
unicode = 0199;
},
{
glyphname = kstroke;
layers = (
{
components = (
{
name = k;
}
);
layerId = "849A9C4C-BF7C-40C5-8614-1FD725A2A379";
paths = (
{
closed = 1;
nodes = (
"301 593 LINE",
"311 683 LINE",
"-17 683 LINE",
"-17 593 LINE"
);
}
);
width = 474;
}
);
unicode = A741;
},
{
glyphname = l;
layers = (
{
anchors = (
{
name = bottom;
position = "{119, 0}";
},
{
name = center;
position = "{299, 402}";
},
{
name = top;
position = "{119, 753}";
},
{
name = topright;
position = "{241, 538}";
}
);
background = {
paths = (
{
closed = 1;
nodes = (
"190 6 LINE",
"190 750 LINE",
"50 732 LINE",
"50 -6 LINE"
);
}
);
};
layerId = "849A9C4C-BF7C-40C5-8614-1FD725A2A379";
paths = (
{
closed = 1;
nodes = (
"190 0 LINE",
"190 768 LINE",
"50 751 LINE",
"50 0 LINE"
);
}
);
width = 240;
}
);
leftKerningGroup = straight;
rightKerningGroup = straight;
unicode = 006C;
},
{
glyphname = lambdastroke;
layers = (
{
layerId = "849A9C4C-BF7C-40C5-8614-1FD725A2A379";
paths = (
{
closed = 1;
nodes = (
"453 -10 OFFCURVE",
"479 0 OFFCURVE",
"507 19 CURVE",
"470 120 LINE",
"456 108 OFFCURVE",
"444 102 OFFCURVE",
"431 102 CURVE SMOOTH",
"406 102 OFFCURVE",
"396 112 OFFCURVE",
"390 135 CURVE SMOOTH",
"283 575 LINE SMOOTH",
"256 688 OFFCURVE",
"192 759 OFFCURVE",
"80 759 CURVE SMOOTH",
"45 759 OFFCURVE",
"26 756 OFFCURVE",
"0 746 CURVE",
"24 633 LINE",
"39 640 OFFCURVE",
"52 642 OFFCURVE",
"68 642 CURVE SMOOTH",
"117 642 OFFCURVE",
"151 604 OFFCURVE",
"151 556 CURVE",
"4 10 LINE",
"145 -9 LINE",
"204 304 LINE SMOOTH",
"211 339 OFFCURVE",
"217 369 OFFCURVE",
"219 395 CURVE",
"221 369 OFFCURVE",
"227 338 OFFCURVE",
"234 305 CURVE SMOOTH",
"265 154 LINE SMOOTH",
"287 48 OFFCURVE",
"334 -10 OFFCURVE",
"423 -10 CURVE SMOOTH"
);
},
{
closed = 1;
nodes = (
"357 627 LINE",
"332 692 LINE",
"34 578 LINE",
"59 512 LINE"
);
}
);
width = 495;
}
);
unicode = 019B;
},
{
glyphname = lbar;
layers = (
{
components = (
{
name = l;
transform = "{1, 0, 0, 1, 4, 0}";
}
);
layerId = "849A9C4C-BF7C-40C5-8614-1FD725A2A379";
paths = (
{
closed = 1;
nodes = (
"244 332 LINE",
"254 422 LINE",
"-7 422 LINE",
"-7 332 LINE"
);
}
);
width = 240;
}
);
unicode = 019A;
},
{
glyphname = lbelt;
layers = (
{
components = (
{
name = l;
transform = "{1, 0, 0, 1, 88, 0}";
}
);
layerId = "849A9C4C-BF7C-40C5-8614-1FD725A2A379";
paths = (
{
closed = 1;
nodes = (
"339 263 LINE",
"349 353 LINE",
"136 353 LINE SMOOTH",
"100 353 OFFCURVE",
"89 371 OFFCURVE",
"89 393 CURVE SMOOTH",
"89 414 OFFCURVE",
"100 433 OFFCURVE",
"136 433 CURVE SMOOTH",
"203 433 LINE",
"203 523 LINE",
"132 523 LINE SMOOTH",
"61 523 OFFCURVE",
"0 472 OFFCURVE",
"0 392 CURVE SMOOTH",
"0 315 OFFCURVE",
"61 263 OFFCURVE",
"132 263 CURVE SMOOTH"
);
}
);
width = 335;
}
);
unicode = 026C;
},
{
glyphname = ldoublebar;
layers = (
{
components = (
{
name = l;
transform = "{1, 0, 0, 1, 4, 0}";
}
);
layerId = "849A9C4C-BF7C-40C5-8614-1FD725A2A379";
paths = (
{
closed = 1;
nodes = (
"244 412 LINE",
"254 502 LINE",
"-7 502 LINE",
"-7 412 LINE"
);
},
{
closed = 1;
nodes = (
"244 252 LINE",
"254 342 LINE",
"-7 342 LINE",
"-7 252 LINE"
);
}
);
width = 240;
}
);
unicode = 2C61;
},
{
glyphname = lslash;
layers = (
{
layerId = "849A9C4C-BF7C-40C5-8614-1FD725A2A379";
paths = (
{
closed = 1;
nodes = (
"224 0 LINE",
"224 760 LINE",
"84 743 LINE",
"84 0 LINE"
);
},
{
closed = 1;
nodes = (
"308 439 LINE",
"289 552 LINE",
"0 333 LINE",
"19 220 LINE"
);
}
);
width = 308;
}
);
leftKerningGroup = straight;
rightKerningGroup = straight;
unicode = 0142;
},
{
glyphname = m;
layers = (
{
anchors = (
{
name = bottom;
position = "{369, 0}";
},
{
name = top;
position = "{373, 563}";
}
);
background = {
components = (
{
name = n;
transform = "{1, 0, 0, 1, -11, 0}";
}
);
};
guideLines = (
{
position = "{184, 456}";
},
{
position = "{180, 339}";
},
{
angle = 180;
position = "{379, 447}";
},
{
angle = 7;
position = "{184, 564}";
}
);
layerId = "849A9C4C-BF7C-40C5-8614-1FD725A2A379";
paths = (
{
closed = 1;
nodes = (
"676 0 LINE",
"676 410 LINE SMOOTH",
"676 503 OFFCURVE",
"651 570 OFFCURVE",
"562 570 CURVE SMOOTH",
"489 570 OFFCURVE",
"441 513 OFFCURVE",
"421 431 CURVE",
"434 334 LINE",
"434 393 OFFCURVE",
"461 447 OFFCURVE",
"496 447 CURVE SMOOTH",
"533 447 OFFCURVE",
"544 414 OFFCURVE",
"544 367 CURVE SMOOTH",
"544 0 LINE"
);
},
{
closed = 1;
nodes = (
"190 0 LINE",
"190 390 LINE",
"184 437 LINE",
"184 564 LINE",
"50 547 LINE",
"50 0 LINE"
);
},
{
closed = 1;
nodes = (
"434 0 LINE",
"434 421 LINE",
"434 495 OFFCURVE",
"397 570 OFFCURVE",
"321 570 CURVE SMOOTH",
"252 570 OFFCURVE",
"204 517 OFFCURVE",
"184 437 CURVE",
"190 323 LINE",
"190 374 OFFCURVE",
"219 447 OFFCURVE",
"258 447 CURVE SMOOTH",
"289 447 OFFCURVE",
"302 418 OFFCURVE",
"302 366 CURVE SMOOTH",
"302 0 LINE"
);
}
);
width = 721;
}
);
leftKerningGroup = straight;
leftMetricsKey = n;
rightKerningGroup = straight;
rightMetricsKey = n;
unicode = 006D;
},
{
glyphname = mturned;
layers = (
{
layerId = "849A9C4C-BF7C-40C5-8614-1FD725A2A379";
paths = (
{
closed = 1;
nodes = (
"232 -7 OFFCURVE",
"280 50 OFFCURVE",
"300 132 CURVE",
"287 229 LINE",
"287 170 OFFCURVE",
"260 116 OFFCURVE",
"225 116 CURVE SMOOTH",
"188 116 OFFCURVE",
"177 149 OFFCURVE",
"177 196 CURVE SMOOTH",
"177 563 LINE",
"45 563 LINE",
"45 153 LINE SMOOTH",
"45 60 OFFCURVE",
"70 -7 OFFCURVE",
"159 -7 CURVE SMOOTH"
);
},
{
closed = 1;
nodes = (
"469 -7 OFFCURVE",
"517 46 OFFCURVE",
"537 126 CURVE",
"531 240 LINE",
"531 189 OFFCURVE",
"502 116 OFFCURVE",
"463 116 CURVE SMOOTH",
"432 116 OFFCURVE",
"419 145 OFFCURVE",
"419 197 CURVE SMOOTH",
"419 563 LINE",
"287 563 LINE",
"287 142 LINE",
"287 68 OFFCURVE",
"324 -7 OFFCURVE",
"400 -7 CURVE SMOOTH"
);
},
{
closed = 1;
nodes = (
"671 16 LINE",
"671 563 LINE",
"531 563 LINE",
"531 173 LINE",
"537 126 LINE",
"537 -1 LINE"
);
}
);
width = 721;
}
);
unicode = 026F;
},
{
glyphname = n;
layers = (
{
anchors = (
{
name = bottom;
position = "{259, 0}";
},
{
name = top;
position = "{259, 563}";
}
);
background = {
components = (
{
name = n_arch;
transform = "{1, 0, 0, 1, 190, 0}";
}
);
paths = (
{
closed = 1;
nodes = (
"184 390 LINE",
"184 564 LINE",
"50 547 LINE",
"50 0 LINE",
"190 0 LINE",
"190 390 LINE"
);
}
);
};
components = (
{
name = n_arch;
transform = "{1, 0, 0, 1, 190, 0}";
}
);
guideLines = (
{
angle = 7;
position = "{184, 564}";
},
{
angle = -83;
position = "{250, 615}";
showMeasurement = 1;
}
);
layerId = "849A9C4C-BF7C-40C5-8614-1FD725A2A379";
paths = (
{
closed = 1;
nodes = (
"190 0 LINE",
"190 390 LINE",
"184 390 LINE",
"184 564 LINE",
"50 547 LINE",
"50 0 LINE"
);
}
);
width = 509;
}
);
leftKerningGroup = straight;
rightKerningGroup = straight;
unicode = 006E;
},
{
glyphname = napostrophe;
layers = (
{
components = (
{
name = n;
transform = "{1, 0, 0, 1, 118, 0}";
}
);
layerId = "849A9C4C-BF7C-40C5-8614-1FD725A2A379";
paths = (
{
closed = 1;
nodes = (
"92 482 OFFCURVE",
"130 537 OFFCURVE",
"130 601 CURVE SMOOTH",
"130 750 LINE",
"-6 750 LINE",
"-6 599 LINE",
"61 599 LINE",
"61 562 OFFCURVE",
"44 536 OFFCURVE",
"13 524 CURVE",
"39 461 LINE"
);
}
);
width = 654;
}
);
leftKerningGroup = straight;
rightKerningGroup = straight;
unicode = 0149;
},
{
glyphname = eng;
layers = (
{
background = {
paths = (
{
closed = 1;
nodes = (
"184 390 LINE",
"184 564 LINE",
"50 547 LINE",
"50 0 LINE",
"190 0 LINE",
"190 390 LINE"
);
},
{
closed = 1;
nodes = (
"257 573 OFFCURVE",
"196 526 OFFCURVE",
"180 418 CURVE",
"190 299 LINE",
"190 387 OFFCURVE",
"229 454 OFFCURVE",
"273 454 CURVE SMOOTH",
"321 454 OFFCURVE",
"331 417 OFFCURVE",
"331 347 CURVE SMOOTH",
"331 33 LINE SMOOTH",
"331 -25 OFFCURVE",
"320 -52 OFFCURVE",
"279 -52 CURVE SMOOTH",
"265 -52 OFFCURVE",
"255 -50 OFFCURVE",
"244 -46 CURVE",
"231 -154 LINE",
"262 -164 OFFCURVE",
"290 -168 OFFCURVE",
"320 -168 CURVE SMOOTH",
"413 -168 OFFCURVE",
"469 -96 OFFCURVE",
"471 0 CURVE SMOOTH",
"471 404 LINE SMOOTH",
"471 521 OFFCURVE",
"420 573 OFFCURVE",
"336 573 CURVE SMOOTH"
);
}
);
};
layerId = "849A9C4C-BF7C-40C5-8614-1FD725A2A379";
paths = (
{
closed = 1;
nodes = (
"413 -168 OFFCURVE",
"471 -96 OFFCURVE",
"471 0 CURVE SMOOTH",
"471 404 LINE SMOOTH",
"471 521 OFFCURVE",
"420 573 OFFCURVE",
"336 573 CURVE SMOOTH",
"257 573 OFFCURVE",
"196 526 OFFCURVE",
"180 418 CURVE",
"190 299 LINE",
"190 387 OFFCURVE",
"229 454 OFFCURVE",
"273 454 CURVE SMOOTH",
"321 454 OFFCURVE",
"331 417 OFFCURVE",
"331 347 CURVE SMOOTH",
"331 33 LINE SMOOTH",
"331 -25 OFFCURVE",
"320 -52 OFFCURVE",
"279 -52 CURVE SMOOTH",
"265 -52 OFFCURVE",
"255 -50 OFFCURVE",
"244 -46 CURVE",
"231 -154 LINE",
"262 -164 OFFCURVE",
"290 -168 OFFCURVE",
"320 -168 CURVE SMOOTH"
);
},
{
closed = 1;
nodes = (
"190 0 LINE",
"190 390 LINE",
"184 390 LINE",
"184 564 LINE",
"50 547 LINE",
"50 0 LINE"
);
}
);
width = 531;
}
);
leftKerningGroup = straight;
leftMetricsKey = n;
rightKerningGroup = straight;
rightMetricsKey = j;
unicode = 014B;
},
{
glyphname = nhookleft;
layers = (
{
background = {
anchors = (
{
name = bottom;
position = "{261, 0}";
},
{
name = top;
position = "{261, 563}";
}
);
components = (
{
name = n_arch;
transform = "{1, 0, 0, 1, 192, 0}";
}
);
paths = (
{
closed = 1;
nodes = (
"186 390 LINE",
"186 564 LINE",
"52 547 LINE",
"52 0 LINE",
"192 0 LINE",
"192 390 LINE"
);
}
);
};
components = (
{
name = n_arch;
transform = "{1, 0, 0, 1, 192, 0}";
}
);
layerId = "849A9C4C-BF7C-40C5-8614-1FD725A2A379";
paths = (
{
closed = 1;
nodes = (
"136 -168 OFFCURVE",
"192 -93 OFFCURVE",
"192 5 CURVE SMOOTH",
"192 390 LINE",
"186 390 LINE",
"186 564 LINE",
"52 547 LINE",
"52 33 LINE SMOOTH",
"52 -25 OFFCURVE",
"41 -52 OFFCURVE",
"0 -52 CURVE SMOOTH",
"-14 -52 OFFCURVE",
"-24 -50 OFFCURVE",
"-35 -46 CURVE",
"-48 -154 LINE",
"-17 -164 OFFCURVE",
"11 -168 OFFCURVE",
"41 -168 CURVE SMOOTH"
);
}
);
width = 511;
}
);
leftKerningGroup = straight;
rightKerningGroup = straight;
rightMetricsKey = n;
unicode = 0272;
},
{
glyphname = nlegrightlong;
layers = (
{
layerId = "849A9C4C-BF7C-40C5-8614-1FD725A2A379";
paths = (
{
closed = 1;
nodes = (
"464 -175 LINE",
"464 404 LINE SMOOTH",
"464 521 OFFCURVE",
"413 573 OFFCURVE",
"334 573 CURVE SMOOTH",
"257 573 OFFCURVE",
"196 526 OFFCURVE",
"180 418 CURVE",
"190 287 LINE",
"190 382 OFFCURVE",
"222 454 OFFCURVE",
"269 454 CURVE SMOOTH",
"318 454 OFFCURVE",
"324 408 OFFCURVE",
"324 348 CURVE SMOOTH",
"324 -175 LINE"
);
},
{
closed = 1;
nodes = (
"190 0 LINE",
"190 390 LINE",
"184 390 LINE",
"184 564 LINE",
"50 547 LINE",
"50 0 LINE"
);
}
);
width = 509;
}
);
unicode = 019E;
},
{
glyphname = o;
layers = (
{
anchors = (
{
name = bottom;
position = "{237, 0}";
},
{
name = center;
position = "{238, 281}";
},
{
name = ogonek;
position = "{393, 5}";
},
{
name = top;
position = "{237, 563}";
},
{
name = topright;
position = "{423, 603}";
}
);
background = {
paths = (
{
closed = 1;
nodes = (
"372 -13 OFFCURVE",
"451 94 OFFCURVE",
"451 279 CURVE SMOOTH",
"451 456 OFFCURVE",
"372 570 OFFCURVE",
"237 570 CURVE SMOOTH",
"101 570 OFFCURVE",
"25 454 OFFCURVE",
"25 279 CURVE SMOOTH",
"25 95 OFFCURVE",
"102 -13 OFFCURVE",
"237 -13 CURVE SMOOTH"
);
},
{
closed = 1;
nodes = (
"178 94 OFFCURVE",
"168 190 OFFCURVE",
"168 279 CURVE SMOOTH",
"168 355 OFFCURVE",
"177 463 OFFCURVE",
"237 463 CURVE SMOOTH",
"297 463 OFFCURVE",
"308 354 OFFCURVE",
"308 279 CURVE SMOOTH",
"308 190 OFFCURVE",
"297 94 OFFCURVE",
"237 94 CURVE SMOOTH"
);
}
);
};
layerId = "849A9C4C-BF7C-40C5-8614-1FD725A2A379";
paths = (
{
closed = 1;
nodes = (
"372 -13 OFFCURVE",
"451 94 OFFCURVE",
"451 279 CURVE SMOOTH",
"451 456 OFFCURVE",
"372 570 OFFCURVE",
"237 570 CURVE SMOOTH",
"101 570 OFFCURVE",
"25 454 OFFCURVE",
"25 279 CURVE SMOOTH",
"25 95 OFFCURVE",
"102 -13 OFFCURVE",
"237 -13 CURVE SMOOTH"
);
},
{
closed = 1;
nodes = (
"178 90 OFFCURVE",
"168 183 OFFCURVE",
"168 279 CURVE SMOOTH",
"168 362 OFFCURVE",
"177 467 OFFCURVE",
"237 467 CURVE SMOOTH",
"297 467 OFFCURVE",
"308 361 OFFCURVE",
"308 279 CURVE SMOOTH",
"308 183 OFFCURVE",
"297 90 OFFCURVE",
"237 90 CURVE SMOOTH"
);
}
);
width = 476;
}
);
leftKerningGroup = round;
rightKerningGroup = round;
unicode = 006F;
},
{
glyphname = obarred;
layers = (
{
components = (
{
name = o;
}
);
layerId = "849A9C4C-BF7C-40C5-8614-1FD725A2A379";
paths = (
{
closed = 1;
nodes = (
"359 237 LINE",
"359 327 LINE",
"103 327 LINE",
"103 237 LINE"
);
}
);
width = 476;
}
);
unicode = 0275;
},
{
glyphname = ohorn;
layers = (
{
anchors = (
{
name = bottom;
position = "{237, 0}";
},
{
name = top;
position = "{237, 563}";
}
);
layerId = "849A9C4C-BF7C-40C5-8614-1FD725A2A379";
paths = (
{
closed = 1;
nodes = (
"372 -13 OFFCURVE",
"451 94 OFFCURVE",
"451 279 CURVE SMOOTH",
"451 456 OFFCURVE",
"372 570 OFFCURVE",
"237 570 CURVE SMOOTH",
"101 570 OFFCURVE",
"25 454 OFFCURVE",
"25 279 CURVE SMOOTH",
"25 95 OFFCURVE",
"102 -13 OFFCURVE",
"237 -13 CURVE SMOOTH"
);
},
{
closed = 1;
nodes = (
"178 90 OFFCURVE",
"168 183 OFFCURVE",
"168 279 CURVE SMOOTH",
"168 362 OFFCURVE",
"177 467 OFFCURVE",
"237 467 CURVE SMOOTH",
"297 467 OFFCURVE",
"308 361 OFFCURVE",
"308 279 CURVE SMOOTH",
"308 183 OFFCURVE",
"297 90 OFFCURVE",
"237 90 CURVE SMOOTH"
);
},
{
closed = 1;
nodes = (
"464 383 OFFCURVE",
"539 443 OFFCURVE",
"539 530 CURVE SMOOTH",
"539 583 OFFCURVE",
"518 617 OFFCURVE",
"503 629 CURVE",
"404 592 LINE",
"420 570 OFFCURVE",
"431 541 OFFCURVE",
"431 516 CURVE SMOOTH",
"431 494 OFFCURVE",
"417 470 OFFCURVE",
"362 470 CURVE",
"362 386 LINE",
"371 384 OFFCURVE",
"380 383 OFFCURVE",
"389 383 CURVE SMOOTH"
);
}
);
width = 514;
}
);
leftKerningGroup = round;
rightKerningGroup = round;
unicode = 01A1;
},
{
glyphname = omacronacute;
layers = (
{
background = {
paths = (
{
closed = 1;
nodes = (
"358 814 LINE",
"294 938 LINE",
"104 798 LINE",
"136 733 LINE"
);
}
);
};
components = (
{
name = o;
},
{
name = macroncomb_acutecomb;
transform = "{1, 0, 0, 1, 237, 0}";
}
);
layerId = "849A9C4C-BF7C-40C5-8614-1FD725A2A379";
width = 476;
}
);
unicode = 1E53;
},
{
glyphname = "omega-latin";
layers = (
{
background = {
components = (
{
name = m;
}
);
};
layerId = "849A9C4C-BF7C-40C5-8614-1FD725A2A379";
paths = (
{
closed = 1;
nodes = (
"293 -14 OFFCURVE",
"339 27 OFFCURVE",
"362 115 CURVE",
"335 115 LINE",
"358 27 OFFCURVE",
"404 -14 OFFCURVE",
"488 -14 CURVE SMOOTH",
"592 -14 OFFCURVE",
"663 75 OFFCURVE",
"663 251 CURVE SMOOTH",
"663 370 OFFCURVE",
"641 469 OFFCURVE",
"595 563 CURVE",
"454 563 LINE",
"502 463 OFFCURVE",
"522 368 OFFCURVE",
"522 232 CURVE SMOOTH",
"522 130 OFFCURVE",
"508 89 OFFCURVE",
"465 89 CURVE SMOOTH",
"433 89 OFFCURVE",
"419 111 OFFCURVE",
"419 154 CURVE SMOOTH",
"419 341 LINE",
"279 341 LINE",
"279 154 LINE SMOOTH",
"279 111 OFFCURVE",
"265 89 OFFCURVE",
"232 89 CURVE SMOOTH",
"190 89 OFFCURVE",
"176 130 OFFCURVE",
"176 232 CURVE SMOOTH",
"176 368 OFFCURVE",
"196 463 OFFCURVE",
"244 563 CURVE",
"103 563 LINE",
"57 469 OFFCURVE",
"35 370 OFFCURVE",
"35 251 CURVE SMOOTH",
"35 75 OFFCURVE",
"106 -14 OFFCURVE",
"209 -14 CURVE SMOOTH"
);
}
);
width = 698;
}
);
unicode = A7B7;
},
{
glyphname = oopen;
layers = (
{
layerId = "849A9C4C-BF7C-40C5-8614-1FD725A2A379";
paths = (
{
closed = 1;
nodes = (
"338 -7 OFFCURVE",
"419 106 OFFCURVE",
"419 285 CURVE SMOOTH",
"419 462 OFFCURVE",
"349 576 OFFCURVE",
"207 576 CURVE SMOOTH",
"96 576 OFFCURVE",
"27 487 OFFCURVE",
"15 381 CURVE",
"143 367 LINE",
"145 409 OFFCURVE",
"159 473 OFFCURVE",
"207 473 CURVE SMOOTH",
"258 473 OFFCURVE",
"276 400 OFFCURVE",
"276 285 CURVE SMOOTH",
"276 185 OFFCURVE",
"264 96 OFFCURVE",
"207 96 CURVE SMOOTH",
"161 96 OFFCURVE",
"149 158 OFFCURVE",
"145 210 CURVE",
"15 184 LINE",
"24 66 OFFCURVE",
"96 -7 OFFCURVE",
"207 -7 CURVE SMOOTH"
);
}
);
width = 444;
}
);
unicode = 0254;
},
{
glyphname = oslash;
layers = (
{
anchors = (
{
name = bottom;
position = "{246, 0}";
},
{
name = center;
position = "{247, 281}";
},
{
name = ogonek;
position = "{424, 5}";
},
{
name = top;
position = "{246, 563}";
},
{
name = topright;
position = "{482, 563}";
}
);
layerId = "849A9C4C-BF7C-40C5-8614-1FD725A2A379";
paths = (
{
closed = 1;
nodes = (
"161 97 LINE",
"155 102 LINE",
"414 428 LINE",
"417 426 LINE",
"489 517 LINE",
"427 569 LINE",
"355 479 LINE",
"360 475 LINE",
"101 147 LINE",
"99 149 LINE",
"18 47 LINE",
"81 -5 LINE"
);
},
{
closed = 1;
nodes = (
"384 -13 OFFCURVE",
"460 104 OFFCURVE",
"460 282 CURVE SMOOTH",
"460 442 OFFCURVE",
"384 570 OFFCURVE",
"246 570 CURVE SMOOTH",
"106 570 OFFCURVE",
"34 446 OFFCURVE",
"34 282 CURVE SMOOTH",
"34 108 OFFCURVE",
"111 -13 OFFCURVE",
"246 -13 CURVE SMOOTH"
);
},
{
closed = 1;
nodes = (
"180 92 OFFCURVE",
"177 185 OFFCURVE",
"177 279 CURVE SMOOTH",
"177 355 OFFCURVE",
"183 465 OFFCURVE",
"246 465 CURVE SMOOTH",
"313 465 OFFCURVE",
"317 360 OFFCURVE",
"317 279 CURVE SMOOTH",
"317 190 OFFCURVE",
"309 92 OFFCURVE",
"246 92 CURVE SMOOTH"
);
}
);
width = 500;
}
);
leftKerningGroup = round;
rightKerningGroup = round;
unicode = 00F8;
},
{
glyphname = otildeacute;
layers = (
{
components = (
{
name = o;
},
{
name = tildecomb;
transform = "{1, 0, 0, 1, 237, 0}";
}
);
layerId = "849A9C4C-BF7C-40C5-8614-1FD725A2A379";
paths = (
{
closed = 1;
nodes = (
"365 864 LINE",
"301 988 LINE",
"111 848 LINE",
"143 783 LINE"
);
}
);
width = 476;
}
);
unicode = 1E4D;
},
{
glyphname = ou;
layers = (
{
background = {
paths = (
{
closed = 1;
nodes = (
"370 -10 OFFCURVE",
"441 72 OFFCURVE",
"441 189 CURVE SMOOTH",
"441 563 LINE",
"301 563 LINE",
"301 196 LINE SMOOTH",
"301 126 OFFCURVE",
"285 90 OFFCURVE",
"238 90 CURVE SMOOTH",
"191 90 OFFCURVE",
"175 126 OFFCURVE",
"175 196 CURVE SMOOTH",
"175 563 LINE",
"35 563 LINE",
"35 189 LINE SMOOTH",
"35 72 OFFCURVE",
"106 -10 OFFCURVE",
"238 -10 CURVE SMOOTH"
);
}
);
};
layerId = "849A9C4C-BF7C-40C5-8614-1FD725A2A379";
paths = (
{
closed = 1;
nodes = (
"372 -13 OFFCURVE",
"451 77 OFFCURVE",
"451 183 CURVE SMOOTH",
"451 291 OFFCURVE",
"372 385 OFFCURVE",
"237 385 CURVE SMOOTH",
"101 385 OFFCURVE",
"25 289 OFFCURVE",
"25 183 CURVE SMOOTH",
"25 78 OFFCURVE",
"102 -13 OFFCURVE",
"237 -13 CURVE SMOOTH"
);
},
{
closed = 1;
nodes = (
"186 90 OFFCURVE",
"168 135 OFFCURVE",
"168 183 CURVE SMOOTH",
"168 233 OFFCURVE",
"187 285 OFFCURVE",
"240 285 CURVE SMOOTH",
"291 285 OFFCURVE",
"308 232 OFFCURVE",
"308 183 CURVE SMOOTH",
"308 135 OFFCURVE",
"289 90 OFFCURVE",
"237 90 CURVE SMOOTH"
);
},
{
closed = 1;
nodes = (
"370 285 OFFCURVE",
"441 367 OFFCURVE",
"441 484 CURVE SMOOTH",
"441 563 LINE",
"301 563 LINE",
"301 491 LINE SMOOTH",
"301 421 OFFCURVE",
"285 385 OFFCURVE",
"238 385 CURVE SMOOTH",
"191 385 OFFCURVE",
"175 421 OFFCURVE",
"175 491 CURVE SMOOTH",
"175 563 LINE",
"35 563 LINE",
"35 484 LINE SMOOTH",
"35 367 OFFCURVE",
"106 285 OFFCURVE",
"238 285 CURVE SMOOTH"
);
}
);
width = 476;
}
);
unicode = 0223;
},
{
glyphname = oe;
layers = (
{
background = {
paths = (
{
closed = 1;
nodes = (
"296 -13 OFFCURVE",
"341 16 OFFCURVE",
"374 57 CURVE",
"410 9 OFFCURVE",
"452 -13 OFFCURVE",
"521 -13 CURVE SMOOTH",
"607 -13 OFFCURVE",
"682 39 OFFCURVE",
"705 151 CURVE",
"587 177 LINE",
"580 139 OFFCURVE",
"565 93 OFFCURVE",
"523 93 CURVE SMOOTH",
"465 93 OFFCURVE",
"446 167 OFFCURVE",
"446 248 CURVE",
"706 248 LINE",
"708 279 OFFCURVE",
"709 297 OFFCURVE",
"709 334 CURVE SMOOTH",
"709 414 OFFCURVE",
"685 570 OFFCURVE",
"517 570 CURVE SMOOTH",
"454 570 OFFCURVE",
"400 536 OFFCURVE",
"377 491 CURVE",
"351 536 OFFCURVE",
"293 570 OFFCURVE",
"230 570 CURVE SMOOTH",
"98 570 OFFCURVE",
"25 451 OFFCURVE",
"25 280 CURVE SMOOTH",
"25 108 OFFCURVE",
"98 -13 OFFCURVE",
"232 -13 CURVE SMOOTH"
);
},
{
closed = 1;
nodes = (
"173 91 OFFCURVE",
"166 191 OFFCURVE",
"166 279 CURVE SMOOTH",
"166 359 OFFCURVE",
"173 465 OFFCURVE",
"235 465 CURVE SMOOTH",
"300 465 OFFCURVE",
"306 347 OFFCURVE",
"306 278 CURVE SMOOTH",
"306 210 OFFCURVE",
"303 91 OFFCURVE",
"235 91 CURVE SMOOTH"
);
},
{
closed = 1;
nodes = (
"450 405 OFFCURVE",
"474 464 OFFCURVE",
"517 464 CURVE SMOOTH",
"564 464 OFFCURVE",
"585 412 OFFCURVE",
"582 330 CURVE",
"448 330 LINE"
);
}
);
};
layerId = "849A9C4C-BF7C-40C5-8614-1FD725A2A379";
paths = (
{
closed = 1;
nodes = (
"296 -13 OFFCURVE",
"341 16 OFFCURVE",
"374 57 CURVE",
"410 9 OFFCURVE",
"452 -13 OFFCURVE",
"521 -13 CURVE SMOOTH",
"607 -13 OFFCURVE",
"682 39 OFFCURVE",
"705 151 CURVE",
"587 177 LINE",
"580 139 OFFCURVE",
"565 93 OFFCURVE",
"523 93 CURVE SMOOTH",
"465 93 OFFCURVE",
"446 167 OFFCURVE",
"446 248 CURVE",
"706 248 LINE",
"708 279 OFFCURVE",
"709 297 OFFCURVE",
"709 334 CURVE SMOOTH",
"709 414 OFFCURVE",
"685 570 OFFCURVE",
"517 570 CURVE SMOOTH",
"454 570 OFFCURVE",
"400 536 OFFCURVE",
"377 491 CURVE",
"351 536 OFFCURVE",
"293 570 OFFCURVE",
"230 570 CURVE SMOOTH",
"98 570 OFFCURVE",
"25 451 OFFCURVE",
"25 280 CURVE SMOOTH",
"25 108 OFFCURVE",
"98 -13 OFFCURVE",
"232 -13 CURVE SMOOTH"
);
},
{
closed = 1;
nodes = (
"173 91 OFFCURVE",
"166 191 OFFCURVE",
"166 279 CURVE SMOOTH",
"166 359 OFFCURVE",
"173 465 OFFCURVE",
"235 465 CURVE SMOOTH",
"300 465 OFFCURVE",
"306 347 OFFCURVE",
"306 278 CURVE SMOOTH",
"306 210 OFFCURVE",
"303 91 OFFCURVE",
"235 91 CURVE SMOOTH"
);
},
{
closed = 1;
nodes = (
"448 405 OFFCURVE",
"473 464 OFFCURVE",
"516 464 CURVE SMOOTH",
"563 464 OFFCURVE",
"582 412 OFFCURVE",
"582 330 CURVE",
"448 330 LINE"
);
}
);
width = 734;
}
);
leftKerningGroup = round;
leftMetricsKey = o;
rightKerningGroup = round;
rightMetricsKey = e;
unicode = 0153;
},
{
glyphname = p;
layers = (
{
anchors = (
{
name = bottom;
position = "{241, -140}";
},
{
name = top;
position = "{241, 563}";
}
);
background = {
components = (
{
name = n;
transform = "{1, 0, 0, 1, -23, 0}";
}
);
};
components = (
{
name = d_bowl;
transform = "{-1, 0, 0, -1, 468, 557}";
}
);
guideLines = (
{
angle = 7;
position = "{50, -175}";
}
);
layerId = "849A9C4C-BF7C-40C5-8614-1FD725A2A379";
paths = (
{
closed = 1;
nodes = (
"190 -157 LINE",
"190 426 LINE",
"183 426 LINE",
"183 568 LINE",
"50 551 LINE",
"50 -175 LINE"
);
}
);
width = 505;
}
);
leftKerningGroup = straight;
leftMetricsKey = l;
rightKerningGroup = round;
unicode = 0070;
},
{
glyphname = phook;
layers = (
{
components = (
{
name = d_bowl;
transform = "{-1, 0, 0, -1, 468, 557}";
}
);
layerId = "849A9C4C-BF7C-40C5-8614-1FD725A2A379";
paths = (
{
closed = 1;
nodes = (
"190 -157 LINE",
"190 591 LINE SMOOTH",
"190 624 OFFCURVE",
"207 644 OFFCURVE",
"242 644 CURVE SMOOTH",
"256 644 OFFCURVE",
"266 642 OFFCURVE",
"277 638 CURVE",
"290 748 LINE",
"267 757 OFFCURVE",
"246 760 OFFCURVE",
"223 760 CURVE SMOOTH",
"116 760 OFFCURVE",
"50 685 OFFCURVE",
"50 587 CURVE SMOOTH",
"50 -175 LINE"
);
}
);
width = 505;
}
);
unicode = 01A5;
},
{
glyphname = thorn;
layers = (
{
background = {
paths = (
{
closed = 1;
nodes = (
"191 -175 LINE",
"190 70 LINE",
"195 55 OFFCURVE",
"201 41 OFFCURVE",
"212 28 CURVE SMOOTH",
"229 7 OFFCURVE",
"259 -13 OFFCURVE",
"311 -13 CURVE SMOOTH",
"414 -13 OFFCURVE",
"472 78 OFFCURVE",
"472 281 CURVE SMOOTH",
"472 495 OFFCURVE",
"410 570 OFFCURVE",
"336 570 CURVE SMOOTH",
"287 570 OFFCURVE",
"233 538 OFFCURVE",
"190 491 CURVE",
"190 750 LINE",
"50 732 LINE",
"50 -175 LINE"
);
},
{
closed = 1;
nodes = (
"225 87 OFFCURVE",
"190 117 OFFCURVE",
"190 234 CURVE SMOOTH",
"190 412 LINE",
"201 418 OFFCURVE",
"213 425 OFFCURVE",
"224 431 CURVE SMOOTH",
"243 440 OFFCURVE",
"266 450 OFFCURVE",
"283 450 CURVE SMOOTH",
"329 450 OFFCURVE",
"332 376 OFFCURVE",
"332 281 CURVE SMOOTH",
"332 177 OFFCURVE",
"327 87 OFFCURVE",
"259 87 CURVE SMOOTH"
);
}
);
};
components = (
{
name = d_bowl;
transform = "{-1, 0, 0, -1, 468, 557}";
}
);
guideLines = (
{
angle = 7;
position = "{50, -175}";
},
{
angle = 7;
position = "{50, 741}";
}
);
layerId = "849A9C4C-BF7C-40C5-8614-1FD725A2A379";
paths = (
{
closed = 1;
nodes = (
"190 -158 LINE",
"190 759 LINE",
"50 741 LINE",
"50 -175 LINE"
);
}
);
width = 505;
}
);
leftKerningGroup = straight;
leftMetricsKey = h;
rightKerningGroup = round;
rightMetricsKey = p;
unicode = 00FE;
},
{
glyphname = pstroke;
layers = (
{
components = (
{
name = p;
transform = "{1, 0, 0, 1, 7, 0}";
}
);
layerId = "849A9C4C-BF7C-40C5-8614-1FD725A2A379";
paths = (
{
closed = 1;
nodes = (
"531 237 LINE",
"541 327 LINE",
"-10 327 LINE",
"-10 237 LINE"
);
}
);
width = 541;
}
);
unicode = 1D7D;
},
{
glyphname = q;
layers = (
{
anchors = (
{
name = bottom;
position = "{269, 0}";
},
{
name = top;
position = "{269, 563}";
}
);
background = {
paths = (
{
closed = 1;
nodes = (
"456 -157 LINE",
"456 563 LINE",
"320 551 LINE",
"315 508 LINE",
"292 544 OFFCURVE",
"260 570 OFFCURVE",
"207 570 CURVE SMOOTH",
"64 570 OFFCURVE",
"57 393 OFFCURVE",
"57 272 CURVE SMOOTH",
"57 174 OFFCURVE",
"62 -13 OFFCURVE",
"206 -13 CURVE SMOOTH",
"263 -13 OFFCURVE",
"294 16 OFFCURVE",
"315 48 CURVE",
"315 -175 LINE"
);
},
{
closed = 1;
nodes = (
"222 94 OFFCURVE",
"198 125 OFFCURVE",
"198 275 CURVE SMOOTH",
"198 421 OFFCURVE",
"221 469 OFFCURVE",
"263 469 CURVE SMOOTH",
"288 469 OFFCURVE",
"302 453 OFFCURVE",
"315 430 CURVE",
"315 139 LINE",
"305 117 OFFCURVE",
"286 94 OFFCURVE",
"256 94 CURVE SMOOTH"
);
}
);
};
components = (
{
name = d_bowl;
transform = "{1, 0, 0, 1, 37, 0}";
}
);
guideLines = (
{
angle = 7;
position = "{455, 569}";
},
{
position = "{226, -175}";
}
);
layerId = "849A9C4C-BF7C-40C5-8614-1FD725A2A379";
paths = (
{
closed = 1;
nodes = (
"455 -158 LINE",
"455 563 LINE",
"325 563 LINE",
"325 423 LINE",
"315 423 LINE",
"315 -175 LINE"
);
}
);
width = 505;
}
);
leftKerningGroup = round;
rightKerningGroup = straight;
rightMetricsKey = l;
unicode = 0071;
},
